<?xml version="1.0" encoding="UTF-8"?>
<svg version="1.1" viewBox="0 0 398 532" xmlns="http://www.w3.org/2000/svg">
 <path d="m146.94 530.15c-7.8786-1.7044-20.016-7.5797-30.437-14.734-23.291-15.989-33.407-22.408-44.75-28.391l-11.75-6.1983 5.04e-4 -5.6614c2.94e-4 -3.2936 0.86165-7.9271 2.0595-11.079 2.0029-5.2697 2.0171-5.76 0.52039-18-1.7532-14.338-4.0032-23.684-9.6417-40.051-3.1351-9.1004-4.757-12.301-7.8548-15.5-3.3164-3.4248-4.3025-5.5366-6.5522-14.032-4.2498-16.047-4.6545-19.131-3.4319-26.152 0.60881-3.4961 1.621-6.3385 2.2529-6.3264 0.63104 0.0121 3.0381 0.88034 5.349 1.9295 3.217 1.4605 4.9383 3.2129 7.3455 7.478 1.7291 3.0638 3.2767 5.5705 3.4392 5.5705 0.16244 0 2.257-0.89012 4.6545-1.978 8.3074-3.7696 19.439-1.6458 23.448 4.4738 1.3126 2.0032 1.4098 3.0684 0.51462 5.6364-1.4244 4.0861-1.4089 10.659 0.03538 14.969 0.62654 1.8696 5.1265 11.68 10 21.801 4.8735 10.121 8.8597 19.121 8.8583 20-1e-3 0.87879-1.5611 4.1824-3.466 7.3414l-3.4634 5.7436 10.613 5.0064c11.602 5.4724 12.501 5.6963 14.279 3.5545 0.93985-1.1324 0.93991-2.6361 2.6e-4 -6.8349-1.5631-6.9848-0.91466-19.498 1.0757-20.757 2.3492-1.4858 5.7468-1.108 10.126 1.126 3.5052 1.7882 4.5904 3.2015 7.6787 10 3.715 8.1781 5.905 10.355 4.6953 4.6674-0.38018-1.7875-0.92373-5.6267-1.2079-8.5315-0.93543-9.5628 2.8462-11.966 14.293-9.0837 3.4756 0.87517 5.0368 0.8511 6.8237-0.10521 1.2743-0.682 3.2135-0.95546 4.3093-0.60767 1.7319 0.54968 2.0778 1.8377 2.6464 9.8552 1.23 17.342 1.663 19.723 3.5864 19.723 1.5328 0 1.8248-1.368 2.2943-10.75 0.57967-11.584 1.9482-17.74 4.1299-18.577 0.75454-0.28955 2.8832 0.22818 4.7305 1.1505l3.3586 1.677-0.32135 8.75c-0.21136 5.7551 0.0453 8.75 0.75 8.75 1.3032 0 1.1806 0.75017 1.9439-11.896 0.4903-8.1234 0.98966-10.623 2.2844-11.436 2.3812-1.4948 8.8007 0.65347 14.147 4.7342l4.3827 3.3454 2.4516-3.045c2.1631-2.6866 3.1972-3.0989 8.7859-3.5032l6.3343-0.45818-0.68591 8.8795c-1.0854 14.052-1.3759 15.056-4.7618 16.458-4.0676 1.6848-7.633 0.26793-9.8731-3.9235l-1.7877-3.345-1.5748 3.0453c-0.86613 1.6749-1.5748 3.5131-1.5748 4.0849 0 1.453 18.088 10.393 18.985 9.3832 1.2431-1.3982 9.014-24.322 9.0302-26.638 0.0316-4.5104 1.1413-4.953 8.0847-3.2245 3.52 0.87633 7.3981 2.0149 8.6179 2.5302l2.2178 0.93685-3.5573 7.4906c-4.4953 9.4659-4.1446 12.997 1.4452 14.549 8.1026 2.2505 8.6732 1.499 9.4841-12.491 0.80765-13.934 1.6521-15.433 7.5391-13.38 2.8759 1.0025 2.91 1.1079 3.6245 11.186 0.61352 8.6537 0.91402 9.9107 2.0108 8.4108 0.70919-0.96988 1.6049-5.1296 1.9904-9.2438 0.41692-4.4491 1.3026-8.082 2.1856-8.9651 2.0186-2.0186 16.592-2.0919 18.59-0.0934 0.76518 0.76518 2.4183 5.279 3.6735 10.031 2.3563 8.9197 3.9568 11.578 6.9705 11.578 1.3857 0 2.9238-3.657 7.3958-17.585l5.6463-17.585-4.2727-5.7792 3.7177-17.776c4.4288-21.175 5.1178-23.511 7.5993-25.756 1.8082-1.6364 2.2943-1.5883 9.7124 0.96183 4.2949 1.4765 8.3714 2.9097 9.0589 3.1851 0.75464 0.30221 1.25-0.30637 1.25-1.5357 0-3.6747 2.055-6.657 6.8347-9.9186 5.4519-3.7204 6.0648-3.7953 12.415-1.5192 4.2585 1.5263 4.7498 2.0184 4.7477 4.7549-3e-3 4.0333-10.29 34.421-14.235 42.052-1.7062 3.3-4.4102 8.526-6.0089 11.613-2.3864 4.6085-3.0722 7.5622-3.8311 16.5-1.7422 20.517-2.6831 51.54-1.6768 55.285 2.425 9.0235 2.6878 8.64-13.245 19.329-13.142 8.8162-21.152 13.136-53.809 29.022l-10.309 5.0146-13.691-0.88181c-16.544-1.0656-44.703-1.1268-79.691-0.17321-14.3 0.38974-27.603 0.36176-29.563-0.0622zm14.943-83.021 2.3801-1.8302-10.603-15.713-1.6831 3.9631c-3.2346 7.6161-3.2271 7.6633 1.8338 11.664 2.5807 2.0403 4.9173 3.7178 5.1923 3.7278 0.275 0.01 1.571-0.80543 2.8801-1.812zm80.978-38.697-4.2066-5.5716 1.0512-12.505c0.57814-6.878 1.4923-12.946 2.0314-13.486 0.53913-0.53913 3.3961-0.842 6.3487-0.67303 7.2709 0.41608 7.8835 1.7978 7.9024 17.825 0.0138 11.764-0.13789 12.742-2.5213 16.25-3.51 5.1654-5.5894 4.8047-10.606-1.8395zm18.142 0.57161c-1.7635-1.7635-1.9996-3.3304-1.9963-13.25 3e-3 -9.4039 0.32493-11.777 1.9611-14.46l1.9573-3.2101-7.4359-3.8964c-7.0405-3.6892-7.5204-3.803-9.0258-2.1396-3.0696 3.3918-5.199 2.9823-13.683-2.6317-8.845-5.8528-9.8202-6.1162-14.905-4.026-6.9894 2.8729-9.3742 2.9038-12.631 0.16358-3.5343-2.974-5.8732-3.1962-9.1897-0.8733-1.3163 0.92199-4.6321 2.0302-7.3685 2.4628-6.0351 0.95402-9.0584 3.579-11.132 9.6655-1.9491 5.7202-1.9421 8.452 0.0489 19.077 1.5964 8.5196 1.5951 8.5417-0.61078 10.328-2.5147 2.0362-8.1377 2.3314-12.885 0.67634-2.6528-0.92476-3.511-0.82759-5.0583 0.5727-1.7206 1.5571-2.1008 1.5637-4.9587 0.0858-5.4866-2.8372-8.3188-8.4959-9.1821-18.346-0.41935-4.7846-0.79443-9.4771-0.83352-10.428-0.0616-1.4992-0.43604-1.5735-2.8211-0.56007-4.5121 1.9172-4.5955 2.342-1.8637 9.4912 1.4429 3.776 2.7337 8.6501 2.8686 10.831l0.24517 3.966-4.7359 0.0918c-2.6048 0.0505-6.5809 0.92377-8.836 1.9406-5.42 2.4441-6.514 1.6637-11.363-8.1052-4.1653-8.3918-4.0763-7.734-3.5074-25.927 0.31457-10.06-2.0878-19.859-5.848-23.852-2.2616-2.402-28.358-20.648-29.531-20.648-0.20588 0-2.0406 3.3714-4.077 7.4919s-4.602 7.9732-5.701 8.5614c-2.8857 1.5444-7.3445-0.19391-17.03-6.6392-4.5054-2.9983-10.707-6.1751-13.781-7.0596-9.7917-2.817-16.917-7.0813-20.348-12.178-1.5587-2.3154-1.7166-4.0262-1.1695-12.677l0.6324-10 6.3977-10.326c3.5187-5.6791 6.3977-10.707 6.3977-11.173 0-1.7968-5.4309-7.1802-9.1658-9.0856-2.1528-1.0983-4.3304-2.991-4.8391-4.2062-1.299-3.1027-10.515-47.74-13.067-63.287-2.8842-17.573-2.3848-23.602 2.8101-33.922 3.1599-6.2779 4.4734-10.583 6.1018-20 5.0636-29.282 13.487-48.651 30.187-69.412 14.336-17.823 21.076-22.85 52.473-39.138 14.403-7.4716 36.463-16.626 55.171-22.893 19.996-6.6992 65.769-10.737 81.829-7.2175 22.87 5.0113 36.417 8.5323 40.392 10.498 15.89 7.8584 33.512 18.093 41.427 24.062 27.876 21.02 46.391 39.211 58.434 57.411 13.395 20.246 17.433 30.308 18.735 46.69 0.34962 4.4 1.3372 15.425 2.1945 24.5 0.95055 10.061 1.6359 28.792 1.7564 48 0.129 20.573 0.65408 34.182 1.5137 39.231l1.3162 7.7312-5.5223 8.2688c-3.0373 4.5478-6.7502 10.72-8.251 13.716l-2.7288 5.4474 3.6988 15.29 3.6988 15.29-2.3319 4.224c-2.578 4.6698-7.9113 8.8014-11.361 8.8014-1.2285 0-8.6086 3.15-16.4 7s-15.192 7-16.444 7c-2.9283 0-5.8381-3.2698-8.2281-9.2462-1.0439-2.6104-2.123-4.7372-2.398-4.726-0.275 0.0111-4.9821 2.3733-10.46 5.2492-11.185 5.8721-15.909 10.858-19.622 20.711-2.4896 6.6073-3.5591 8.0121-6.0994 8.0121-1.0651 0-1.6945 0.39172-1.3986 0.87049 0.29589 0.47877 1.2118 3.4573 2.0353 6.6189 1.2126 4.6557 1.2915 7.1319 0.41481 13.026-1.0202 6.8596-0.95399 7.4517 1.1524 10.301 2.7473 3.7159 2.136 7.179-1.9967 11.312-2.531 2.531-3.5915 2.8719-8.936 2.8719h-6.0642l0.64364-7.6143 0.64365-7.6143-4.4064 0.72967c-2.4235 0.40132-4.7095 0.90806-5.0799 1.1261-0.37045 0.21802-1.4425 2.7536-2.3823 5.6346-2.693 8.2555-4.6185 9.5639-8.4441 5.7382zm-97.628-34.536c0.99461-4.7192-0.33349-5.8555-5.1554-4.4108l-4.0641 1.2176 6.302 12.78 1.1464-3.3112c0.6305-1.8212 1.4275-4.6451 1.7711-6.2754zm74.04-62.464c5.881-8.8297 6.9551-12.634 6.342-22.461-0.43942-7.0435-1.3916-10.351-7.0789-24.588-4.4464-11.131-7.27-20.007-8.7324-27.45-3.2106-16.342-5.3619-18.569-11.482-11.887l-3.3092 3.6128-8.6377-5.2174c-4.7508-2.8696-8.8795-4.9756-9.1751-4.6801-0.29553 0.29554-2.3011 7.1537-4.4568 15.24-2.1557 8.0866-5.3063 17.904-7.0014 21.817-7.5657 17.465-7.1978 15.783-7.5742 34.614-0.42251 21.14 0.76172 28.633 4.8905 30.942 2.6707 1.4937 2.772 1.4351 10.5-6.0712 7.8172-7.593 12.641-10.871 15.998-10.871 0.98682 0 6.0073 4.3806 11.157 9.7348l9.3624 9.7347 2.4344-2.9847c1.3389-1.6416 4.3826-5.9098 6.7637-9.4848zm-141.84-46.358c9.6337-3.2806 19.091-8.2158 31.766-16.577 17.295-11.408 23.951-19.248 27.248-32.09 3.4087-13.279-0.9362-35.883-7.3981-38.489-0.92951-0.37483-6.3184-1.2612-11.975-1.9697-9.7049-1.2155-10.89-1.1571-21 1.0341-33.097 7.1735-35.044 7.8147-43.804 14.429-7.1382 5.3894-9.7219 9.8574-9.7719 16.898-0.05509 7.7542 1.7316 12.287 7.3942 18.758 5.6917 6.5042 6.674 9.7363 4.5235 14.883-0.8826 2.1124-1.5567 6.623-1.5567 10.416 0 6.0708 0.26755 6.9471 2.8873 9.457 2.9619 2.8377 9.001 5.4861 12.688 5.5641 1.1412 0.0241 5.1912-1.0173 9-2.3144zm223.55-2.5068c4.8568-3.0801 7.1167-6.7947 8.8563-14.557 1.3974-6.2354 2.3746-7.976 7.635-13.6 6.4544-6.9003 7.4394-9.9582 6.2621-19.441-0.53741-4.3287-1.9677-10.829-3.1784-14.446l-2.2013-6.5753-15.5-6.7332c-8.525-3.7032-21.054-8.5391-27.841-10.746l-12.341-4.0132-5.1586 2.1833c-7.4143 3.138-12.378 6.6018-14.582 10.177-3.0605 4.9626-7.9614 21.352-9.1764 30.688-1.4843 11.405-0.14919 18.109 4.745 23.826 4.0445 4.7251 6.7521 6.2954 13.849 8.0319 2.7467 0.67205 7.6325 2.8247 10.857 4.7836 7.5316 4.5752 27.383 13.119 30.703 13.214 1.4048 0.0402 4.5872-1.2162 7.0721-2.7921zm-99.296-160.65c0.18147-0.17014-1.3809-1.8772-3.4719-3.7935l-3.8018-3.4841-0.82978-19.853c-1.1291-27.013-0.7771-33.44 2.0399-37.25 1.2285-1.6617 2.2337-3.2644 2.2337-3.5617 0-0.29727-4.725-0.54049-10.5-0.54049s-10.5 0.38026-10.5 0.84501c0 0.46476 0.88306 1.6442 1.9624 2.6209 3.2791 2.9675 3.8384 7.0678 4.4016 32.27 0.56491 25.28 0.10791 29.406-3.4691 31.32-1.0422 0.55774-1.8948 1.5022-1.8948 2.0988 0 0.75915 3.5267 0.86746 11.75 0.36089 6.4625-0.39811 11.898-0.86304 12.08-1.0332zm-32.83 305.24c-4.3115-1.176-4.491-1.374-4.2854-4.7274 0.11803-1.925 0.50136-8.9476 0.85183-15.606 0.35048-6.6582 0.93858-12.593 1.3069-13.189 1.0241-1.657 14.306-7.3501 15.805-6.7747 0.72668 0.27885 1.3212 1.8146 1.3212 3.4127s0.7127 4.8747 1.5838 7.2814c2.1949 6.0641 2.3554 26.365 0.22531 28.495-2.0102 2.0102-11.265 2.6201-16.809 1.1079zm24.516-0.89347c-2.6651-2.0964-2.7382-2.4102-2.2721-9.75 0.39936-6.2888 1.1882-9.0265 4.6189-16.031 2.2755-4.6459 4.1373-9.0079 4.1373-9.6933 0-1.21 3.7243-4.3596 5.1551-4.3596 0.39056 0 0.97396 0.83133 1.2964 1.8474 0.33496 1.0554 2.2931 2.3588 4.5674 3.0401 3.8816 1.163 3.981 1.3062 3.981 5.7322 0 6.4512-2.0816 23.568-3.105 25.533-0.77474 1.487-11.553 5.8476-14.454 5.8476-0.64404 0-2.4102-0.97474-3.9247-2.1661z"/>
</svg>
