<?xml version="1.0" encoding="UTF-8"?>
<svg version="1.1" viewBox="0 0 419.48 532" xml:space="preserve" xmlns="http://www.w3.org/2000/svg"><path d="m271.63 528.97c-3.6246-6.5426-2.6249-6.1974-20.573-7.103-16.134-0.81407-56.317-0.36724-83.017 0.92315-12.524 0.60525-13.078 0.72184-13.078 2.752 0 1.166-0.53298 2.653-1.1844 3.3044-3.1995 3.1995-6.3649 1.4083-40.007-22.638-18.331-13.102-35.214-25.344-37.518-27.204-6.8649-5.5427-8.6231-9.7397-14.624-34.908-5.6848-23.844-60.572-270.29-60.933-273.59-0.15603-1.427 2.2791-3.1328 10.655-7.4639l10.857-5.6141 0.63248-9.3766c1.4505-21.504 10.76-48.735 22.649-66.254 5.5649-8.1997 18.963-23.854 23.812-27.822 10.593-8.6684 50.238-29.782 72.586-38.656 24.031-9.5431 40.403-12.843 69.333-13.975 17.13-0.6701 23.131 0.091993 48.857 6.2048 15.264 3.6268 16.89 4.2889 38.429 15.645 18.831 9.9289 50.573 34.87 64.888 50.986 12.412 13.974 26.412 36.072 30.346 47.902 1.6374 4.9227 3.9758 22.391 4.0168 30.006 6e-3 1.0522 3.344 2.9778 10.125 5.8406 5.5643 2.349 10.275 4.3913 10.468 4.5385 0.44526 0.33987 0.15736 2.0475-24.527 145.48-11.351 65.957-21.93 127.5-23.51 136.77-3.5766 20.976-5.9404 26.694-14.362 34.742-7.6865 7.3453-14.67 12.067-36.159 24.451-23.198 13.368-38.451 22.814-41.509 25.706-3.3165 3.1371-4.6272 3.0091-6.6542-0.64979zm-120.72-20.16c2.5089-20.339 9.0974-195.26 7.4144-196.85-0.49462-0.46664-4.2974-1.7684-8.4505-2.8927-8.9934-2.4347-31.186-12.058-44.267-19.196-12.77-6.9678-24.826-18.752-30.005-29.329-3.3017-6.7426-3.7731-8.7609-5.071-21.714-0.78704-7.8544-2.4862-21.831-3.7759-31.06-1.5086-10.795-2.0264-17.395-1.4519-18.506 1.0952-2.1184 3.07-2.1495 13.161-0.20693 4.3429 0.836 29.21 5.2938 55.26 9.9063 26.05 4.6125 47.658 8.7031 48.019 9.0902 0.79623 0.85558-7.1592 56.187-9.9688 69.335-3.047 14.259-3.3594 13.304 7.6125 23.271 5.2929 4.8081 14.824 13.567 21.18 19.464 6.3561 5.8972 11.999 10.568 12.54 10.38 0.54071-0.18844 7.7766-6.3525 16.08-13.698 8.3032-7.3454 17.472-15.335 20.375-17.756 8.6746-7.2312 8.6755-7.2359 5.1668-26.958-1.658-9.3193-4.3511-25.827-5.9848-36.684-1.6337-10.857-3.1785-20.937-3.433-22.399-0.33446-1.9222 6e-3 -2.7975 1.2289-3.1584 0.93036-0.27464 25.898-5.4382 55.484-11.475 29.586-6.0364 54.792-11.215 56.013-11.507 3.0125-0.72125 3.0171-0.79921-2.2193 37.038-4.6226 33.401-5.4868 37.887-8.4006 43.598-3.7628 7.3758-18.254 18.762-34.269 26.925-10.344 5.2729-34.042 14.622-40.476 15.968-1.7581 0.36787-3.4143 1.0213-3.6806 1.4521-0.50567 0.81817 7.3542 205.58 7.9147 206.19 0.63779 0.69639 70.107-41.531 73.176-44.48 3.3756-3.2443 9.3104-14.55 11.03-21.013 0.95107-3.5738 16.701-93.877 40.555-232.52 4.9106-28.541 8.9284-52.791 8.9284-53.889 0-2.3628-3.5911-4.1315-15.792-7.7777-10.125-3.026-11.007-3.2201-109.7-24.15l-78.609-16.671-8.7412 2.3392c-4.8076 1.2866-39.388 10.164-76.845 19.728-37.457 9.5638-70.533 18.041-73.501 18.838-2.9683 0.79738-7.5168 1.4498-10.108 1.4498-5.1799 0-21.366 5.5812-24.555 8.4667-2.5123 2.2736-2.4029 5.9619 0.54682 18.446 1.3396 5.6696 8.8617 40.02 16.716 76.334 34.009 157.25 41.783 191.54 44.887 197.99 4.8771 10.145 10.186 15.151 31.41 29.612 10.746 7.3222 24.646 16.887 30.889 21.256 7.2836 5.097 11.579 7.538 11.987 6.8126 0.34987-0.6218 1.1292-5.1279 1.7319-10.014zm89.445-79.516c2.4314-7.2493 4.4208-13.99 4.4208-14.98 0-0.98964 0.70435-2.0696 1.5652-2.4 1.6639-0.6385 11.203 1.2134 14.88 2.8888l2.1987 1.0018-3.3997 6.751c-3.6161 7.1806-4.1584 10.411-2.166 12.899 1.3043 1.6289 9.4086 4.012 9.9567 2.9278 0.17702-0.35022-0.24065-12.851-0.92815-27.78-0.68751-14.929-1.2791-30.122-1.3146-33.764l-0.0646-6.6207-8.9857-5.266-2.2331 2.0979c-2.8852 2.7105-4.4904 2.6437-8.8772-0.36965-1.9758-1.3572-5.2088-3.5779-7.1846-4.9351-4.107-2.8211-8.3906-3.1336-13.528-0.98701-5.0266 2.1002-7.9575 1.8447-11.323-0.98702-3.5317-2.9718-4.5641-3.0442-7.7431-0.54356-1.3453 1.0582-4.5244 2.2253-7.0648 2.5937-6.6058 0.95783-7.9464 1.9244-10.613 7.6517-2.7801 5.9711-2.928 9.2274-0.90006 19.825 0.82225 4.297 1.2451 8.6001 0.93968 9.5624-0.98061 3.0896-6.6304 4.2109-12.519 2.4846-4.7206-1.3838-5.3093-1.3735-6.9622 0.1224-1.4819 1.3411-2.3276 1.437-4.7172 0.53503l-2.9116-1.099v8.5264l4.9642 0.68276c3.2284 0.44401 5.4387 0.28897 6.3212-0.44339 0.74631-0.61938 2.4596-0.84938 3.8074-0.51111 2.3382 0.58684 2.4799 1.0526 3.091 10.159 1.1673 17.393 1.6245 20.039 3.4036 19.7 1.3264-0.25281 1.7069-2.2027 2.1766-11.153 0.66945-12.756 2.5066-18.249 6.1034-18.249 1.2825 0 3.3451 0.94408 4.5837 2.098 2.1082 1.9641 2.208 2.5937 1.5639 9.8701-0.42952 4.8522-0.3271 7.7722 0.27261 7.7722 1.2526 0 2.1776-5.7836 2.2102-13.818 0.0143-3.5286 0.4239-7.0442 0.91025-7.8126 1.7089-2.6997 8.0336-1.4133 14.106 2.869l5.6452 3.9812 1.5594-2.38c0.85769-1.309 2.8628-2.9199 4.4559-3.5798 2.94-1.2178 9.3152-0.64501 10.285 0.92405 0.86991 1.4076-1.3399 20.982-2.5307 22.417-1.4 1.687-6.8904 1.7567-8.972 0.11395-0.85986-0.67858-2.224-2.5418-3.0314-4.1406l-1.468-2.9068-4.2088 8.2499 9.6354 4.8492c5.2995 2.667 9.7558 4.7375 9.903 4.601 0.14714-0.13653 2.2569-6.1795 4.6883-13.429zm11.192-26.4-4.3597-4.8491 1.0286-12.721c0.56571-6.9966 1.4128-13.327 1.8824-14.067 1.1208-1.766 11.283-1.0257 12.479 0.90909 1.301 2.105 2.192 12.786 1.7953 21.522-0.27661 6.0911-0.832 8.5344-2.4274 10.679-3.2323 4.345-5.4493 4.0308-10.398-1.4733zm-55.629-0.90157c-3.8553-0.94765-3.9807-1.6098-3.1672-16.724 0.43337-8.0517 0.98622-15.221 1.2286-15.931 0.50634-1.4844 12.374-7.0995 14.995-7.0947 3.0801 6e-3 6.9974 22.009 5.7276 32.171-0.91219 7.3009-2.183 8.3181-10.218 8.1785-3.6255-0.063-7.4802-0.33284-8.5659-0.59971zm24.271-0.9133c-2.2021-1.5424-2.297-2.0546-1.8139-9.798 0.42297-6.7796 1.0331-9.0853 3.5845-13.545 1.6911-2.9558 3.0748-6.1194 3.0748-7.0303 0-2.7953 2.8254-7.3041 5.012-7.9981 1.4798-0.46968 2.4869-0.0663 3.5213 1.4106 0.79681 1.1376 2.4796 2.0684 3.7395 2.0684 4.547 0 4.9994 1.9411 3.6424 15.626-0.68192 6.877-1.7658 13.58-2.4087 14.896-0.75523 1.5457-2.9151 3.003-6.1039 4.1183-6.3277 2.2132-9.3586 2.2754-12.248 0.25158zm-48.993 39.963c1.3827-0.63 2.514-1.573 2.514-2.0954 0-0.80295-7.6716-12.309-9.9026-14.852-0.39569-0.45105-1.6114 1.8212-2.7016 5.0495l-1.9822 5.8696 4.5789 3.5654c2.5184 1.961 4.669 3.575 4.7792 3.5869 0.11017 0.0118 1.3316-0.49396 2.7143-1.124zm1.3866-69.784c0.51099-2.2743 0.71203-4.9651 0.44675-5.9795-0.42307-1.6178-0.92631-1.723-4.0957-0.85563-1.9873 0.54385-3.9412 1.1863-4.342 1.4278-0.40077 0.24143 0.64623 3.1626 2.3267 6.4916 3.3376 6.6119 3.9619 6.4924 5.6643-1.0842zm-60.377-111.57c10.07-3.9355 39.104-22.854 43.053-28.052 3.0828-4.0588 9.0773-16.299 8.3422-17.034-0.25927-0.25927-8.8614-2.4856-19.116-4.9475-39.69-9.5285-49.678-11.509-64.294-12.751-8.0403-0.68293-8.1429-0.66304-8.1429 1.5795 0 5.2091 6.0691 52.93 7.0446 55.392 1.0857 2.7397 5.5564 5.9044 11.709 8.288 5.0259 1.9473 12.216 1.1158 21.404-2.4753zm215.69-1.1463c10.318-6.13 18.588-17.51 20.401-28.072 1.5096-8.7978 4.2621-34.182 3.7609-34.683-0.48798-0.48798-81.852 16.215-85.321 17.516-1.9365 0.7258-2.2208 1.534-2.2208 6.3135 0 10.051 8.1428 22.731 16.406 25.547 2.4761 0.8437 6.7933 2.9536 9.5937 4.6887 5.3791 3.3328 26.799 12.62 29.216 12.668 0.78271 0.0155 4.4571-1.7743 8.1653-3.9773zm-115.83-155.36c32.824-1.5285 36.718-2.1474 24.323-3.8667-6.9379-0.96235-7.0023-1.2151-7.7309-30.356-0.63995-25.592-0.61668-26.044 1.5666-30.428 1.778-3.5703 2.8604-4.5762 5.4741-5.0875 3.3-0.64544 4.8236-1.5032 4.048-2.2788-0.79421-0.79421-61.583 0.94131-62.931 1.7967-2.2081 1.4012 0.65127 2.5448 6.4058 2.562 4.3647 0.01302 5.1718 0.3228 5.8251 2.2359 0.41713 1.2214 0.94967 14.544 1.1834 29.605l0.425 27.384-2.9218 2.9219c-1.6684 1.6684-4.879 3.4147-7.4839 4.0706-2.5091 0.6318-4.562 1.5402-4.562 2.0186 0 1.1019 0.46078 1.0946 36.378-0.57791zm-7.2311-2.8497c-1.1621-0.84971-2.1031-3.276-2.5841-6.6623-1.1636-8.1919-1.0409-49.196 0.16008-53.522 1.789-6.4425 9.7681-8.249 12.631-2.8596 0.49798 0.93756 1.2318 14.451 1.6308 30.03l0.72536 28.325-3.0127 3.0127c-3.2378 3.2378-6.6061 3.829-9.55 1.6763z"/></svg>
