<?xml version="1.0" encoding="UTF-8"?>
<svg version="1.1" viewBox="0 0 419.48 532" xml:space="preserve" xmlns="http://www.w3.org/2000/svg"><path d="m262.69 530.98c-13.511-1.2839-32.373-1.4299-70.264-0.54396l-34.128 0.79797-7.0264-2.6751c-9.791-3.7276-17.406-8.0774-31.657-18.083-12.534-8.8002-27.83-18.256-40.859-25.257l-7.2706-3.9071-0.0067-6.3234c-0.0041-3.9069 0.62174-7.5387 1.6378-9.5036 1.3425-2.5962 1.5401-5.1214 1.0758-13.752-0.73389-13.642-2.7403-23.175-8.7346-41.497-4.2968-13.134-5.3819-15.419-9.3187-19.628-3.4782-3.7184-4.612-5.8058-5.1682-9.5151-0.3919-2.6134-1.6495-7.3316-2.7947-10.485-2.1683-5.9706-2.6789-17.388-1.0742-24.019l0.78141-3.2286 5.5045 2.7546c3.9064 1.9549 6.1725 3.9122 7.8054 6.7418 1.2656 2.193 2.6685 4.5922 3.1176 5.3315 0.64736 1.0656 1.8691 0.75665 5.8937-1.4904 4.857-2.7118 5.2878-2.7783 9.9386-1.5344 5.6894 1.5217 13.116 5.9608 13.698 8.1882 0.22359 0.85501 0.05651 2.4508-0.37129 3.5461-1.2699 3.2515-1.0206 11.992 0.46126 16.169 0.7591 2.1397 5.0502 11.629 9.5358 21.087 4.4856 9.4579 8.1557 18.455 8.1557 19.994 0 1.539-1.3426 5.1772-2.9837 8.0849l-2.9837 5.2868 10.74 5.1305c9.4166 4.4982 11.021 4.9801 13.021 3.9097 2.7189-1.4551 2.7334-1.6309 0.65876-7.9739-2.2172-6.7786-1.5684-17.652 1.1758-19.705 2.3859-1.7853 8.479-1.1912 12.097 1.1795 1.5151 0.99272 4.0094 4.9245 6.1811 9.7434 2.735 6.0688 3.8038 7.6149 4.2954 6.2135 0.35993-1.0261 0.0456-3.3228-0.69858-5.1038-1.6261-3.8918-1.672-5.627-0.28115-10.636 1.3865-4.993 3.6402-5.7327 12.388-4.0659 4.6439 0.88485 7.375 1.0029 8.0308 0.34713 1.3929-1.3929 5.167-1.2386 6.3811 0.261 0.55873 0.6901 1.3439 7.274 1.7448 14.631 0.55366 10.16 1.0733 13.508 2.1616 13.926 2.3228 0.89134 2.829-0.47568 2.6075-7.0417-0.23136-6.8581 2.2735-19.484 4.2931-21.64 1.0934-1.1673 1.8872-1.0899 5.1465 0.50189l3.8538 1.8821-0.36727 8.9142c-0.26301 6.3837-0.0493 8.7176 0.75283 8.2219 0.6697-0.4139 1.1201-3.847 1.1201-8.5377 0-10.929 0.75231-14.018 3.588-14.729 3.2622-0.81875 8.5484 1.1377 13.698 5.0695l4.3861 3.349 1.6297-2.8395c1.7665-3.0779 5.8216-4.37 11.898-3.7912l3.4458 0.32823-0.34695 6.8649c-0.6686 13.229-1.3973 16.069-4.5062 17.559-3.9953 1.9149-7.4491 0.69859-9.9232-3.4946l-2.1232-3.5986-1.9114 3.7258c-1.0513 2.0492-1.7659 3.8568-1.5879 4.017 0.9513 0.85645 19.152 9.633 19.42 9.3647 0.79281-0.79281 9.5108-27.359 9.5108-28.982 0-1.0035 0.44664-2.1006 0.99254-2.438 1.3235-0.81799 17.075 3.4703 17.075 4.6486 0 0.50734-1.3802 3.6565-3.067 6.9982-2.1233 4.2063-2.9727 7.1953-2.7604 9.7143 0.28544 3.3867 0.63871 3.7412 5.1042 5.1226 6.9036 2.1355 7.5827 1.1416 8.4053-12.302 0.78626-12.85 2.1485-15.595 6.947-13.997 3.2907 1.096 4.0848 3.3288 4.3943 12.356 0.10412 3.0364 0.54243 6.4242 0.97401 7.5283 0.78012 1.9958 0.78851 1.9956 1.4364-0.0418 0.35841-1.1271 1.0628-5.3238 1.5654-9.326 0.50253-4.0021 1.4607-7.9357 2.1292-8.7412 1.6921-2.0389 17.278-2.079 18.963-0.0487 0.64628 0.77871 2.2981 5.6124 3.6708 10.742 1.3726 5.1292 2.5931 9.3972 2.712 9.4845 0.11896 0.0873 1.4434 0.45295 2.9433 0.81257l2.727 0.65386 5.6408-17.534c5.311-16.509 5.5477-17.667 4.0484-19.808-0.87581-1.2504-1.5924-3.7001-1.5924-5.4437 0-4.5755 6.9613-36.508 8.6857-39.842 2.0399-3.9447 3.6294-4.2461 9.6448-1.8286 2.892 1.1622 6.661 2.3852 8.3757 2.7178 2.854 0.55361 3.1692 0.34641 3.7288-2.4518 0.41711-2.0856 2.2455-4.3483 5.7557-7.1229 5.7657-4.5575 6.6821-4.7272 13.317-2.4664 4.2785 1.4578 4.6958 1.8851 4.6958 4.8078 0 6.9414-10.871 37.422-17.102 47.951-5.8652 9.9107-6.6559 14.385-8.0875 45.761-1.0781 23.63-1.0635 29.055 0.0914 33.869 0.963 4.0142 1.0664 6.2216 0.34501 7.3653-1.4786 2.3441-39.109 25.289-49.932 30.446-5.0215 2.3926-12.969 6.3246-17.662 8.7377-9.6669 4.9711-14.191 5.6034-29.611 4.1381zm-86.826-84.864c0-1.1489-9.61-14.1-10.54-14.204-1.0505-0.11742-4.8044 8.4418-4.3036 9.8124 0.15867 0.43422 2.3211 2.3519 4.8055 4.2615 4.256 3.2714 4.6765 3.3903 7.2774 2.0578 1.5182-0.77784 2.7604-1.6453 2.7604-1.9276zm78.859-36.612c-4.6529-4.9743-4.7957-5.3069-4.2219-9.833 0.32662-2.5765 0.85939-7.8464 1.1839-11.711 1.0065-11.985 0.74127-11.543 6.9382-11.543 8.2763 0 8.5849 0.60715 8.5831 16.885-1e-3 11.061-0.34278 14.413-1.7566 17.243-2.6216 5.248-5.066 5.0107-10.727-1.041zm38.729 1.9859c-1.7238-0.6986-2.1692-1.4315-1.6457-2.708 1.2067-2.9425 1.6385-9.7042 0.70723-11.074-0.61059-0.89792-2.1343-1.0928-4.9833-0.63719-3.9172 0.62638-4.2036 0.92334-6.3012 6.5323-2.6985 7.2158-3.866 8.3221-7.3745 6.9881-2.6002-0.98858-2.6334-1.1295-2.7876-11.816-0.20503-14.205-0.0479-15.463 2.2362-17.908 1.9346-2.0707 1.929-2.0773-4.2549-5.0189-3.4056-1.62-6.749-3.4975-7.4297-4.1722-0.97602-0.96739-1.7696-0.80826-3.7542 0.75283-3.7676 2.9636-6.0805 2.4701-14.245-3.0394-4.0907-2.7604-8.0479-5.0189-8.7937-5.0189s-4.119 0.93307-7.496 2.0735c-5.6832 1.9192-6.3649 1.9571-9.1652 0.50902-1.6639-0.86045-3.3065-2.0194-3.6501-2.5754-0.98615-1.5956-4.1853-1.1863-7.7594 0.99288-1.8076 1.1021-4.6416 2.0072-6.2978 2.0113-10.339 0.0258-14.649 11.549-11.162 29.837 1.0587 5.5515 1.109 7.6263 0.21455 8.8496-1.5874 2.1709-8.5844 2.9693-13.064 1.4908-3.049-1.0063-4.061-0.95346-5.9935 0.3128-2.1077 1.381-2.6074 1.3518-5.3435-0.31211-5.8402-3.5516-7.5987-7.399-8.7597-19.165l-1.0614-10.757-7.3044 2.918 2.834 7.3599c5.4335 14.111 4.8339 17.77-2.5767 15.724-3.0553-0.84361-4.4033-0.65763-8.04 1.1092-5.5541 2.6984-6.5542 1.9757-11.427-8.258l-3.5849-7.5283-7e-3 -15.057c-8e-3 -17.71-1.4815-23.598-7.1506-28.576-3.4038-2.9886-26.946-19.103-27.908-19.103-0.26436 0-2.3516 3.5963-4.6384 7.9917-2.3116 4.4431-4.9963 8.2578-6.0462 8.5911-2.4778 0.78644-8.8913-2.1164-17.108-7.7432-3.6482-2.4984-9.7458-5.5019-13.551-6.6749-9.0491-2.7895-17.038-7.4799-19.576-11.494-1.8233-2.8834-1.97-4.2626-1.4101-13.256l0.62498-10.038 6.54-10.476c6.0187-9.6408 6.4368-10.669 5.245-12.895-1.4613-2.7305-5.1637-5.9493-9.6492-8.3889-2.7619-1.5022-3.2523-2.6047-5.5812-12.547-1.4042-5.9952-4.1398-18.805-6.079-28.466-8.0964-40.337-8.3678-47.628-2.1847-58.685 2.9378-5.2533 4.1574-9.0872 5.6989-17.915 4.0406-23.138 9.8064-40.096 18.791-55.263 4.8553-8.1966 15.485-22.07 22.634-29.54 13.226-13.821 57.483-36.498 97.342-49.878 18.761-6.2978 61.216-10.324 78.931-7.4848 14.987 2.4015 37.902 8.3189 44.166 11.405 10.876 5.3582 30.405 16.003 34.133 18.606 12.143 8.4778 34.385 27.184 44.665 37.566 16.798 16.964 32.054 40.053 36.559 55.328 2.9854 10.122 4.925 35.278 6.114 79.298 0.56668 20.979 1.5215 42.26 2.1218 47.292 1.2436 10.424 1.75 8.8575-7.8043 24.135-7.5614 12.091-7.6189 12.605-3.3162 29.648 1.9824 7.8524 2.8298 13.176 2.4049 15.111-1.02 4.6442-7.0012 10.628-11.329 11.333-2.0202 0.32928-10.334 3.8174-18.476 7.7515-18.968 9.1655-19.191 9.1098-26.039-6.4967-0.49802-1.1349-19.678 8.6699-22.788 11.649-2.6544 2.5431-4.2403 5.5129-9.0344 16.918-1.468 3.4924-2.5562 4.7679-4.0681 4.7679-2.4814 0-2.4607-0.39285-0.37433 7.1114 1.4682 5.2809 1.5266 7.0475 0.44584 13.48-1.1786 7.0142-1.1356 7.5106 0.81978 9.466 1.141 1.141 2.0636 3.3754 2.0636 4.9979 0 3.1592-3.9737 8.6856-6.8196 9.4843-4.4523 1.2495-7.939 1.4468-10.099 0.57161zm-120.11-31.683c1.5832-3.7892 2.0714-10.421 0.7663-10.411-1.4415 0.0107-8.2811 2.0993-8.2811 2.5288 0 0.64991 5.3938 11.518 5.7164 11.518 0.15362 0 0.96292-1.6361 1.7984-3.6358zm75.308-67.063c9.7293-14.4 9.743-22.291 0.0808-46.598-5.3786-13.531-8.0959-22.595-10.617-35.414-0.61851-3.1455-1.972-6.4361-3.0478-7.4096-1.7999-1.6289-2.11-1.6368-4.4351-0.11339-1.3749 0.90087-2.9833 2.5414-3.5742 3.6455s-1.4986 2.0076-2.017 2.0076-4.6808-2.2216-9.2496-4.9368c-4.5688-2.7153-8.5887-4.635-8.933-4.266s-2.2648 6.928-4.2677 14.576c-2.0029 7.6476-4.8158 16.682-6.2508 20.075-1.435 3.3939-3.7081 8.7614-5.0512 11.928-5.9866 14.113-5.287 51.987 1.0384 56.211 2.3254 1.5527 4.0798 0.54074 11.508-6.6382 7.3005-7.0552 12.514-10.661 15.413-10.661 0.72842 0 5.585 4.2784 10.793 9.5077 11.023 11.069 9.7515 11.199 18.61-1.9118zm-118.45-46.188c5.7429-1.3546 13.465-4.3636 16.417-6.3966 1.0753-0.74066-0.32479-3.3772-6.5245-12.287-4.3415-6.239-8.1691-11.751-8.5058-12.249-0.34683-0.51289-3.5907-0.10811-7.4842 0.93392l-6.872 1.8392-2.7571 13.551c-1.5164 7.453-2.7784 14.116-2.8045 14.806-0.0658 1.74 10.808 1.624 18.531-0.19762zm182.16 0.69951c-0.0459-2.0627-3.8538-27.535-4.1533-27.783-0.1908-0.15787-3.131-1.2122-6.5338-2.343l-6.1868-2.056-8.8698 10.016c-4.8784 5.509-9.0032 10.384-9.1663 10.832-0.39233 1.0794 8.1572 6.2808 13.847 8.4246 7.6971 2.9 21.103 4.751 21.063 2.9082zm17.181-3.2455c4.6202-1.718 14.887-8.0458 16.778-10.341 0.7329-0.8895-1.9768-3.7653-10.024-10.638l-11.028-9.4193-4.9394 2.3135c-2.7167 1.2724-4.9394 2.6909-4.9394 3.1523 0 0.95786 2.7006 19.741 3.5474 24.673 0.6296 3.6668 1.3942 3.6856 10.606 0.26034zm-221.84-12.313 2.5449-14.304-5.0834-3.2396c-2.7959-1.7818-5.6636-3.2498-6.3727-3.2623-1.513-0.0266-22.207 14.179-22.262 15.282-0.07034 1.4109 7.3713 8.9525 11.926 12.086 3.8037 2.617 14.317 7.634 16.171 7.7172 0.29202 0.0131 1.6762-6.4129 3.0758-14.28zm51.698-2.4426c4.0393-4.9294 10.434-16.894 10.439-19.532 4e-3 -1.9463-0.87674-2.1867-16.452-4.4927l-11.938-1.7675-2.3606 2.9502c-1.2983 1.6226-2.3628 3.325-2.3656 3.7831-0.0115 1.914 16.652 24.466 17.764 24.042 0.66369-0.25318 2.8746-2.4958 4.9131-4.9835zm121.72-8.4123 9.0894-10.102-6.3369-12.851-11.094 0.53107c-16.278 0.77924-15.915 0.64142-15.071 5.7124 1.1767 7.0713 4.3754 14.405 9.0562 20.763 2.4487 3.3264 4.6356 6.048 4.8596 6.048 0.22407 0 4.4976-4.546 9.4968-10.102zm74.081 1.821c3.7175-5.8724 7.3157-16.45 7.3411-21.581l0.0212-4.266h-27.127l-2.5207 5.6998c-1.3864 3.1349-2.397 6.0012-2.2458 6.3695 0.41806 1.0184 20.244 17.93 21.091 17.991 0.40714 0.0292 1.9555-1.8666 3.4408-4.2129zm-263.37-16.311 2.7171-2.0075-1.3641-7.8065c-0.75026-4.2936-1.6012-8.0436-1.891-8.3334s-5.765-1.3367-12.167-2.3266c-13.034-2.0153-11.934-2.4716-13.162 5.4585-0.86353 5.5775 1.0921 16.941 4.021 23.364l2.4338 5.3374 8.3475-5.8393c4.5911-3.2116 9.5702-6.7427 11.065-7.8468zm226.26 6.4288c1.2133-0.45017 4.04-2.4754 6.2816-4.5005 10.813-9.7688 8.0259-27.916-5.2355-34.09-6.9322-3.2274-12.091-3.1476-18.88 0.29202-9.1146 4.6175-13.198 13.279-10.965 23.258 2.8563 12.763 16.182 19.722 28.799 15.041zm-192.64-0.45944c4.7682-1.9918 8.8945-5.919 11.458-10.906 3.0148-5.8637 2.2333-15.158-1.7501-20.813-11.145-15.823-36.803-9.4434-38.378 9.5414-0.55568 6.7007 1.027 11.76 5.146 16.452 5.9 6.7198 15.531 9.0641 23.523 5.7257zm45.774-21.026c-0.12655-9.8081-2.649-18.463-6.7495-23.158l-2.1679-2.4825-8.0302 5.1364c-4.4166 2.825-9.1878 6.2262-10.603 7.5583-2.5292 2.3813-2.5544 2.5471-1.5057 9.8689 0.58668 4.0958 1.3596 7.7354 1.7176 8.0879 0.81526 0.80287 22.724 4.407 25.447 4.1862 1.8563-0.15049 1.9988-0.84346 1.891-9.1967zm110.69-0.0527c1.6201-0.32963 2.6862-1.9842 4.2367-6.5756l2.0718-6.1351-17.394-18.841-2.222 2.0875c-4.9445 4.6451-11.443 20.603-11.443 28.101v2.6797l11.292-0.43824c6.2108-0.24103 12.267-0.63645 13.457-0.87871zm80.319-5.8296c-0.95899-6.9966-4.4656-15.171-9.3606-21.82l-4.5434-6.1718-18.508 19.718 5.1354 12.619 27.877 0.0306zm-264.51-8.4473 2.6701-3.7384-5.5164-10.791c-3.034-5.9348-5.9565-10.791-6.4944-10.791-0.53789 0-3.3224 2.2214-6.1877 4.9365-5.392 5.1092-11.142 13.684-12.254 18.274-0.63632 2.6266-0.61346 2.6375 8.7239 4.1344 15.033 2.41 15.961 2.3114 19.058-2.0257zm50.482-10.432 10.994-7.1523-4.9715-4.3816c-2.7343-2.4099-7.6817-5.6992-10.994-7.3096-10.557-5.1326-9.6921-5.6136-12.99 7.2217-1.5951 6.2088-3.0713 11.779-3.2805 12.378-0.43845 1.2565 6.4956 6.2988 8.7418 6.3569 0.82811 0.0214 6.453-3.1796 12.5-7.1133zm154.38 2.5409 2.7604-1.42v-12.462c0-6.8542-0.35376-12.681-0.78613-12.948-2.7402-1.6935-22.895 6.0702-26.714 10.291-2.164 2.3912-2.2008 2.3307 8.4333 13.863l6.4854 7.0332 3.5303-1.4682c1.9417-0.80748 4.7724-2.1072 6.2907-2.8882zm31.389-6.4454 9.013-9.0921-2.4999-2.0548c-6.1301-5.0388-23.592-11.054-27.611-9.5122-1.2255 0.47026-1.5082 2.8312-1.5082 12.596 0 8.5086 0.36619 12.255 1.2541 12.83 2.0578 1.3325 9.1702 4.1093 10.812 4.2212 0.83962 0.0573 5.5824-3.9874 10.54-8.988zm-215.83 4.0864c1.5526-0.5696 2.7126-3.3273 5.1186-12.169 1.7111-6.288 2.8901-11.831 2.62-12.317-0.8564-1.5418-17.462 0.0308-23.689 2.2433-3.2519 1.1555-6.1793 2.3677-6.5053 2.6938-0.32604 0.32605 1.8218 5.3419 4.7729 11.146l5.3657 10.554 5.1547-0.70729c2.8351-0.389 6.0581-1.0387 7.1623-1.4438zm110.67-69.939c14.492-0.3635 26.349-0.9638 26.349-1.334 0-0.37019-1.0528-1.2365-2.3395-1.9251-5.2459-2.8075-5.5341-4.5221-5.8221-34.641l-0.26725-27.946 2.7647-2.3781c1.5206-1.308 3.8421-2.3781 5.159-2.3781s2.6734-0.4517 3.0146-1.0038c0.68894-1.1147-64.532-1.2297-75.785-0.13362l-6.5245 0.6355 4.0072 2.0075c2.2039 1.1042 4.5106 3.037 5.126 4.2952 1.7487 3.5757 2.9306 57.106 1.3041 59.066-0.69923 0.84253-3.3337 2.6064-5.8543 3.9198l-4.583 2.388 13.551 0.0447c7.453 0.0246 25.408-0.25274 39.9-0.61625zm-26.098-2.4267c-4.4058-2.5662-4.7679-5.2949-4.7679-35.934 0-32.233 2e-3 -32.242 6.4407-32.242 6.2501 0 6.3193 0.32907 7.1232 33.872 0.65277 27.24 0.55821 30.617-0.92054 32.874-1.732 2.6434-4.828 3.206-7.8754 1.431zm22.608-2.6348c-1.535-2.3419-1.905-6.6115-2.691-31.051-0.82972-25.802-0.76032-28.567 0.77597-30.911 1.3281-2.027 2.5106-2.575 5.5562-2.575 2.2433 0 4.403 0.64341 5.1398 1.5312 0.963 1.1603 1.2288 7.7853 1.0974 27.353-0.18041 26.865-0.70148 34.995-2.3788 37.114-1.7366 2.1941-5.5969 1.4423-7.4996-1.4605zm-25.133 296.8c-2.3548-0.48462-4.6882-1.1326-5.1854-1.4398-0.87552-0.5411-0.4399-25.748 0.52644-30.462 0.34853-1.7002 2.387-3.2302 7.6904-5.7717 3.9689-1.902 7.7849-3.4582 8.48-3.4582s1.5057 1.2422 1.8012 2.7604 1.0367 4.5672 1.6471 6.7755c1.2842 4.6462 2.3284 24.633 1.4664 28.067-0.32117 1.2796-1.2076 2.566-1.9699 2.8585-3.0293 1.1625-10.403 1.5043-14.456 0.67013zm22.757-0.85506c-2.1003-1.7007-2.2998-2.5952-2.07-9.2849 0.21736-6.3293 0.90222-8.8166 4.7225-17.151 2.4575-5.3615 4.4682-10.201 4.4682-10.755 0-1.0513 3.188-3.0852 4.8358-3.0852 0.52398 0 1.1764 0.85547 1.4498 1.901 0.29108 1.1131 1.767 2.1799 3.5609 2.574 4.7172 1.0361 5.502 2.6541 4.7547 9.803-1.4377 13.754-2.8322 21.841-3.9216 22.742-1.6123 1.3331-11.853 5.1374-13.831 5.138-0.90497 2.7e-4 -2.6913-0.84642-3.9696-1.8816z"/></svg>
