<?xml version="1.0" encoding="UTF-8"?>
<svg version="1.1" viewBox="0 0 446 584" xml:space="preserve" xmlns="http://www.w3.org/2000/svg"><g transform="translate(0,52)"><path d="m168.5 528.7c-10.341-3.4988-16.465-6.8762-32-17.649-15.558-10.789-27.629-18.319-40.75-25.421l-8.75-4.7361v-5.9274c0-3.2601 0.74045-7.778 1.6454-10.04 1.309-3.2715 1.5225-6.0872 1.0442-13.77-0.83809-13.463-2.9006-23.346-8.3677-40.094-4.006-12.272-5.3515-15.156-8.9748-19.236-2.5561-2.878-4.6878-6.5062-5.3252-9.0635-0.58459-2.3454-2.2214-8.483-3.6373-13.639-2.5278-9.205-2.6259-11.938-0.76735-21.375 1.1344-5.7604 9.7012-1.8216 14.901 6.8509l3.0179 5.0338 4.9821-2.3045c5.991-2.7712 10.619-2.9063 15.982-0.46676 6.4472 2.9328 7 4.1603 7 15.545v10.091l9.1764 19.23c5.047 10.577 9.4703 20.157 9.8296 21.288 0.44415 1.3994-0.33236 3.5939-2.4264 6.8571-1.6938 2.6395-3.0796 5.486-3.0796 6.3256 0 1.633 17.796 10.798 20.967 10.798 3.2834 0 4.2758-2.3879 2.9812-7.1737-0.64366-2.3795-1.1937-7.6154-1.2224-11.635-0.0438-6.1491 0.28341-7.6444 2.062-9.423 1.922-1.922 2.4807-2.0042 6.1493-0.90508 5.881 1.762 8.7469 4.734 12.482 12.944 2.2316 4.9057 3.524 6.7854 3.9328 5.7203 0.33484-0.87258-0.11319-3.391-0.99563-5.5964-1.7963-4.4894-1.3605-9.7481 1.1218-13.536 1.8231-2.7824 4.3678-2.9878 12.705-1.0256 4.9598 1.1673 5.8766 1.1435 7.2075-0.1874 1.1624-1.1624 2.0697-1.2828 3.8173-0.50664 2.1628 0.96059 2.3491 1.8328 3.2925 15.412 0.86458 12.444 1.237 14.439 2.75 14.727 1.5239 0.29019 1.75-0.52149 1.75-6.2822 0-7.7279 2.5904-21.46 4.3996-23.322 1.624-1.672 5.8099-0.17559 7.9147 2.8294 1.166 1.6646 1.3869 3.8733 0.95657 9.5631-0.39432 5.2138-0.22163 7.3986 0.58479 7.3986 0.77937 0 1.1443-3.0509 1.1443-9.5657 0-5.2612 0.46583-10.436 1.0352-11.5 2.0739-3.8751 11.061-1.888 17.132 3.788l2.6675 2.4939 3.0022-3.3581c2.7401-3.0648 3.4868-3.3535 8.5514-3.3058 3.052 0.0288 5.7165 0.25377 5.921 0.5 0.20451 0.24623-0.0219 5.1542-0.50311 10.907-0.99112 11.848-2.1567 14.041-7.4617 14.041-3.5337 0-7.345-2.8539-7.345-5.5 0-2.5877-1.5624-1.641-3.2979 1.9985l-1.6683 3.4985 8.9631 4.5015c4.9297 2.4758 9.4013 4.5015 9.9368 4.5015s3.099-6.6375 5.6965-14.75c2.5975-8.1125 5.08-15.164 5.5166-15.67 1.0848-1.2577 16.853 2.4139 16.853 3.9242 0 0.64716-1.3418 3.611-2.9819 6.5864-3.251 5.898-3.9259 11.912-1.5573 13.877 2.3554 1.9548 8.9338 2.4669 10.315 0.803 0.65591-0.79032 1.4863-6.1245 1.8454-11.854 0.75844-12.102 1.4346-13.922 5.1643-13.901 4.5268 0.0255 5.2707 1.1845 5.8223 9.0712 1.0416 14.892 2.5344 15.374 4.2717 1.3802 1.2076-9.7272 2.037-10.467 11.74-10.467 8.6238 0 9.5986 0.71974 11.852 8.7507 3.8228 13.625 3.8735 13.731 6.6866 14.057 2.603 0.30118 2.7783-0.0551 8.4589-17.19 5.512-16.627 5.7157-17.592 4.0919-19.386-0.93988-1.0386-1.7089-3.4282-1.7089-5.3102 0-5.1375 6.7038-35.944 8.6328-39.671 2.0038-3.8714 4.4532-4.1548 11.867-1.3729 8.7834 3.2958 9.5 3.4195 9.5 1.6406 0-5.1561 8.2396-12.518 14.011-12.518 1.6795 0 4.6141 0.65204 6.5214 1.449 2.9347 1.2262 3.4679 1.9419 3.4679 4.6549 0 4.228-10.252 34.883-14.012 41.896-8.904 16.61-8.9477 16.747-10.067 31.579-1.3426 17.796-1.6782 51.7-0.56422 56.988l0.85672 4.0663-12.357 8.093c-15.408 10.091-39.138 23.332-53.458 29.83l-10.899 4.9448-14.5-0.44883c-21.315-0.65979-51.969-0.55471-82 0.2811-26.196 0.72906-26.58 0.71036-33.5-1.6308zm20.42-81.451 2.1411-1.75-5.5064-7.894c-3.4089-4.887-5.6996-7.363-6.0136-6.5-1.3838 3.8034-3.5406 10.183-3.5406 10.474 0 0.57478 9.2558 7.4201 10.033 7.4201 0.40998 0 1.7089-0.7875 2.8865-1.75zm84.58-34.04c-0.55-0.41743-2.6941-2.5738-4.7647-4.792l-3.7647-4.033 1.1567-12.943c0.6362-7.1185 1.5979-13.505 2.1372-14.193 1.378-1.7568 8.8512-1.5577 11.513 0.3067 2.1234 1.4873 2.2225 2.2051 2.2225 16.096 0 11.94-0.30664 15.058-1.7156 17.443-1.6673 2.8224-4.6336 3.7471-6.7844 2.1147zm34.597-2.129c-1.099-0.6958-1.2575-2.4487-0.73245-8.0984 0.59117-6.3608 0.48168-7.1381-0.92921-6.5967-0.87963 0.33754-3.0843 0.61372-4.8993 0.61372-3.1734 0-3.3907 0.25878-5.6682 6.75-2.0256 5.7732-2.7424 6.7935-4.9539 7.0506-1.4221 0.1653-3.0847-0.30083-3.6947-1.0359-0.65418-0.78823-1.2081-6.6092-1.3504-14.191-0.22836-12.165-0.124-12.949 1.9468-14.626 2.1839-1.7684 2.1736-1.7797-5.4-5.8648l-7.5881-4.093-2.5489 2.005c-1.4019 1.1027-3.2067 2.005-4.0108 2.005-0.80404 0-4.6555-2.25-8.5587-5-7.7453-5.4569-10.848-6.0936-17.055-3.5-5.0927 2.1279-8.0622 1.869-11.472-1-3.6409-3.0636-3.5549-3.0636-9.6018 4e-3 -2.7057 1.3727-6.3782 2.4958-8.1611 2.4958-2.368 0-3.9162 0.80164-5.7446 2.9746-4.9254 5.8535-5.3627 9.961-3.0627 28.77 0.41382 3.3842 0.23367 5.736-0.50782 6.6295-1.8361 2.2124-6.634 2.6716-11.768 1.1263-4.2888-1.2907-4.9358-1.2677-6.5957 0.2345-1.7182 1.555-2.0531 1.551-5.0403-0.0592-6.3728-3.4351-9.616-11.954-9.6797-25.426-0.0111-2.3375-0.44894-4.25-0.97306-4.25-1.9371 0-6.047 2.3578-6.047 3.4691 0 0.63145 1.3718 4.9068 3.0484 9.5009 4.2321 11.596 3.973 12.516-3.5484 12.587-3.3 0.0314-7.474 0.69687-9.2754 1.4788-4.4918 1.9497-5.5701 1.0058-10.323-9.0359l-4.0228-8.5 0.67306-9.5c0.37018-5.225 0.61073-11.075 0.53456-13-0.17548-4.4346-2.7986-13.807-4.6875-16.749-0.79426-1.2369-8.1492-6.7333-16.344-12.214l-14.9-9.9652-2.932 6.2142c-4.4355 9.4005-6.164 11.138-10.299 10.349-3.3614-0.64068-10.195-4.3615-16.726-9.1064-1.8158-1.3194-6.8155-3.5691-11.11-4.9995-9.566-3.1856-16.443-7.422-19.087-11.758-1.5376-2.5219-1.9849-4.9877-1.954-10.771 0.04484-8.376 1.3798-13.048 5.1693-18.09 1.4094-1.8754 4.0132-6.3106 5.7862-9.8559l3.2236-6.4461-4.5417-4.0539c-2.4979-2.2296-5.7484-4.9689-7.2232-6.0872-2.4334-1.8452-3.0786-3.9261-6.9759-22.5-2.362-11.257-4.6017-21.231-4.9771-22.164-0.37544-0.93366-2.1764-2.8369-4.0021-4.2295-3.0336-2.3138-17.427-21.63-20.546-27.573-2.708-5.1598-7.0748-23.772-7.6463-32.591-0.71664-11.057 0.13653-17.441 2.7796-20.802l1.9925-2.5331 6.4567 3.952c5.3579 3.2794 6.4728 3.656 6.5514 2.2127 0.05208-0.95657 0.16458-9.3892 0.25-18.739 0.14756-16.152 0.32401-17.573 3.5393-28.5 1.8612-6.325 4.0247-12.765 4.8077-14.312 2.1978-4.3407 5.1751-3.2479 9.023 3.312 1.7744 3.025 3.635 6.175 4.1346 7 0.68297 1.1277 1.1842 0.38323 2.0198-3 2.8804-11.662 5.3856-19.528 7.7382-24.296 1.4125-2.8625 3.4308-7.6435 4.4851-10.625 2.8885-8.1674 6.2438-13.273 12.452-18.947 6.1874-5.6549 9.8227-6.6231 10.825-2.8831 0.33164 1.2375 0.60912 7.5375 0.61663 14 0.0075 6.4625 0.35116 11.725 0.76366 11.694 0.4125-0.03095 2.2399-3.1793 4.0608-6.9964 7.1452-14.978 23.611-35.081 36.549-44.625 9.579-7.0656 12.756-5.6348 11.874 5.348-0.44307 5.5197-0.30017 6.2921 1.0671 5.7674 2.9697-1.1396 4.8275-5.486 5.2382-12.255 0.30732-5.0649 1.199-8.2145 3.683-13.009 3.3715-6.5075 25.195-34.637 27.654-35.644 0.75721-0.31024 1.9947-0.05122 2.75 0.57562 1.9374 1.6079 1.8207 22.909-0.15559 28.395-1.9323 5.3636-1.8736 5.6035 1.0939 4.4752 1.4108-0.53639 4.0805-0.97525 5.9326-0.97525 5.5476 0 5.3905 2.4786-1.0504 16.572-3.1412 6.8734-5.5357 12.673-5.321 12.887 0.21462 0.21463 3.0865-0.24955 6.382-1.0315 3.2955-0.78195 13.867-2.6176 23.492-4.0793 21.935-3.3312 42.97-3.7127 56.363-1.0223 4.8748 0.97925 9.0475 1.5962 9.2728 1.3709 0.22524-0.22525-0.97247-3.4898-2.6616-7.2545-1.8211-4.059-2.9497-8.0859-2.7728-9.8939 0.27171-2.7765 0.61111-3.0429 3.7984-2.9806 1.925 0.03761 4.7346 0.42317 6.2436 0.8568l2.7436 0.78841-1.6844-3.8568c-1.2819-2.9353-1.6985-6.963-1.7436-16.857l-0.0592-13 2.5-0.26097c2.1339-0.22276 4.184 1.8608 14 14.229 15.443 19.458 18.057 24.296 18.886 34.953 0.63222 8.1307 1.6849 10.744 5.0538 12.547 1.4158 0.75769 1.6017-0.15962 1.5822-7.8046-0.0211-8.2807 0.0793-8.6776 2.2728-8.9886 8.6748-1.2301 39.505 32.788 47.799 52.74l2.3216 5.5852 0.1508-9c0.0829-4.95 0.43947-11.7 0.79227-15 0.54736-5.1198 0.95457-6.0447 2.7757-6.3044 3.1058-0.44295 13.491 9.53 16.706 16.043 9.388 19.018 14.791 34.16 16.248 45.534 0.37141 2.8998 0.98388 5.4632 1.361 5.6963 0.37717 0.2331 2.2304-3.4895 4.1182-8.2724 2.7118-6.8705 3.8916-8.7616 5.6192-9.0075 3.2151-0.45764 4.631 2.4224 9.494 19.311l4.3192 15-0.46664 37 3.3758-3.618c5.1872-5.5593 7.5695-6.9638 9.7933-5.7737 2.9406 1.5737 3.9034 5.4898 3.8956 15.845-6e-3 7.7557-0.63795 11.816-3.3698 21.647-3.6018 12.961-6.0563 17.936-13.134 26.625-5.9723 7.3316-8.6017 12.592-8.6725 17.35-0.12264 8.2437 1.0518 26.207 2.139 32.718 0.62395 3.7362 0.84103 7.9621 0.4824 9.391-0.35862 1.4289-3.7776 7.5223-7.5976 13.541-8.2431 12.987-8.2577 13.109-3.7428 31.096l3.2182 12.821-2.4271 4.5752c-2.5813 4.8658-6.4894 7.8605-11.453 8.7765-1.6722 0.30858-9.6355 3.7781-17.696 7.7101-14.609 7.1262-14.664 7.1434-17.344 5.3876-1.4785-0.96875-3.8038-4.1982-5.1674-7.1766-1.3636-2.9784-2.9062-5.4153-3.4281-5.4153-2.0286 0-16.983 8.1304-20.282 11.027-4.1307 3.6268-7.8978 9.7847-9.7201 15.889-0.88821 2.9754-2.227 4.9326-4.1039 6-3.2436 1.8445-3.275 2.0076-1.2983 6.7384 1.7978 4.3029 1.8838 8.1011 0.35556 15.711-1.0639 5.2978-0.9936 5.8591 1 7.9812 5.4855 5.8391-0.84317 15.681-10.056 15.638-1.8148-8e-3 -3.9308-0.41492-4.7022-0.90332zm-119.55-31.549c1.4707-3.5199 1.9298-8.718 0.86405-9.7837-0.81819-0.81819-7.923 1.7536-7.8794 2.8522 0.0429 1.0831 4.7145 10.399 5.2146 10.399 0.19347 0 1.0038-1.5606 1.8007-3.4679zm74.101-65.241c10.784-15.881 10.827-23.208 0.29145-49.268-3.8523-9.5288-6.9661-19.249-8.5277-26.622-1.3529-6.3873-2.9158-12.465-3.4732-13.507-1.5419-2.8811-4.3996-2.2766-7.858 1.6623l-3.1221 3.5559-8.3703-5.0559c-4.6037-2.7808-8.7578-5.0559-9.2315-5.0559-0.47361 1e-5 -2.5552 6.3776-4.6257 14.172-2.0705 7.7948-5.3705 18.032-7.3332 22.75-6.1075 14.681-6.5647 16.294-7.6719 27.078-0.79896 7.7818-0.76939 13.595 0.11423 22.454 1.8361 18.409 4.721 20.637 14.19 10.96 7.2148-7.3739 13.149-11.414 16.766-11.414 2.4052 0 4.5096 1.6534 11.564 9.0854 4.7429 4.9969 9.1887 8.901 9.8795 8.6756 0.69083-0.22535 4.0247-4.4868 7.4085-9.47zm-136.87-49.268c14.443-5.5696 37.246-19.992 45.126-28.541 9.2154-9.9975 12.876-21.706 11.133-35.608-1.8224-14.533-3.9907-19.854-8.8422-21.698-1.4857-0.56451-6.9762-1.528-12.201-2.141-7.826-0.91818-10.734-0.8494-16.5 0.39029-35.764 7.6886-41.618 9.7981-50.16 18.075-5.9459 5.7611-7.9264 11.102-6.8296 18.416 0.87134 5.8106 2.3167 8.5515 8.0171 15.203 5.1475 6.0068 5.1622 6.1393 2.4042 21.65-1.2111 6.8112-1.1672 7.4418 0.69658 10 2.7803 3.8164 9.9179 7.2304 15.116 7.2304 2.3976 0 7.7559-1.3249 12.04-2.977zm216.5 0.62474c1.7698-0.74372 4.6703-2.8438 6.4454-4.6668 3.184-3.2699 3.8282-4.7309 6.3395-14.377 0.94963-3.6476 2.7744-6.4992 7.1558-11.183 4.0152-4.2922 6.0561-7.3649 6.4325-9.6844 0.73235-4.513-1.1665-16.339-3.9279-24.463l-2.2275-6.5534-9.5-3.749c-5.225-2.062-13.305-5.3981-17.957-7.4136s-11.401-4.508-15-5.5388-7.9418-2.4311-9.6511-3.1118c-3.7012-1.474-8.9377 0.21969-16.577 5.3615-5.6623 3.8114-7.6374 7.1965-11.805 20.232-4.1158 12.874-5.1968 27.107-2.5796 33.96 2.4831 6.5018 8.9176 11.796 16.992 13.982 3.5773 0.96831 8.6578 3.1449 11.29 4.8369 4.2483 2.7307 28.562 13.622 30.568 13.693 0.43016 0.0153 2.2302-0.58071 4-1.3244zm88.861-77.703c2.0035-4.0946 4.3554-9.853 5.2263-12.796 2.3348-7.8909 3.7967-21.01 2.9001-26.025l-0.78243-4.3768-9.8318 12.877c-8.607 11.273-9.7615 12.441-9.2674 9.3768 1.8718-11.609 3.8011-37.553 3.375-45.386-0.48779-8.9662-6.1756-33.614-7.7568-33.614-1.8024 0-8.3738 22.772-9.6123 33.31-0.85211 7.2501-2.3934 8.4229-2.3934 1.8212 0-22.677-16.756-78.075-25.757-85.155-2.2859-1.7981-2.7266-1.8642-3.478-0.52158-1.2276 2.1937-1.0863 24.928 0.21265 34.209 0.60319 4.3097 1.9335 12.111 2.9563 17.336 1.0228 5.225 1.7673 9.6012 1.6544 9.7249-0.11284 0.12372-6.9917-6.0879-15.286-13.804-14.058-13.077-20.964-21.593-19.058-23.499 0.37651-0.37652 6.438 4.4633 13.47 10.755 7.032 6.2919 13.326 11.764 13.986 12.16 1.3105 0.78585-8.1407-21.461-15.225-35.837-2.4392-4.95-7.6863-13.05-11.66-18-7.4679-9.3019-22.295-24.5-23.903-24.5-1.5571 0-0.99026 4.0136 2.5161 17.817l3.3828 13.317-11.156-10.802c-6.1358-5.9413-11.592-11.484-12.126-12.317-0.53336-0.83284-1.2611-5.1276-1.6172-9.5438-0.89321-11.077-6.5942-21.674-18.397-34.196l-5.4428-5.7744-0.0365 5.1447c-0.0408 5.7565 2.7295 15.637 7.0831 25.263 1.594 3.5243 2.7773 6.5286 2.6296 6.6763-0.14767 0.14768-3.8642-1.923-8.2588-4.6015-5.8311-3.554-8.077-4.4838-8.3109-3.4409-0.17629 0.78604 2.2536 6.3835 5.3998 12.439 6.4099 12.337 14.074 21.599 21.268 25.704 8.3043 4.7375 10.039 7.2361 6.3814 9.1934-1.2912 0.69105-3.6623 0.13993-8.75-2.0338-12.091-5.1661-26.917-8.8437-35.652-8.8437-4.3046 0-7.8266 0.39528-7.8266 0.87839 0 1.0188 8.4813 7.6201 14.952 11.637 8.7664 5.4429 24.635 10.894 37.798 12.985 4.158 0.66038 4.2503 0.61354 4.2647-2.1629 0.0162-3.126 1.9204-7.498 3.4853-8.0021 0.56263-0.18124 1.0434 1.7524 1.0993 4.421 0.10718 5.1199 4.4522 14.815 11.235 25.069 6.3174 9.5507 28.238 24.134 41.449 27.575 6.4011 1.6673 9.7171 3.2486 9.7171 4.6337 0 1.5645-2.6871 1.1219-8.7944-1.4486-5.6778-2.3898-29.245-7.8802-30.111-7.0148-0.24704 0.24704 0.86804 1.8272 2.4779 3.5115 5.4538 5.7058 34.674 21.039 52.427 27.511l11.5 4.1925 0.58362 14.015-8.7918-4.4233c-4.8355-2.4328-12.167-5.2652-16.292-6.2942-9.0615-2.2604-23-3.708-23-2.3888 0 0.97308 9.3771 9.3228 28.301 25.2 13.003 10.91 21.651 15.468 28.336 14.936l4.2965-0.34172-0.61194 12.074c-0.33657 6.6407-0.27814 13.843 0.12983 16.005l0.74178 3.9306 5.1534-5.5552c2.8344-3.0554 6.7927-8.9054 8.7962-13zm-401.81-2.4075-0.64246-18.463 3.7223 1.0278c2.0472 0.56527 5.1175 0.72133 6.8227 0.34679 6.5998-1.4496 21.053-11.155 36.411-24.449l15.595-13.5-4.6437-0.30582c-8.6904-0.57231-24.147 3.2457-38.344 9.4716-0.92683 0.40645-1.25-1.105-1.25-5.8462v-6.3943l9.9145-3.2498c11.312-3.708 26.898-11.086 38.585-18.266 8.3838-5.1503 15.211-10.532 14.395-11.348-0.26398-0.26398-2.9358 0.1556-5.9374 0.9324s-8.6036 1.9094-12.449 2.517-9.6734 2.1879-12.952 3.512c-3.2781 1.3241-6.1322 2.2353-6.3426 2.025-0.21034-0.21034 3.1428-2.3931 7.4515-4.8505 22.822-13.017 29.87-17.488 34.852-22.112 6.5234-6.0544 16.529-22.126 19.083-30.653 0.97733-3.2627 2.1529-5.9322 2.6125-5.9322 1.2436 0 2.786 4.6704 2.786 8.436v3.3058l4.75-0.88233c19.488-3.62 36.227-11.15 48.25-21.705l3.5-3.0728-9.1984-0.04064c-6.9821-0.03085-11.078 0.54004-17 2.3694-12.899 3.9846-19.493 5.7322-19.94 5.2845-0.2331-0.2331 3.0778-5.0972 7.3575-10.809 6.9609-9.2904 19.281-30.865 19.281-33.764 0-1.6156-5.1396-1.3786-9.486 0.43742-2.0516 0.85722-3.8884 1.4004-4.0817 1.2071-0.19331-0.19331 0.80158-3.9322 2.2109-8.3086 2.84-8.8194 4.2988-20.457 2.5643-20.457-1.6183 0-16.841 19.352-19.888 25.284-2.055 3.9998-2.7054 6.7664-2.7895 11.864l-0.10958 6.6478-5.9602 6.3732c-3.2781 3.5053-9.2357 10.751-13.239 16.102-4.0034 5.3509-7.764 9.729-8.357 9.729-0.59296 0-0.83039-0.5625-0.52763-1.25 5.6534-12.838 10.037-27.86 9.4684-32.446l-0.30493-2.4582-4.7387 3.7023c-5.9997 4.6875-20.704 21.755-26.616 30.894-2.4859 3.8428-5.8285 10.153-7.4281 14.022-1.5995 3.8695-4.1432 9.7355-5.6526 13.036s-3.7993 8.5875-5.0886 11.75c-1.2893 3.1625-2.6744 5.75-3.0779 5.75-0.40357 0-0.47525-11.307-0.1593-25.126l0.57446-25.126-2.6977 1.7676c-3.5527 2.3278-6.3372 7.2614-13.041 23.105-7.9476 18.785-9.7725 27.204-10.486 48.379l-0.58943 17.5-1.8729-7.5c-2.8529-11.425-8.4089-28.322-10.039-30.53-2.1516-2.9156-3.2302-1.2333-6.8078 10.619-3.1299 10.369-3.1432 10.509-3.2117 34.08l-0.0688 23.668-6-5.7543c-6.3114-6.0529-9.8162-8.433-10.869-7.3808-0.34732 0.34732-0.63148 4.8946-0.63148 10.105 0 9.7454 1.4122 15.752 7.569 32.193 1.9288 5.1507 13.628 23 15.075 23 0.18012 0 0.03839-8.3082-0.31497-18.463zm40.077-93.045c0.44325-1.096 1.4628-3.8676 2.2657-6.1592 1.0373-2.9607 4.1496-6.7686 10.755-13.159 8.2199-7.952 16.952-14.13 18.204-12.879 0.49871 0.49871-3.286 5.1392-13.092 16.052-8.2217 9.15-19.288 19.003-18.132 16.144zm191.21 1.5494c4.6261-17.134 9.102-32.208 9.9464-33.496 0.84436-1.2887 2.9758-3.0534 4.7366-3.9216 3.0868-1.5221 2.7362-1.5793-9.7986-1.5976l-13-0.01903 3 1.8342c1.65 1.0088 3.6216 2.587 4.3814 3.5071 2.4216 2.9325 1.3454 11.513-3.7076 29.564l-4.8744 17.413-2.6127-6.913c-4.0109-10.613-11.442-31.868-12.571-35.955-0.89837-3.2537-0.74531-3.9197 1.3918-6.0569l2.4012-2.4012h-19.984-19.984l2.2694 3.0695c2.8014 3.7891 3.5984 11.868 3.711 37.615 0.0823 18.822-0.43988 22.092-4.1614 26.065l-2.1077 2.25h8.0493c4.4271 0 9.481-0.28634 11.231-0.6363l3.1815-0.6363-2.4929-2.6137c-4.2641-4.4707-4.735-7.453-5.3474-33.862-0.54363-23.446-0.4561-25.391 1.2259-27.25 2.3843-2.6346 5.108-2.5367 6.9148 0.24851 0.80277 1.2375 6.7021 15.75 13.11 32.25 12.311 31.703 14.013 35.363 15.672 33.705 0.55502-0.55502 4.7942-15.028 9.4203-32.162zm-48.285 313.5-3.1697-1.3788 0.48004-13.832c0.26402-7.6076 0.6628-14.75 0.88618-15.873 0.27127-1.363 2.6829-3.142 7.2624-5.3575 8.0951-3.9162 10.579-3.8246 11.028 0.40661 0.17445 1.6453 1.2176 6.5615 2.3181 10.925 2.4484 9.7076 1.8397 21.592-1.265 24.696-2.2969 2.2969-12.649 2.5408-17.54 0.41326zm25.179-0.53223c-3.1731-3.5062-2.1629-13.322 2.6066-25.328 3.8779-9.7618 6.5791-13.682 9.4272-13.682 0.727 0 1.6075 0.9 1.9566 2 0.39867 1.2561 1.513 2 2.996 2 3.8913 0 5.7662 2.7108 5.1256 7.4108-0.30654 2.249-1.0918 8.7046-1.745 14.346-0.6532 5.6412-1.6801 10.64-2.2821 11.108-1.8208 1.4168-10.773 4.1351-13.618 4.1351-1.4668 0-3.477-0.8952-4.4672-1.9893z"/></g></svg>
