<?xml version="1.0" encoding="UTF-8" standalone="no"?>
<!-- Created with Inkscape (http://www.inkscape.org/) -->

<svg
   version="1.1"
   id="svg1"
   width="419.48053"
   height="532"
   viewBox="0 0 419.48053 532"
   sodipodi:docname="5.svg"
   inkscape:version="1.3.2 (091e20e, 2023-11-25, custom)"
   xml:space="preserve"
   xmlns:inkscape="http://www.inkscape.org/namespaces/inkscape"
   xmlns:sodipodi="http://sodipodi.sourceforge.net/DTD/sodipodi-0.dtd"
   xmlns="http://www.w3.org/2000/svg"
   xmlns:svg="http://www.w3.org/2000/svg"><defs
     id="defs1" /><sodipodi:namedview
     id="namedview1"
     pagecolor="#ffffff"
     bordercolor="#000000"
     borderopacity="0.25"
     inkscape:showpageshadow="2"
     inkscape:pageopacity="0.0"
     inkscape:pagecheckerboard="0"
     inkscape:deskcolor="#d1d1d1"
     inkscape:zoom="1.0327481"
     inkscape:cx="269.66887"
     inkscape:cy="226.0958"
     inkscape:window-width="1920"
     inkscape:window-height="991"
     inkscape:window-x="-9"
     inkscape:window-y="-9"
     inkscape:window-maximized="1"
     inkscape:current-layer="g1" /><g
     inkscape:groupmode="layer"
     inkscape:label="Image"
     id="g1"><path
       style="fill:#000000"
       d="m 153.74026,528.99926 c -8.72491,-2.39478 -20.51677,-8.66372 -33.7496,-17.94239 -13.97171,-9.79677 -28.788357,-19.06832 -41.500395,-25.96896 l -8.75,-4.74988 0,-5.95113 c 0,-3.27313 0.675,-7.56664 1.5,-9.54114 5.228301,-12.51309 -5.92558,-62.48969 -16.5091,-73.97146 -2.15772,-2.34085 -4.226343,-5.52019 -4.59694,-7.06519 C 49.763627,382.2641 48.604624,377.85 47.558663,374 43.6435,359.58898 43.459957,358.09053 44.705457,350.70637 l 1.184711,-7.02377 3.175048,0.90629 c 4.747712,1.3552 7.831661,4.00661 11.270563,9.68985 l 3.095513,5.11573 3.769615,-2.56152 c 5.091518,-3.45977 12.148444,-2.97203 19.132908,1.32239 l 4.90645,3.01675 V 371.58604 382 l 9.884995,20.80602 c 10.82921,22.79341 10.47296,20.75333 5.13665,29.41507 l -2.60053,4.22109 10.02128,5.02891 c 10.86098,5.4503 11.77721,5.68564 14.46989,3.71671 1.68864,-1.23477 1.69992,-1.59092 0.19113,-6.03495 -1.80499,-5.31648 -2.13049,-15.79949 -0.5805,-18.69567 1.9192,-3.58605 4.62371,-4.23529 10.08562,-2.42113 4.84512,1.60929 5.13692,1.92948 9.17077,10.06306 2.29152,4.62049 4.51612,8.40089 4.94355,8.40089 1.15989,0 0.94838,-1.65441 -0.72286,-5.65424 -1.76718,-4.22947 -1.85617,-6.5231 -0.44957,-11.58797 1.31268,-4.72665 3.55812,-5.3668 12.94244,-3.68973 5.38865,0.96301 7.35268,0.98639 8.24094,0.0981 1.40305,-1.40305 2.75838,-1.45658 4.76483,-0.18819 1.13229,0.71578 1.74342,4.43993 2.5,15.23468 0.81218,11.58812 1.28475,14.28732 2.50136,14.28732 1.18099,0 1.64271,-2.02044 2.17099,-9.5 0.36904,-5.225 1.29643,-11.75 2.06086,-14.5 1.58676,-5.70826 3.63248,-6.65576 8.70586,-4.03221 3.00648,1.55471 3.06109,1.71313 2.52011,7.31068 -0.30413,3.14684 -0.75254,6.99519 -0.99646,8.55189 -0.30568,1.9508 -0.0578,2.703 0.79757,2.42054 0.83507,-0.27574 1.40465,-3.7645 1.74107,-10.66434 0.40543,-8.31493 0.83782,-10.50092 2.28601,-11.55712 3.03176,-2.21114 10.59742,0.27574 15.91258,5.23058 l 2.69858,2.51564 2.6117,-3.10382 c 2.82294,-3.35488 7.45981,-4.7769 12.18918,-3.73816 l 2.85439,0.62693 -0.81047,10.71969 c -0.68251,9.02716 -1.13834,10.99601 -2.887,12.4697 -3.45204,2.90921 -7.3102,2.23425 -10.69398,-1.87086 l -2.98462,-3.62087 -1.58818,3.07121 c -0.8735,1.68916 -1.58819,3.31403 -1.58819,3.61082 0,0.64284 17.57066,9.5597 18.83737,9.5597 0.97674,0 10.19016,-26.49013 10.17331,-29.25 -0.008,-1.25526 0.78614,-1.75 2.80782,-1.75 3.15778,0 13.233,2.7552 14.50816,3.96745 0.45466,0.43223 -0.55784,3.52854 -2.25,6.88069 -3.28984,6.51714 -3.95929,12.17445 -1.66588,14.07781 2.15291,1.78675 8.36265,2.50698 9.98761,1.15839 0.96367,-0.79978 1.64284,-4.59065 2.12834,-11.87947 0.82407,-12.37184 1.50554,-14.21073 5.25846,-14.18956 4.70818,0.0266 5.28658,1.08779 5.91978,10.86137 0.88376,13.64087 2.26991,13.2498 4.23566,-1.195 0.51034,-3.75008 1.46257,-7.46258 2.11608,-8.25 0.84527,-1.0185 3.44104,-1.43168 8.99431,-1.43168 8.96894,0 10.30122,0.81035 11.9935,7.295 3.71107,14.2205 4.45521,15.65611 8.13269,15.68969 1.28795,0.0118 3.01906,-4.0324 7.45887,-17.42515 5.4938,-16.57214 5.69658,-17.53448 4.07279,-19.32874 -2.39199,-2.64312 -2.15413,-6.80556 1.33275,-23.32278 4.1062,-19.45092 4.60686,-21.15358 6.9641,-23.68378 l 2.04011,-2.1898 6.59615,2.48278 c 8.34878,3.14247 11.35802,3.23543 11.35802,0.35086 0,-2.3511 5.54599,-8.06482 10.1279,-10.43422 2.65007,-1.3704 3.46111,-1.35039 8.40265,0.20729 5.28673,1.66649 5.46899,1.84328 5.45543,5.29147 -0.0202,5.13702 -12.18531,40.29922 -15.87199,45.87658 -7.69087,11.63508 -8.2544,14.90892 -9.72058,56.47211 -0.53465,15.15622 -0.38213,21.09722 0.65234,25.40936 l 1.35014,5.62804 -3.59648,3.09065 c -10.82964,9.30647 -60.31646,36.43034 -73.22305,40.13378 -5.40001,1.54948 -7.78677,1.58732 -27,0.42799 -19.5791,-1.18141 -53.54852,-0.96163 -84.93597,0.54953 -7.2605,0.34956 -11.70239,0.0595 -15.64039,-1.0214 z m 18.66683,-85.885 c -0.81392,-1.24219 -3.29861,-4.8549 -5.52154,-8.02824 l -4.0417,-5.76971 -1.58084,3.78349 c -3.13885,7.51233 -3.07513,7.88681 2.00172,11.76327 4.54812,3.47275 4.77511,3.53337 7.65466,2.0443 2.79245,-1.44403 2.88023,-1.66784 1.4877,-3.79311 z m 79.53672,-34.60428 -4.29646,-4.98903 1.14863,-12.76047 c 0.63175,-7.01827 1.33815,-13.07198 1.56977,-13.4527 0.23162,-0.38072 2.43646,-0.99444 4.89964,-1.36382 3.33916,-0.50074 5.11407,-0.25517 6.9767,0.96528 2.46885,1.61765 2.49817,1.8025 2.49817,15.74578 0,12.54783 -0.23031,14.48157 -2.08155,17.47695 -2.96002,4.7894 -5.52836,4.40061 -10.7149,-1.62199 z m 37.65189,2.51213 c -0.26284,-0.26285 -0.13036,-3.73037 0.29439,-7.70562 0.42475,-3.97524 0.67731,-7.28091 0.56123,-7.34591 -0.11608,-0.065 -2.30335,0.0692 -4.8606,0.29831 -4.5051,0.40358 -4.70302,0.56121 -6.37061,5.07381 -2.42327,6.55749 -4.23472,9.1573 -6.38045,9.1573 -3.29347,0 -3.92625,-2.27506 -4.26579,-15.33691 -0.32038,-12.32474 -0.24384,-12.90628 1.93083,-14.67026 l 2.26444,-1.8368 -7.38755,-4.07801 c -4.06315,-2.24291 -7.8249,-4.07802 -8.35945,-4.07802 -0.53454,0 -1.78639,0.9 -2.78188,2 -0.99548,1.1 -2.35749,2 -3.02668,2 -0.66919,0 -4.53694,-2.1626 -8.59501,-4.80578 -4.05807,-2.64319 -8.15191,-5.09873 -9.09742,-5.45677 -0.94552,-0.35804 -4.27846,0.22957 -7.40655,1.30579 -7.3403,2.52543 -8.61242,2.46875 -12.19197,-0.54324 -3.58106,-3.01327 -4.78245,-3.08257 -8.68237,-0.50082 -1.65,1.09231 -5.03631,2.25889 -7.52515,2.59242 -6.96727,0.93367 -9.16126,3.18727 -11.37416,11.68316 -1.3163,5.0536 -1.30112,6.66158 0.14166,15.00467 0.88877,5.13948 1.3352,10.0761 0.99208,10.97027 -1.04252,2.71676 -7.16972,3.82459 -12.41769,2.24518 -3.98998,-1.20081 -4.86742,-1.18016 -6.91693,0.16272 -2.15465,1.41179 -2.61923,1.36991 -5.66162,-0.5104 -5.40175,-3.33846 -7.57545,-8.40636 -8.35357,-19.47603 -0.3739,-5.31915 -1.04222,-9.67117 -1.48516,-9.67117 -1.63129,0 -5.89946,2.34996 -5.89946,3.24811 0,0.5099 1.4248,5.13893 3.16622,10.28675 2.68841,7.94726 2.96436,9.60288 1.82863,10.97135 -1.01619,1.22444 -2.2823,1.45207 -5.26942,0.9474 -2.78241,-0.47008 -5.07381,-0.14932 -7.83816,1.09723 -5.95025,2.68319 -7.63286,1.35009 -12.76885,-10.11654 -4.23261,-9.44973 -4.3431,-9.949 -3.25,-14.6846 2.22388,-9.63436 0.53602,-25.28468 -3.38382,-31.37566 -1.38439,-2.15119 -10.98403,-9.15122 -24.233827,-17.67123 l -7.249231,-4.66147 -3.97391,7.90371 c -2.18565,4.34705 -4.465195,8.20735 -5.065654,8.57845 -2.283543,1.41131 -8.135212,-0.78511 -16.05684,-6.02693 -4.655316,-3.08046 -11.552225,-6.54692 -15.919838,-8.00147 -8.790384,-2.92746 -15.585394,-6.91629 -18.924835,-11.10931 -2.16092,-2.71326 -2.264531,-3.50117 -1.733026,-13.1787 l 0.565303,-10.29292 6.553632,-10.43986 c 3.604497,-5.74193 6.551549,-10.78512 6.549003,-11.20709 -0.0095,-1.56902 -6.246098,-7.35448 -9.983233,-9.26103 -2.126695,-1.08496 -4.111562,-2.7677 -4.410815,-3.73942 C 25.042335,257.79505 22.749825,247.325 20.247122,235.5 8.3088315,179.09289 8.0344127,172.26244 17.166571,158.82326 c 1.448339,-2.13142 2.573694,-5.19595 2.573694,-7.0086 0,-2.84676 -0.512999,-3.448 -4.414476,-5.1738 -2.427962,-1.07401 -4.960719,-2.9734 -5.6283489,-4.22088 C 8.1891804,139.60177 8.9921694,129.79333 11.246364,123.5 c 0.886516,-2.475 2.036514,-9.63549 2.555553,-15.9122 1.078895,-13.047032 2.348898,-16.024169 8.756887,-20.527873 3.359278,-2.36099 5.49624,-3.037068 10.452034,-3.306749 6.849944,-0.372754 10.07396,0.802289 7.971068,2.905181 -2.197286,2.197286 -1.361059,3.399626 4.758359,6.841641 3.3,1.856165 6,3.765809 6,4.243653 0,1.249463 -7.801612,4.520447 -13.90223,5.828797 -4.094799,0.87818 -5.422661,1.65188 -6.15902,3.58865 -0.516313,1.358 -0.93875,2.8276 -0.93875,3.26576 0,0.43817 6.1875,-0.73347 13.75,-2.60363 8.440216,-2.08723 14.952024,-3.18479 16.862712,-2.84221 3.552013,0.63686 6.880211,3.79206 6.111912,5.79421 -0.284865,0.74235 -5.529271,4.40407 -11.654234,8.13716 -11.813532,7.2002 -13.004653,7.51339 -23.456399,6.1676 -4.480334,-0.57689 -6.088688,-0.43813 -6.734687,0.58106 -1.663705,2.62481 -0.823501,3.82424 3.120696,4.45494 2.2,0.35179 4,0.96237 4,1.35683 0,1.08513 -3.111527,3.58922 -6.75,5.43227 -2.569213,1.30142 -3.25,2.26931 -3.25,4.62059 0,1.63588 0.3375,2.97407 0.75,2.97376 0.4125,-3.1e-4 3.675,-1.80006 7.25,-3.99944 3.575,-2.19938 7.565565,-3.99913 8.867923,-3.99944 1.302357,-3.1e-4 6.371686,1.80224 11.265175,4.00566 14.469642,6.51533 26.58782,7.01505 38.447544,1.58549 3.113574,-1.42544 6.658408,-2.59171 7.877409,-2.59171 1.219001,0 4.754324,1.81739 7.856264,4.03864 16.59823,11.88573 25.31283,10.78406 45.97036,-5.81142 5.06843,-4.07178 10.30351,-7.83127 11.63351,-8.35442 3.21836,-1.26593 6.70842,0.0348 13.28353,4.95089 8.63411,6.45552 40.71959,21.17631 46.15594,21.17631 4.64253,0 9.20052,-2.57851 18.42238,-10.42177 5.71868,-4.86378 9.77108,-7.57823 11.31354,-7.57823 1.32181,0 6.06441,1.85636 10.5391,4.12524 11.2481,5.70331 18.96184,6.30186 30.74686,2.38582 l 8.31328,-2.76241 6.65173,4.01185 c 6.98472,4.21269 13.53188,5.83961 18.95465,4.71011 5.67613,-1.18227 11.09363,-5.11034 19.74,-14.31288 5.06701,-5.39295 9.56397,-9.27973 11.21103,-9.68985 2.30579,-0.57414 4.52858,0.47477 13.75495,6.49084 6.05259,3.94661 14.80959,8.95868 19.45999,11.13792 7.63974,3.58011 8.50728,4.2729 8.99455,7.18282 1.43923,8.5948 2.53683,34.00031 2.58013,59.72054 0.0435,25.83163 0.46647,33.58586 2.54978,46.743 0.64026,4.04358 0.3077,4.80964 -7.07609,16.29984 -9.10348,14.16628 -9.06798,13.91698 -4.53701,31.86419 2.56863,10.17433 2.92286,12.8678 2.04296,15.53392 -1.53353,4.64664 -6.59702,9.37632 -11.38179,10.63146 -2.27573,0.59697 -10.31837,4.07117 -17.87253,7.72044 -7.55415,3.64928 -14.69201,6.56294 -15.8619,6.47482 -3.07641,-0.23174 -5.42645,-2.73179 -7.83859,-8.33897 -1.16615,-2.71079 -2.44526,-4.93034 -2.84247,-4.93235 -0.39721,-0.002 -5.37392,2.30603 -11.05935,5.12896 -11.77138,5.84473 -14.3558,8.60325 -18.69217,19.9514 -1.64316,4.30011 -3.47958,7.38008 -4.81368,8.07333 -1.18635,0.61648 -2.29614,1.23655 -2.46619,1.37793 -0.17005,0.14138 0.45925,2.89293 1.39844,6.11454 1.48828,5.10509 1.5496,6.80141 0.47741,13.206 -1.16632,6.96689 -1.1221,7.46358 0.85156,9.56445 5.7059,6.07365 -1.4062,15.58704 -11.65269,15.58704 -2.16271,0 -4.14725,-0.21505 -4.4101,-0.47789 z M 172.72508,372.41667 c 0.008,-1.42084 -0.21967,-2.81819 -0.50671,-3.10523 -0.75114,-0.75114 -8.47811,1.44561 -8.47811,2.4103 0,0.44471 1.42782,3.3385 3.17292,6.43066 l 3.17292,5.62209 1.3119,-4.38724 c 0.72155,-2.41299 1.31873,-5.54975 1.32708,-6.97058 z m 73.90556,-60.54058 c 9.34547,-13.83331 9.17037,-22.32913 -0.9775,-47.43004 -3.90666,-9.66318 -6.89823,-19.04152 -8.42951,-26.42588 -1.30552,-6.29568 -2.86419,-12.36323 -3.4637,-13.48343 -1.61118,-3.01051 -4.70899,-2.48242 -8.32065,1.41843 l -3.19902,3.45517 -8,-4.92656 c -4.4,-2.70961 -8.4809,-4.93943 -9.06867,-4.95517 -0.58777,-0.0157 -2.35321,5.03389 -3.9232,11.22139 -3.40199,13.40767 -6.11587,21.43042 -10.95929,32.39778 -4.90307,11.10246 -6.46638,25.21088 -4.72425,42.63513 1.86043,18.60751 4.72472,20.84549 14.20958,11.10249 7.79723,-8.00944 12.68571,-11.3854 16.48636,-11.3854 2.75947,0 4.46161,1.30764 11.8914,9.13538 l 8.67096,9.13538 2.42484,-2.27801 c 1.33366,-1.25291 4.65585,-5.58041 7.38265,-9.61666 z M 106.91313,265.00707 c 8.6775,-3.03173 17.11987,-7.57065 30.32713,-16.30496 12.49427,-8.26277 19.37395,-15.05484 23.59182,-23.29134 2.89509,-5.65345 3.33386,-7.56945 3.7142,-16.21901 0.68095,-15.4862 -2.37245,-27.38195 -7.74098,-30.15813 -1.46591,-0.75805 -8.04273,-1.91809 -14.61516,-2.57788 l -11.94988,-1.1996 -19.5,5.14386 c -22.888826,6.0378 -28.324474,8.44255 -34.427869,15.23099 -9.338213,10.38634 -8.793745,20.4556 1.774071,32.80923 5.262675,6.152 5.740728,8.86089 3.027581,17.15586 -1.955995,5.98011 -1.399363,13.09786 1.257959,16.08572 2.650618,2.98032 9.215102,5.77046 13.637043,5.79623 2.07283,0.0121 6.979665,-1.09986 10.904085,-2.47097 z m 220.99039,-1.71898 c 4.81345,-2.70531 6.99324,-6.23627 9.30265,-15.06904 1.49106,-5.70283 2.70481,-7.80923 7.63409,-13.24849 3.22363,-3.55714 6.1422,-7.58735 6.48571,-8.95602 0.87778,-3.49735 -1.31426,-17.78901 -3.90677,-25.47133 l -2.17894,-6.45679 -9.5,-3.63978 c -5.225,-2.00188 -13.775,-5.48032 -19,-7.72987 -5.225,-2.24954 -13.62569,-5.30323 -18.6682,-6.78596 l -9.16821,-2.69587 -6.42039,3.00446 c -9.22556,4.31716 -12.92765,8.44401 -16.05788,17.90032 -4.09694,12.37669 -5.65458,20.24448 -5.67053,28.6424 -0.0274,14.42045 5.18931,21.26221 19.3634,25.39531 2.817,0.82142 7.1433,2.66287 9.614,4.09212 9.29348,5.37605 27.59136,13.21244 30.87166,13.22133 1.85012,0.005 5.13485,-0.98624 7.29941,-2.20279 z M 20.666211,139.08923 c 0.643959,-0.77592 1.43582,-3.04368 1.75969,-5.03946 0.47338,-2.9171 0.135555,-4.1112 -1.722705,-6.08923 -4.143187,-4.41022 -5.182146,-3.45674 -6.461158,5.92959 -0.486734,3.572 -0.30723,5.11777 0.665941,5.73468 2.00596,1.27162 4.446806,1.04459 5.758232,-0.53558 z m 11.600835,-34.82444 c 1.116821,-1.32596 6.204286,-14.390916 5.835898,-14.98698 -0.814445,-1.3178 -3.798138,-0.869068 -8.126544,1.22219 -2.276737,1.1 -4.5786,2 -5.115249,2 -3.201225,0 -6.969682,9.48199 -5.730578,14.41897 l 0.610423,2.43213 6.151513,-2.41076 c 3.383332,-1.32592 6.251873,-2.52992 6.374537,-2.67555 z m 165.973214,303.7964 c -0.55,-0.21244 -2.24345,-0.66068 -3.76323,-0.99609 l -2.76324,-0.60985 0.57648,-14.22762 c 0.31707,-7.8252 0.76656,-15.1802 0.99887,-16.34444 0.28987,-1.45273 2.51295,-3.11543 7.08624,-5.29996 8.80564,-4.20622 10.65969,-3.89688 11.48855,1.91677 0.35287,2.475 1.14189,6.3 1.75338,8.5 0.61149,2.2 1.11431,8.5574 1.11738,14.12756 0.004,8.08057 -0.31875,10.39672 -1.59904,11.45926 -1.49183,1.23812 -12.6481,2.34238 -14.89539,1.47437 z m 21.48276,-2.31024 c -3.36428,-4.27699 -2.04792,-12.92429 4.07224,-26.75095 5.14762,-11.6295 7.47566,-13.82566 10.13757,-9.56326 0.70869,1.13479 2.27314,2.06326 3.47655,2.06326 4.06379,0 5.50763,2.64426 4.84735,8.87746 -1.28515,12.13199 -2.70224,21.80509 -3.3473,22.84883 -0.94818,1.53419 -11.11911,5.2726 -14.34658,5.27321 -1.72993,3.2e-4 -3.44266,-0.97234 -4.83983,-2.74855 z m -9.98276,-260.10868 c -14.17942,-5.91932 -16.30134,-7.01063 -27.27828,-14.02937 -12.51172,-8.00008 -12.64381,-9.8578 -1.28956,-18.13548 7.846,-5.72003 10.38637,-6.103 17.35109,-2.6157 11.43308,5.72465 21.39327,7.24869 30.574,4.67825 l 4.85567,-1.3595 6.34726,6.90976 c 3.491,3.80037 6.36809,7.83094 6.39354,8.95682 0.0476,2.10706 -3.6204,5.97238 -12.60336,13.28122 -4.12953,3.35992 -11.05493,7.29602 -12.56824,7.14325 -0.15516,-0.0157 -5.45712,-2.18883 -11.78212,-4.82925 z m -90.5,-0.26785 c -5.00494,-1.5769 -13.97004,-8.21682 -14.31315,-10.60092 -0.24815,-1.72424 1.91762,-3.94704 10.43282,-10.70751 15.21134,-12.07674 14.99478,-12.03778 28.97308,-5.21205 6.27399,3.06364 11.40036,5.92481 11.39194,6.35816 -0.0307,1.58167 -1.66553,3.07692 -10.99466,10.05619 -9.80329,7.33401 -16.99842,11.23867 -20.49003,11.11956 -1.1,-0.0375 -3.35,-0.49357 -5,-1.01343 z m 280.5,-1.87856 c 0,-1.49289 -1.46484,-2.6689 -5.60516,-4.49995 -6.67589,-2.95239 -15.90992,-8.42555 -23.14484,-13.71832 -4.25195,-3.11055 -5.25,-4.39421 -5.25,-6.75243 0,-5.76123 7.51664,-7.5941 18.81259,-4.58729 8.18192,2.1779 9.84187,3.70355 12.14597,11.16336 1.12279,3.63519 2.04144,7.66048 2.04144,8.94509 0,3.6665 1.75605,3.82612 3.56695,0.32423 2.21256,-4.27863 2.97843,-13.68802 1.48294,-18.21938 -1.02743,-3.11315 -1.47039,-3.49649 -3.05835,-2.64664 -5.79162,3.09958 -6.89476,3.0833 -8.55451,-0.1263 -0.87147,-1.68525 -1.43882,-3.15616 -1.26076,-3.26868 0.17805,-0.11252 1.56123,-0.73606 3.07373,-1.38563 5.68937,-2.44341 2.29867,-7.47665 -5.92047,-8.78847 -3.36959,-0.537806 -4.29291,-1.153424 -4.80799,-3.205685 -0.79565,-3.170103 0.80612,-4.282979 4.5989,-3.195224 3.40084,0.975348 4.26138,-0.01966 3.40179,-3.933358 -0.70279,-3.199792 -3.90302,-6.532093 -7.24638,-7.545431 -2.21909,-0.672587 -9.27585,1.928202 -9.27585,3.418643 0,0.410581 1.15197,2.444034 2.55994,4.518783 l 2.55993,3.772272 -2.80993,2.956551 c -3.5478,3.732919 -6.67986,5.353729 -12.07932,6.250919 -4.91459,0.81664 -14.23062,-0.21865 -14.23062,-1.58144 0,-2.249761 7.17531,-8.192524 14.66723,-12.14775 l 8.16723,-4.311744 -1.77039,-2.347052 -1.77038,-2.347052 -6.83198,3.82066 c -3.75759,2.101363 -9.96276,6.442852 -13.78927,9.647754 -7.45674,6.245413 -9.95795,7.333614 -14.98216,6.518294 -4.04629,-0.656622 -17.39578,-8.903882 -28.01869,-17.30983 -4.49641,-3.558028 -9.93503,-6.942425 -12.09253,-7.525058 -5.59149,-1.509982 -14.11991,1.524492 -28.82416,10.25584 -13.94151,8.278438 -16.41598,8.642952 -27.2549,4.014917 -5.7405,-2.451102 -7.05558,-3.440161 -7.30892,-5.496994 -0.16991,-1.37946 1.51064,-12.072928 3.73456,-23.76326 4.31097,-22.661212 5.75945,-26.389511 12.06335,-31.050186 1.65606,-1.224375 3.01101,-2.59151 3.01101,-3.038077 0,-0.446568 -5.625,-0.811942 -12.5,-0.811942 -7.66666,0 -12.5,0.386667 -12.5,1 0,0.55 0.62515,1 1.38922,1 0.76407,0 2.43911,0.85015 3.72231,1.889221 1.93499,1.566864 2.29723,2.718616 2.12297,6.75 -0.34894,8.072237 -7.55427,43.96517 -9.16486,45.65427 -0.41614,0.436421 -3.07385,-7.213579 -5.90602,-17 -4.86684,-16.817109 -8.75012,-33.162855 -8.00279,-33.685816 0.18654,-0.130541 1.91417,-1.21309 3.83917,-2.405664 l 3.5,-2.168317 -14,0.04196 c -11.24817,0.03371 -13.62377,0.2761 -12.08595,1.233153 6.71389,4.178353 7.21246,5.251597 13.0959,28.191193 3.10336,12.1 5.88138,22.843853 6.17339,23.875229 0.60483,2.136247 1.14437,2.392668 -9.39463,-4.464898 -7.99368,-5.201364 -15.41456,-7.472589 -21.06572,-6.447349 -2.04764,0.371485 -7.77299,2.541508 -12.72299,4.822273 l -9,4.146847 -17.69576,0.712233 c -10.28976,0.414151 -20.21896,1.358649 -23.72467,2.256769 -7.12625,1.825662 -16.693464,6.466759 -23.376137,11.339871 -8.189564,5.97196 -21.33243,8.871375 -28.265245,6.235522 C 61.999049,97.647891 46.748363,87.348834 43.392337,84.43927 42.372267,83.554903 59.776517,61.412744 65.284197,56.587852 80.41407,43.333631 139.4512,14.897325 164.85501,8.6277618 180.44295,4.780716 201.33715,2.1727826 217.24026,2.0892355 c 13.63494,-0.071631 16.68359,0.2671463 33.5,3.7226462 22.53306,4.6301763 28.53648,6.5170133 37.53025,11.7955153 3.83337,2.249826 10.90693,6.075401 15.71904,8.501277 13.3581,6.734072 38.98979,26.770078 57.02606,44.576632 l 8.79735,8.685305 5.17922,-1.538061 c 5.86376,-1.74135 11.61429,-1.305459 15.38669,1.166311 1.59379,1.04429 4.60902,5.897975 7.97656,12.840047 2.97778,6.1386 6.64506,13.401452 8.14949,16.139662 2.4673,4.4907 2.73534,5.96061 2.73534,15 0,9.10043 -0.25663,10.48425 -2.79242,15.05738 -3.28226,5.91931 -6.70758,8.7075 -6.70758,5.45991 z m -86.21912,-1.04811 c -4.19402,-2.21461 -6.26529,-5.25972 -5.05215,-7.42749 1.381,-2.46771 26.30025,-21.48943 29.0592,-22.18188 3.59632,-0.90262 13.591,4.31211 14.01888,7.31435 0.22338,1.56739 -2.20622,4.78141 -8.93529,11.82014 -5.08316,5.31708 -10.48637,10.31085 -12.00715,11.09727 -3.96893,2.05241 -12.61448,1.73744 -17.08349,-0.62239 z M 65.740265,139.88799 c -3.667744,-0.66794 -14.299981,-4.46942 -15.75,-5.63128 -2.89819,-2.32226 -1.196784,-4.65455 7,-9.59562 13.268534,-7.99835 15.066466,-8.68686 18.726055,-7.17101 3.724948,1.54293 15.023945,13.74573 15.023945,16.22571 0,2.95348 -7.580251,6.06575 -15.5,6.36394 -3.85,0.14495 -8.125,0.0587 -9.5,-0.19174 z m 203.479045,-0.78176 c -4.82042,-1.51048 -9.10493,-4.18892 -9.86369,-6.16622 -0.93885,-2.4466 0.36921,-4.22161 5.57079,-7.55946 6.66839,-4.27909 12.04666,-4.36806 17.9675,-0.29722 6.01918,4.13847 11.84635,9.8462 11.84635,11.60355 0,3.47275 -17.01244,5.08551 -25.52095,2.41935 z m 23.65496,-13.13849 c -7.11654,-5.56831 -8.24841,-7.34048 -5.88401,-9.21259 1.99457,-1.57927 12.71598,-4.98548 19.25,-6.11576 7.41529,-1.28272 22.08944,-1.87278 21.75,-0.87459 -0.1375,0.40436 -0.25,1.14534 -0.25,1.64663 0,0.85338 -13.84201,12.22405 -20.5,16.83994 -5.63225,3.90477 -6.66721,3.74025 -14.36599,-2.28363 z M 89.04159,121.25 c -7.621887,-7.71113 -8.722903,-9.34234 -8.419808,-12.47432 0.174926,-1.80756 5.536895,-4.27568 9.28888,-4.27568 4.074708,0 28.969298,5.8918 30.329598,7.1781 1.09071,1.03137 -1.26023,3.23297 -13.17545,12.33848 -3.9465,3.01588 -7.781436,5.48342 -8.522078,5.48342 -0.740643,0 -5.016156,-3.7125 -9.501142,-8.25 z m 157.3509,-1.67576 c -3.10873,-3.25917 -5.65223,-6.61356 -5.65223,-7.4542 0,-1.78148 8.57271,-8.62004 10.80595,-8.62004 1.6787,0 8.77242,3.93605 14.19405,7.87577 1.925,1.39883 3.68475,2.67127 3.91054,2.82765 1.52678,1.05738 -13.52344,11.29658 -16.60441,11.29658 -0.55093,0 -3.54518,-2.66659 -6.6539,-5.92576 z m -99.65223,-5.85695 c -5.45007,-2.70627 -9.62909,-5.41796 -9.80282,-6.36086 -0.31839,-1.72801 14.07998,-16.376709 18.26602,-18.583582 4.05598,-2.138311 16.88829,2.584816 24.009,8.836884 6.044,5.306708 5.18572,7.326668 -6.22067,14.640268 -12.07967,7.7453 -13.45375,7.8221 -26.25153,1.46729 z m 130.9707,-1.04756 c -0.80888,-0.26257 -5.4082,-3.19833 -10.2207,-6.52391 -11.32645,-7.826906 -11.40644,-8.848049 -1.19193,-15.214475 8.86306,-5.524104 18.31155,-9.538094 23.96828,-10.182416 3.73298,-0.4252 4.62569,0.01745 12.25215,6.075132 4.5242,3.593561 10.99418,8.215445 14.37775,10.270855 6.06154,3.682184 6.1213,3.761924 4.06642,5.425864 -1.43302,1.16039 -4.71895,1.85304 -10.50254,2.21387 -6.20462,0.38709 -11.42163,1.56171 -19.84788,4.4688 -6.28697,2.16902 -12.09267,3.72885 -12.90155,3.46628 z m -65.81697,-2.73968 c -2.94045,-0.79109 -7.14457,-2.22397 -9.34249,-3.18419 L 198.55529,105 l 2.219,-2.81856 c 1.82884,-2.322984 12.74248,-8.344504 13.49251,-7.444391 0.12051,0.144623 1.00398,1.837951 1.96326,3.762951 0.95928,1.925 2.66932,4.51183 3.80009,5.74851 1.96074,2.14439 2.14472,2.16816 3.97334,0.51327 1.8241,-1.65078 1.98602,-1.64141 3.32709,0.19262 4.29597,5.87509 -3.16019,8.27842 -15.43659,4.97565 z m 171.34627,-1.9177 c -3.90736,-0.86847 -5.06802,-1.57839 -5.31126,-3.24864 -0.34336,-2.35761 3.95367,-5.911767 5.78158,-4.782057 1.1199,0.692137 5.39438,8.560807 4.84945,8.927087 -0.17587,0.11822 -2.56977,-0.28516 -5.31977,-0.89639 z m -274.85145,-5.52199 c -6.5183,-1.57297 -12.127387,-3.135869 -12.464633,-3.473114 -2.265744,-2.265745 11.481543,-10.292763 22.316083,-13.030326 6.50998,-1.644874 29.13139,-2.255535 30.56191,-0.825013 0.46692,0.466919 -3.82072,5.234003 -9.52809,10.593519 -9.91037,9.306344 -10.5717,9.741204 -14.70543,9.669724 -2.38061,-0.0412 -9.66154,-1.36182 -16.17984,-2.93479 z m 123.45505,-0.52516 c -2.14975,-2.448423 -3.1036,-4.563871 -3.1036,-6.88318 v -3.348387 l 7.5,3.087191 c 4.125,1.697955 7.5,3.690842 7.5,4.428638 0,2.018048 -4.63905,6.250538 -6.85095,6.250538 -1.06802,0 -3.33848,-1.59066 -5.04545,-3.5348 z m -46.6036,-6.989812 C 180.8285,91.17077 168.83288,84.5 166.40305,84.5 c -2.92643,0 -3.02561,-2.298959 -0.19651,-4.55481 5.67289,-4.523399 17.08701,-6.706129 23.10449,-4.418286 4.49819,1.71021 19.42923,12.065459 19.42923,13.474918 0,1.702911 -14.19575,9.509784 -17.20289,9.460631 -1.26341,-0.02065 -4.09711,-1.589829 -6.29711,-3.487065 z"
       id="path1" /></g></svg>
