<?xml version="1.0" encoding="UTF-8"?>
<svg version="1.1" viewBox="0 0 429 530" xml:space="preserve" xmlns="http://www.w3.org/2000/svg"><path d="m154.5 526.7c-10.388-3.517-15.355-6.3222-37.164-20.991-10.91-7.3381-25.348-16.385-32.086-20.104l-12.25-6.7616v-5.8581c0-3.2219 0.50878-7.1249 1.1306-8.6732 0.62184-1.5483 1.4213-6.0776 1.7767-10.065l0.64606-7.25-11.527 8e-3c-14.718 0.01-23.875 1.4524-26.397 4.1591-1.6311 1.7508-2.8336 1.9898-8.2698 1.6436-5.7347-0.36516-6.7345-0.76966-10.153-4.1076-2.1335-2.0838-4.791-3.703-6.0766-3.703-1.2566 0-3.5582-1.2734-5.1146-2.8299-3.112-3.112-4.1253-8.0633-4.3782-21.394l-0.13806-7.2763 10.048-5.0992c5.5262-2.8046 10.701-5.3263 11.5-5.6039 1.2164-0.4227 1.1641-0.82998-0.32191-2.5064-2.5746-2.9046-7.4007-5.0798-14.122-6.3654-8.1105-1.5512-10.601-4.1636-10.61-11.13-0.0093507-7.0702 3.001-27.973 4.255-29.545 0.54827-0.6875 2.7713-1.25 4.9401-1.25 4.9097 0 7.636-1.4074 8.8349-4.5608 0.92208-2.4252 1.0075-2.4392 14.924-2.4392h13.996l0.84176-3.2485c0.46297-1.7867 1.5757-3.3898 2.4728-3.5626s6.0436 1.4558 11.437 3.619l9.8058 3.9331 24.238 0.3795c15.665 0.24527 24.307 0.0258 24.434-0.6205 0.10807-0.55-6.5954-5.6094-14.897-11.243l-15.093-10.243-2.9456 6.2432c-4.4494 9.4305-6.175 11.167-10.312 10.378-3.3614-0.64068-10.195-4.3615-16.726-9.1064-1.8158-1.3194-6.8155-3.5691-11.11-4.9995-9.566-3.1858-16.443-7.4222-19.087-11.759-1.5376-2.5219-1.9849-4.9877-1.954-10.771 0.04485-8.376 1.3798-13.048 5.1693-18.09 1.4094-1.8754 4.0132-6.3106 5.7862-9.8559l3.2236-6.4461-4.5417-4.0539c-2.4979-2.2296-5.7303-4.9539-7.1829-6.0539-2.9649-2.2451-3.768-5.1591-10.425-37.825-8.609-42.245-8.8429-48.413-2.3394-61.675 3.3577-6.8472 4.5672-10.912 6.2199-20.903 3.3988-20.547 11.432-41.847 21.346-56.597 7.3548-10.942 21.43-27.019 27.568-31.489 10.776-7.8469 46.7-26.621 57.628-30.116 5.5-1.7591 12.925-4.6519 16.5-6.4284 10.684-5.3088 21.867-8.2626 42.22-11.151 26.22-3.7208 43.237-3.6958 60.78 0.089498 23.025 4.9682 31.106 7.5002 40 12.532 4.675 2.6452 12.55 6.8919 17.5 9.437 14.854 7.6375 48.658 35.082 61.743 50.126 8.906 10.24 19.357 25.854 25.25 37.726 3.5534 7.1579 4.9444 11.396 6.0045 18.295 2.6213 17.059 4.6928 48.08 5.1068 76.479 0.22853 15.675 0.92232 33.46 1.5418 39.523 1.2931 12.656 1.3181 12.575-8.7655 28.206-6.5262 10.116-6.6455 11.661-2.2133 28.657 1.9317 7.4076 2.9172 13.142 2.5262 14.699-1.0133 4.0372-7.1985 9.7052-11.956 10.957-2.3304 0.61292-10.832 4.3087-18.893 8.2129-14.605 7.074-14.665 7.0924-17.344 5.3372-1.4785-0.96875-3.8038-4.1982-5.1674-7.1766-1.3636-2.9784-2.9062-5.4153-3.4281-5.4153-1.2246 0-15.55 7.3109-19.218 9.8083-2.5076 1.707-7.6861 8.201-7.6861 9.6386 0 1.0269 17.335 0.56231 23.048-0.61773 4.7067-0.97216 7.08-0.88764 13.99 0.49822l8.3213 1.669 5.0793-3.4982c3.1192-2.1483 6.2725-3.4982 8.1714-3.4982 4.8947 0 9.4461 2.0158 10.437 4.6227 0.87689 2.3064 1.2355 2.3773 12.027 2.3773 11.07 0 11.137 0.0144 13.926 3 1.6876 1.8066 3.8103 3 5.3361 3 4.3049 0 7.4907 1.772 9.3615 5.207 1.4933 2.742 1.7941 5.7545 1.7979 18.004 5e-3 17.948-0.0598 18.063-10.231 17.967-5.1585-0.0485-7.7286 0.42609-10.093 1.8638-5.9233 3.6022-2.9332 6.2241 8.0154 7.0286 4.8988 0.35996 8.4439 1.1323 9.3483 2.0367 0.99627 0.99627 1.6646 4.8529 2.1141 12.199l0.65729 10.742-4.6165 4.4234c-3.1896 3.0562-5.787 4.6114-8.4035 5.0318-2.0828 0.33464-6.7807 1.7621-10.44 3.1721-6.4515 2.4861-7.223 2.5525-25.5 2.1938l-18.847-0.36986 0.12312 15.5c0.0677 8.525 0.44519 17.108 0.83883 19.074l0.7157 3.5737-13.839 9.0544c-16.495 10.792-25.386 15.866-36.543 20.853-4.5629 2.0396-12.687 5.9619-18.054 8.7163l-9.7577 5.008-15.242-0.88937c-18.358-1.0712-41.889-1.0939-78.742-0.0761-27.275 0.75327-27.557 0.74007-34.5-1.6104zm-117.31-81.767c6.3346-1.5728 13.669-2.267 30.813-2.9166 23.38-0.88576 23.353-0.88152 52.645-8.1196l9.145-2.2597 0.39883-6.2634c0.65231-10.244 4.0175-12.22 13.308-7.8113 2.6455 1.2554 4.1164 3.2253 7.1004 9.509 2.07 4.3591 4.1807 7.9256 4.6904 7.9256s0.61502-0.7875 0.23396-1.75-1.1659-4-1.744-6.75c-0.85432-4.0638-0.75308-5.7048 0.5407-8.7641 0.87551-2.0702 2.3643-4.0605 3.3084-4.4227 0.94408-0.36228 4.9873 0.0247 8.9849 0.86005 6.4986 1.3579 7.4291 1.358 8.7861 9.7e-4 1.1558-1.1558 2.0645-1.275 3.8103-0.49958 2.1628 0.96059 2.3491 1.8328 3.2925 15.412 0.86458 12.444 1.237 14.439 2.75 14.727 1.4863 0.28303 1.7546-0.46887 1.7809-4.9901 0.0433-7.4699 1.651-19.031 3.0836-22.175 1.4765-3.2406 4.58-3.4627 8.2329-0.58938 2.5245 1.9858 2.5949 2.3221 1.9881 9.5-0.44757 5.2947-0.29822 7.4414 0.51771 7.4414 0.77168 0 1.1467-2.7588 1.1467-8.4349 0-11.453 0.89192-13.566 5.7252-13.561 3.8146 4e-3 8.8584 2.4429 13.076 6.3233l2.3008 2.1171 2.4926-3.1849c2.8962-3.7007 8.1578-5.1489 12.131-3.3388l2.5717 1.1718-0.61458 10.088c-0.69967 11.485-1.9272 13.82-7.2643 13.82-3.3425 0-7.4176-3.6451-7.4176-6.6349 0-2.5916-1.5054-1.3321-3.1838 2.664l-1.6838 4.0088 6.1838 3.2015c7.4988 3.8823 11.645 5.7605 12.716 5.7605 0.91235 0 9.9681-26.574 9.9681-29.251 0-2.1902 3.4133-2.2804 10.899-0.28823 7.8236 2.0822 8.0692 2.6185 4.3212 9.4362-3.4883 6.3452-4.1847 12.058-1.7193 14.104 0.8253 0.68494 3.4576 1.4659 5.8496 1.7356 5.3291 0.60066 5.3908 0.47758 6.2761-12.522 0.84126-12.352 1.5118-14.219 5.099-14.199 4.5916 0.0253 5.3291 1.1626 5.8822 9.0712 1.0374 14.831 2.5219 15.493 4.2926 1.9135 0.76218-5.8451 1.6352-8.8904 2.7953-9.75 2.2233-1.6475 15.394-1.6475 17.584 0 0.91381 0.6875 2.7885 5.4914 4.166 10.675 1.3775 5.184 2.9823 9.7207 3.5662 10.082 3.1025 1.9174 42.526 4.9242 65.084 4.9638 18.961 0.0333 17.999 0.43404 22.484-9.3625 3.2349-7.066 2.9057-13.399-1.0473-20.144-2.749-4.6907-4.9441-5.9005-8.9036-4.9067-1.3981 0.35091-5.5989 0.16199-9.335-0.41982-3.7362-0.5818-17.593-1.5291-30.793-2.1052-13.2-0.57606-26.675-1.3232-29.944-1.6604-5.6488-0.58266-5.8193-0.67816-3.4381-1.9258 6.163-3.2291 19.839-4.4392 50.382-4.4581 16.5-0.0102 30.5-0.34911 31.11-0.75319 3.9607-2.6204 6.7897-14.982 6.2088-27.131-0.35379-7.3998-0.81243-9.5244-2.3788-11.02-1.8134-1.7311-4.9399-1.8878-47.719-2.3912l-45.778-0.53875-1.7216 3.5826c-1.3644 2.8392-3.957 5.3773-5.9349 5.8099-0.11733 0.0257 0.44517 2.2347 1.25 4.9089 1.7476 5.807 1.8579 11.092 0.3558 17.057-0.98932 3.929-0.88259 4.6844 1 7.0777 2.4996 3.1778 2.6432 5.473 0.5906 9.4423-2.5304 4.8933-8.7844 7.0642-15.314 5.3159-1.8246-0.48856-2.187-1.0827-1.6693-2.7363 1.4525-4.639 1.6985-6.6847 1.0939-9.0938-0.55464-2.2099-1.1667-2.5185-4.9948-2.5185h-4.3627l-2.3683 6.75c-2.0256 5.7732-2.7424 6.7935-4.9539 7.0506-1.4221 0.1653-3.0666-0.2847-3.6546-1-0.58794-0.71531-1.1624-6.2506-1.2765-12.301-0.27143-14.389-0.29544-14.188 1.9602-16.444 1.9248-1.9248 1.871-1.9827-5.5558-5.9887l-7.4994-4.0451-2.9419 2.175c-2.856 2.1115-3.0469 2.1249-6.5389 0.4597-1.9784-0.94342-5.3059-3.0886-7.3945-4.767-4.7133-3.7877-10.2-4.6748-15.421-2.4933-5.312 2.2195-7.9526 2.0119-11.41-0.89707-3.5827-3.0147-5.1334-3.113-8.4128-0.53335-1.3751 1.0816-4.4733 2.2598-6.8849 2.6181-6.1053 0.90707-8.7477 2.8514-11.099 8.1669-2.0787 4.6992-2.1068 8.4263-0.18105 23.993 0.44277 3.5792 0.25212 5.7228-0.60035 6.75-1.4228 1.7144-8.6966 2.0274-13.709 0.58992-2.4036-0.68935-3.4812-0.56594-4.3658 0.5-2.8048 3.3796-8.4589 0.0849-11.84-6.8991-1.3997-2.8914-2.2991-7.3264-2.7371-13.496-0.35876-5.0542-1.0573-9.1895-1.5522-9.1895-0.49496 0-2.1827 0.66337-3.7506 1.4742l-2.8507 1.4741 3.451 9.1698c4.682 12.441 4.465 13.366-3.1503 13.439-3.3 0.0314-7.474 0.69687-9.2754 1.4788-4.5592 1.979-5.7889 0.89925-10.323-9.0638-4.1164-9.0453-4.6975-13.502-2.9569-22.68 0.68812-3.6285 0.5583-6.828-0.47805-11.781-0.7825-3.74-1.5784-6.9556-1.7687-7.1459s-22.813-0.9629-50.272-1.7169c-44.18-1.2131-50.065-1.1991-51.132 0.12221-1.9752 2.4446-3.6774 12.147-3.7374 21.303-0.05049 7.7043 0.21921 8.9892 2.6615 12.68 6.9923 10.566 22.04 15.399 38.396 12.331 7.2821-1.3659 46.723-3.4305 50.827-2.6606 1.9577 0.36727 3.5595 1.0698 3.5595 1.5612 0 0.98233-2.5088 1.3374-21 2.9716-6.875 0.60763-16.456 1.9755-21.29 3.0398-4.8347 1.0643-14.51 2.409-21.5 2.9882-14.101 1.1685-16.403 1.5143-23.861 3.5847l-5.1513 1.4301-0.68146 11.251c-0.70902 11.706 0.27022 19.22 3.0625 23.501 1.7958 2.753 2.2424 2.7596 12.608 0.18585zm218.06-37.875-4.2526-4.9382 1.1446-12.811c0.62955-7.0462 1.5858-13.374 2.1251-14.061 1.378-1.7568 8.8512-1.5577 11.513 0.3067 2.1195 1.4846 2.2223 2.2146 2.2188 15.75-3e-3 12.385-0.25618 14.607-1.9853 17.443-2.8742 4.7141-5.6204 4.2831-10.764-1.6892zm-56.922-1.1093-3.1743-0.96953 0.55373-15.241c0.40348-11.106 0.93998-15.685 1.9772-16.878 1.8796-2.1618 12.928-7.0863 14.989-6.681 4.1466 0.81536 7.5518 35.023 3.8544 38.721-1.8378 1.8378-13.43 2.506-18.2 1.0492zm25.126-1.0054c-1.4706-1.625-1.8092-3.3929-1.6218-8.4682 0.26025-7.0488 1.2179-10.2 6.5961-21.703 4.1901-8.9619 6.9396-11.263 8.7393-7.3127 0.74312 1.631 1.9664 2.5375 3.4242 2.5375 4.3571 0 5.676 2.6314 4.9717 9.9198-1.1725 12.134-2.8103 21.571-3.9403 22.702-1.537 1.5392-10.384 4.3778-13.644 4.3778-1.4668 0-3.5033-0.92421-4.5255-2.0538zm-48.532 40.304 2.1411-1.75-5.5064-7.894c-3.4089-4.887-5.6996-7.363-6.0136-6.5-1.3838 3.8034-3.5406 10.183-3.5406 10.474 0 0.57478 9.2558 7.4201 10.033 7.4201 0.40998 0 1.7089-0.7875 2.8865-1.75zm-42.411-2.2643c1.3105-2.1205-0.60537-4.9858-3.3262-4.9747-3.9656 0.0163-10.183 1.1585-10.179 1.8698 2e-3 0.34054 2.1267 1.8193 4.721 3.2861 4.6461 2.6269 7.0793 2.5767 8.7838-0.18127zm-119.34-10.641c1.4916-1.3499 1.8287-3.1838 1.8287-9.948v-8.293l-3 1.0458c-2.8121 0.98032-2.9993 1.3684-2.989 6.198 0.012442 5.8247 0.97896 12.652 1.7911 12.652 0.29723 0 1.3634-0.74474 2.3692-1.655zm408.39-16.947c-0.54279-2.1626-1.1354-2.3983-6.0309-2.3983h-5.4289l0.98905 2.8372c0.76424 2.1923 2.0594 3.1722 5.698 4.3112 4.4671 1.3983 4.726 1.3758 5.0418-0.4389 0.18308-1.0521 0.062-2.9921-0.26905-4.3112zm1.1689-38.804c-0.64278-10.774-1.7358-13.595-5.2679-13.595-2.3459 0-2.4648 0.28951-2.4648 6 0 4.6667 0.44444 6.4444 2 8 1.1 1.1 2 2.4207 2 2.9349 0 2.118 2.0319 6.0651 3.1222 6.0651 0.85229 0 1.0187-2.5638 0.61054-9.4054zm-246.81-5.4754c0.076-3.3438 0.0367-3.3743-3.5868-2.7863-5.5923 0.9075-5.8331 1.8172-2.1898 8.2728l3.3018 5.8504 1.199-3.978c0.65946-2.1879 1.2336-5.4994 1.2759-7.3588zm-166.92 5.5766c0-3.0062 0.85268-5.6488 2.8276-8.7628 1.5552-2.4522 3.1243-5.9422 3.4869-7.7554 0.6591-3.2955 0.65792-3.2966-3.0776-2.9872l-3.7369 0.30959-1.164 9c-1.6321 12.619-1.6108 14.5 0.16403 14.5 1.101 0 1.5-1.1449 1.5-4.3042zm239.25-63.724c11.091-15.997 11.209-23.932 0.74412-49.818-3.901-9.6491-7.0133-19.353-8.5808-26.754-1.3529-6.3873-2.9158-12.465-3.4732-13.507-1.8615-3.4782-5.5132-2.2008-9.3443 3.2689-1.4248 2.0342-1.5714 1.9883-10.105-3.1663-4.8129-2.9071-9.0308-4.8453-9.4956-4.3633-0.45992 0.47694-2.4716 6.9422-4.4704 14.367s-5.2185 17.325-7.1548 22c-5.9287 14.314-7.2226 19.315-7.9279 30.645-0.7162 11.504 0.73137 27.857 2.8604 32.315 2.2252 4.6585 5.2923 3.8731 12.581-3.2216 14.296-13.915 15.756-14.003 27.478-1.6528 4.7429 4.9969 9.1759 8.9012 9.8511 8.6762s3.842-4.1803 7.0375-8.7895zm-134.75-50.469c14.082-5.7091 37.06-20.788 44.421-29.151 10.344-11.751 13.091-27.739 8.0097-46.61-2.3571-8.7538-4.3757-9.9988-18.996-11.716-10.297-1.2097-7.5311-1.5845-37.213 5.0436-20.5 4.5778-32.387 12.196-35.561 22.789-2.5832 8.6221-0.58509 15.219 7.2983 24.095 5.29 5.9563 5.36 6.567 2.4985 21.787-1.2874 6.8477-1.2522 7.3908 0.64917 10 1.1058 1.5175 4.0092 3.8007 6.452 5.0739 5.7542 2.9991 12.829 2.5856 22.441-1.3115zm218.71-1.1781c3.7121-2.5466 7.7657-9.2397 7.8071-12.891 0.0397-3.4937 3.5838-9.8674 8.8041-15.833 2.98-3.4055 5.3901-7.2363 5.746-9.1336 0.80937-4.3143-1.089-16.2-3.8929-24.373l-2.2481-6.5531-15.465-6.0915c-8.506-3.3503-21.092-8.0242-27.969-10.386l-12.503-4.2948-6.497 3.078c-11.195 5.304-13.889 9.1931-19.501 28.153-2.5976 8.7758-3.1478 24.005-1.0644 29.46 2.446 6.4048 8.974 11.839 16.805 13.989 3.4447 0.94576 9.2294 3.4903 12.855 5.6546 9.5081 5.676 27.837 12.977 30.908 12.312 1.375-0.29782 4.1717-1.6883 6.2148-3.0899zm-111.44-177.23c2.3207-21.4 4.4809-39.59 4.8003-40.423 1.2908-3.3639 6.5903-3.0984 8.4758 0.42457 0.63443 1.1854 1.2869 15.463 1.6547 36.207 0.65093 36.716 0.50094 38.109-4.2332 39.297-1.3591 0.34112-2.4711 1.0875-2.4711 1.6585 0 0.68365 2.6134 0.81742 7.6509 0.3916 4.208-0.35571 10.508-0.64674 14-0.64674 3.492 0 6.3491-0.35298 6.3491-0.78439 0-0.43142-1.3523-1.5832-3.0051-2.5596-5.898-3.4841-6.2469-5.2984-7.2834-37.875-0.52005-16.346-0.64998-31.295-0.28873-33.221 0.36125-1.9256 1.7755-4.8307 3.1428-6.4556s2.1369-3.1411 1.7102-3.3693c-0.64835-0.34666-35.125 1.6782-36.094 2.1198-0.17496 0.07978 0.61254 1.452 1.75 3.0494 2.5998 3.6512 2.5961 5.5424-0.0629 32.096-1.9625 19.598-2.8664 24.336-4.3582 22.844-0.92947-0.92951-12.511-46.958-12.511-49.722 0-1.4723 0.68493-3.6548 1.5221-4.85 1.4663-2.0934 1.3872-2.1984-2.1601-2.8638-4.1511-0.77875-21.22 1.0497-22.59 2.4199-0.52333 0.52333 0.88972 1.1315 3.4162 1.4704 6.001 0.8049 8.092 3.6738 10.822 14.847 2.401 9.8282 10.245 37.432 14.731 51.842 2.689 8.6364 5.7125 13.013 8.9904 13.013 1.6598 0 2.1992-3.4735 6.042-38.909z"/></svg>
