<?xml version="1.0" encoding="UTF-8"?>
<svg version="1.1" viewBox="0 0 429 530" xml:space="preserve" xmlns="http://www.w3.org/2000/svg"><path d="m261.31 528.57c-5.381-0.53387-29.835-0.70654-56.4-0.39825l-46.9 0.54426-7.6003-2.5407c-9.8691-3.2992-17.352-7.5304-31.265-17.679-13.711-10.001-15.418-11.075-33.818-21.283l-14.517-8.0536-0.3114-4.8582c-0.20508-3.1996 0.43281-6.8482 1.8684-10.687 1.8641-4.9847 2.0781-6.9522 1.4777-13.588-1.1663-12.889-4.3968-27.712-9.1777-42.111-3.8366-11.555-5.1487-14.285-8.5542-17.798-3.5369-3.6488-4.3876-5.52-7.047-15.5-3.7454-14.055-4.158-17.27-3.2751-25.514l0.70146-6.5502 3.0755 0.61509c4.424 0.88481 9.4326 5.0632 11.875 9.9064 1.1625 2.3056 2.2261 4.3223 2.3636 4.4816 0.13745 0.15921 2.3992-0.85329 5.026-2.25 6.1691-3.2802 8.8377-3.1996 16.22 0.48932 8.1005 4.0478 8.8513 5.0483 7.407 9.8689-2.5981 8.6716-1.2942 13.154 11.758 40.419 3.9012 8.1492 7.0854 15.574 7.076 16.5-9e-3 0.92574-1.3517 3.9332-2.983 6.6832s-2.9736 5.3668-2.983 5.8152c-9e-3 0.44837 4.7618 3.0524 10.603 5.7866 10.068 4.7131 10.743 4.8904 13 3.4117 2.8174-1.8461 2.7486-1.388 0.8804-5.8594-2.255-5.397-2.0444-18.852 0.32874-20.999 4.9603-4.489 13.149-0.28189 17.671 9.0786 3.6206 7.4946 6.1388 10.382 5.0298 5.7664-2.3561-9.8055-1.3364-17.792 2.424-18.985 0.95629-0.30351 5.0427 0.14317 9.0809 0.99263 6.2299 1.3105 7.5505 1.3362 8.7172 0.1694 0.7563-0.75629 2.4272-1.174 3.7132-0.92812 2.1901 0.41866 2.3778 1.0263 2.9653 9.5992 1.3002 18.973 1.5984 20.652 3.6679 20.652 1.7233 0 1.9029-0.82141 1.9137-8.75 0.0117-8.6032 1.9024-18.564 3.9037-20.566 0.69082-0.69082 2.3474-0.41869 5.1531 0.8465l4.135 1.8646-0.6825 8.1933c-0.41088 4.9326-0.30087 8.4292 0.27645 8.786 1.353 0.83621 2.2024-4.3232 2.2024-13.377 0-9.0756 1.0335-10.578 6.6486-9.667 3.0683 0.49791 6.945 2.63 12.801 7.04 0.74571 0.56158 2.2629-0.23673 4.2762-2.25 2.5404-2.5404 3.9246-3.1176 7.4473-3.1051 7.1056 0.0251 7.2258 0.26978 6.1053 12.427-0.54054 5.8644-1.4707 11.15-2.067 11.747-1.4879 1.4879-8.836 1.3679-10.695-0.17464-0.83422-0.69235-1.5168-2.0772-1.5168-3.0774 0-3.1241-1.8465-3.1342-3.4574-0.0189-0.84843 1.6407-1.5426 3.4509-1.5426 4.0227 0 0.5718 4.0085 3.0528 8.9077 5.5133 6.7658 3.398 9.1492 4.1819 9.912 3.26 1.544-1.8659 9.1803-24.621 9.1803-27.356 0-1.3311 0.60454-2.6522 1.3434-2.9358 1.2913-0.49552 14.507 2.7499 16.689 4.0983 0.67932 0.41985 0.0214 2.5086-1.8323 5.8175-5.8325 10.411-5.3993 14.871 1.6158 16.638 6.7479 1.6991 7.7395 0.11014 8.435-13.516 0.63858-12.512 1.6349-14.353 6.9451-12.834l3.3041 0.94539 0.78175 9.4132c1.1315 13.625 2.33 13.878 3.9504 0.83356 0.56823-4.5745 1.4786-8.8797 2.023-9.5672 1.1481-1.4499 16.426-1.7382 18.615-0.3512 0.75377 0.4775 2.5538 5.2758 4 10.663 2.4087 8.972 2.8654 9.8577 5.4381 10.546 1.8545 0.49592 2.9584 0.35049 3.2496-0.42814 0.2426-0.64855 2.8981-8.5345 5.901-17.524l5.4599-16.345-2.144-2.8999c-2.024-2.7375-2.0727-3.2586-0.87091-9.3049 1.4724-7.4078 1.1673-8.3202-5.3854-16.105-7.6198-9.0523-8.4265-12.762-1.7869-8.2182 3.1731 2.1717 11.277 4.7471 11.264 3.5794-2e-3 -0.19871-1.1-2.5212-2.4394-5.1612s-2.9628-7.3649-3.6076-10.5c-1.9797-9.6252-4.0151-15.2-5.5497-15.2-2.1727 0-7.5807 8.1773-10.424 15.762-1.8595 4.9604-3.2286 7.0725-5.1956 8.0153-2.6421 1.2663-2.6553 1.324-1.2252 5.3773 1.5882 4.5016 1.8077 12.025 0.54156 18.567-0.67639 3.4951-0.50127 4.5069 1.018 5.8819 2.8759 2.6026 3.1425 4.9736 1.026 9.1225-2.557 5.0122-5.4664 6.4648-12.185 6.0837-4.2934-0.24349-5.3597-0.62873-5.0082-1.8094 0.24567-0.825 0.62314-4.0875 0.83882-7.25 0.43062-6.3141 0.19968-6.497-6.5076-5.1556-2.555 0.511-3.21 1.349-4.6668 5.9703-1.6515 5.2392-3.8046 8.4353-5.6825 8.4353-0.51071 0-1.8286-0.9-2.9286-2-1.77-1.77-2-3.3333-2-13.596 0-9.1115 0.36365-12.211 1.6974-14.469 0.93359-1.5804 1.4961-3.043 1.25-3.2501-0.24609-0.20711-3.4881-1.9707-7.2045-3.9191-6.719-3.5226-6.7706-3.5319-9.1577-1.6542-3.5641 2.8035-5.3774 2.3851-13.486-3.1116-4.0568-2.75-8.1571-5-9.1118-5s-3.7048 0.70191-6.1115 1.5598c-6.1826 2.2039-9.5535 2.0916-12.213-0.40697-2.8422-2.6701-4.65-2.6995-9.4015-0.15283-2.0524 1.1-4.9981 2-6.546 2-5.2278 0-8.3999 2.5415-10.638 8.5233-2.513 6.7166-2.5692 9.506-0.41031 20.382l1.6684 8.405-2.2784 1.845c-2.7042 2.1897-9.4135 2.4073-12.999 0.42156-2.1597-1.1962-2.7672-1.1121-5.2547 0.727l-2.8127 2.0795-3.5829-3.4416c-6.2097-5.9648-7.8501-10.224-7.7768-20.192 0.0354-4.8125-0.10654-8.75-0.31536-8.75-0.77706 0-7.3154 2.9116-7.3154 3.2576 0 0.19779 1.35 4.0587 3 8.5798 4.7081 12.9 3.9392 16.089-3.3915 14.065-2.9036-0.80172-4.269-0.60605-7.5888 1.0876-2.9524 1.5062-4.5393 1.8024-5.8627 1.0941-0.99798-0.53411-3.7453-5.1268-6.1052-10.206l-4.2907-9.2349 1.2419-8.6642c1.0779-7.5199 1.0184-9.7747-0.4498-17.072-0.93043-4.624-2.4701-9.7574-3.4214-11.407-1.0401-1.8039-7.4646-6.8874-16.113-12.75-7.911-5.3625-14.639-9.7481-14.951-9.7457-0.31207 2e-3 -2.3191 3.4162-4.46 7.5864-4.962 9.6652-6.5669 10.47-13.708 6.8786-2.9696-1.4936-7.5121-4.2554-10.094-6.1373s-8.574-4.7328-13.315-6.3353c-9.9059-3.3484-14.356-5.8595-17.948-10.129-2.3563-2.8003-2.5422-3.7611-2.5422-13.136 0-10.068 0.01936-10.148 4.16-17.173 2.288-3.882 5.4273-8.9236 6.9761-11.204l2.8161-4.1455-2.2026-2.8545c-2.8655-3.7135-4.5643-5.0852-8.3901-6.7744-3.935-1.7374-4.0923-2.2222-10.245-31.58-9.7816-46.675-10.716-56.458-6.2074-65.024 1.151-2.1868 2.96-5.6636 4.0201-7.7261s3.0694-10.074 4.4651-17.803c5.4441-30.149 14.537-49.83 33.472-72.447 11.639-13.902 18.475-18.763 48.156-34.245 15.573-8.1229 47.775-21.367 59.979-24.668 12.461-3.3707 41.164-7.0783 54.835-7.0828 10.389-0.00344 15.515 0.6286 32.5 4.0075 11.091 2.2064 21.74 4.5049 23.665 5.1079 8.1859 2.5642 38.62 19.702 49.347 27.788 33.454 25.217 48.605 41.216 64.415 68.017 6.5745 11.145 10.088 20.663 10.921 29.588 0.33322 3.5684 0.93456 6.488 1.3363 6.488 2.2498 0 20.255-9.3021 23.471-12.126l3.7969-3.3337-0.73311 5.98c-1.2955 10.568-6.516 30.638-9.2995 35.752-1.4859 2.7302-5.3013 7.3164-8.4785 10.192l-5.7768 5.2277 0.0397 29.904c0.0271 20.436 0.46405 32.279 1.3799 37.404 1.6026 8.968 1.5592 9.1011-7.8135 24-3.633 5.775-6.6056 11.539-6.6058 12.808-1.7e-4 1.2697 1.3497 7.6558 2.9997 14.192s3 13.38 3 15.209c0 6.2038-7.5602 13.831-13.651 13.773-1.0169-0.01-8.4816 3.2259-16.588 7.1903l-14.739 7.208-3.6345-1.7332c-1.999-0.95323-3.7661-1.6014-3.9269-1.4403-1.3496 1.3514-4.2079 10.831-3.4138 11.321 0.54189 0.3349 4.8032 1.8995 9.4696 3.4768l8.4843 2.8679v-2.5023c0-1.3763 0.45675-3.3558 1.015-4.3989 1.4122-2.6387 9.405-7.972 11.947-7.972 2.9878 0 9.1126 2.7201 10.549 4.6852 1.1142 1.5237 1.6055 1.4361 5.8291-1.0391 2.5368-1.4867 7.5732-5.2149 11.192-8.285s6.8012-5.3603 7.0721-5.0894c0.61755 0.61756-3.2124 32.477-4.7158 39.228-1.6476 7.3987-5.3017 13.003-11.431 17.531-5.9857 4.4219-6.2398 5.2265-4.384 13.88 0.77912 3.6329 2.5775 6.875 6.5452 11.799 9.4766 11.761 24.958 45.046 22.223 47.78-0.21886 0.21886-2.2951-0.81443-4.6139-2.2962-3.5988-2.2997-4.5303-3.6457-6.3631-9.1941-5.053-15.297-14.407-29.375-29.162-43.891-6.0201-5.9225-9.0093-8.2063-10.162-7.7641-4.2319 1.6239-5.9986 12.771-7.5531 47.655-0.90013 20.2-0.83492 24.202 0.46435 28.5 0.83136 2.75 1.2922 5.6988 1.0241 6.5528-1.0265 3.2698-31.248 21.726-54.889 33.52-22.177 11.064-25.687 11.907-42.589 10.23zm-88.453-83.213c1.856-1.3571 1.7455-1.6788-2.9232-8.5116-2.6686-3.9057-5.1936-7.3123-5.6111-7.5704s-1.6814 1.8847-2.8088 4.7616l-2.0498 5.2308 4.1731 3.7202c4.5593 4.0644 6.2925 4.5099 9.2197 2.3694zm198.2-47.579c5.6444-0.0146 5.3966-1.4852-0.5-2.968-5.3928-1.356-13.425-5.474-15.803-8.1021-1.1768-1.3003 1.2279-0.72649 9.1318 2.179 5.9011 2.1693 11.223 3.7578 11.825 3.5301 1.3479-0.50909-8.6858-10.227-12.705-12.306-4.9329-2.5509-34.698-6.642-34.698-4.7692 0 0.3162 2.0294 3.712 4.5097 7.5462 4.0701 6.2917 5.1668 7.2737 11.25 10.074 9.1833 4.227 15.077 5.8486 19.24 5.2937 1.925-0.25661 5.4125-0.47151 7.75-0.47756zm17.05-8.416c8.3352-4.3368 12.841-16.05 14.752-38.345 0.48276-5.6341 0.3676-8.25-0.3632-8.25-0.58856 0-1.3208 0.4057-1.6273 0.90155-0.30646 0.49585-3.1455 2.5855-6.309 4.6438-7.4764 4.8642-12.811 9.8802-16.379 15.4-3.4395 5.322-3.8743 13.209-1.0721 19.447l1.7486 3.8924 3.8164-9.6424c2.099-5.3033 4.1894-9.6424 4.6453-9.6424s-0.4825 4.8375-2.0854 10.75c-1.6029 5.9125-2.9169 11.088-2.9202 11.5-9e-3 1.1956 2.8605 0.8712 5.7938-0.65499zm-214.94-13.773c1.0279-4.2468 0.75305-7.822-0.60127-7.822-0.28984 0-2.2411 0.51356-4.3361 1.1412l-3.8091 1.1412 3.0198 5.9821c1.6609 3.2902 3.3741 5.5891 3.8071 5.1088s1.2969-2.9784 1.9196-5.5513zm165.45-28.651c2.9509-5.4218 4.2355-11.957 2.7796-14.141-0.83112-1.2468-2.0502-0.95201-8.0349 1.9432-3.8803 1.8772-7.0551 3.9194-7.0551 4.5384 0 2.5612 3.3083 12.116 4.7597 13.746 1.4094 1.5833 1.733 1.606 3.2557 0.22801 0.9299-0.84155 2.8626-3.6833 4.295-6.315zm-92.462-34.105c7.4726-11.172 8.5168-14.327 7.9251-23.947-0.47273-7.6859-1.4261-10.865-9.7794-32.606-2.3218-6.0432-5.2602-15.892-6.5298-21.886-2.6005-12.279-4.08-14.705-7.7652-12.732-1.2981 0.69473-3.126 2.5594-4.0619 4.1438l-1.7017 2.8807-9.0847-5.5087c-4.9966-3.0298-9.2796-5.3138-9.5177-5.0756s-2.182 6.898-4.3196 14.8c-4.4559 16.471-5.6445 19.942-9.834 28.714-4.3132 9.0312-5.5159 17.796-4.9554 36.113 0.51201 16.733 1.856 22.296 5.6802 23.509 1.6527 0.52456 3.9348-0.9947 10.973-7.305 10.212-9.1558 12.439-10.553 15.573-9.7665 1.2448 0.31243 6.1283 4.6675 10.852 9.6779s9.0447 8.828 9.602 8.4836 3.6822-4.6164 6.9444-9.4934zm81.708-37.179c-0.39008-8.7067-0.42631-16.722-0.0805-17.811 0.57123-1.7998 1.4525-1.414 9.6326 4.2167 8.9728 6.1763 9.0318 6.199 17.094 6.5651l8.0906 0.36741-0.55376-4.1286c-0.53587-3.9952-5.6804-15.251-8.1782-17.893-1.3152-1.3912-9.0113-2.0873-10.178-0.92059-0.38753 0.38754 0.0426 1.5303 0.95593 2.5395 2.8894 3.1927 1.8172 3.1922-3.3208-2e-3 -4.2295-2.6292-6.6767-3.2912-16.213-4.386-6.1774-0.70916-11.574-1.0778-11.993-0.81913-1.4294 0.88344-3.8129 10.739-3.8129 15.766 0 4.0094-0.25084 4.7677-1.2475 3.771-0.74083-0.74083-1.326-4.3758-1.4408-8.95-0.10629-4.2364-0.21993-8.715-0.25251-9.9525-0.0493-1.8704-0.6203-2.25-3.3849-2.25-2.1726 0-4.039 0.78012-5.383 2.25-2.8063 3.0691-5.2913 8.1819-5.2913 10.887 0 3.4182 10.776 21.692 15.689 26.605 4.4573 4.4573 17.824 11.677 19.594 10.583 0.62481-0.38615 0.72412-6.367 0.27293-16.437zm-220.37-11.513c10.2-3.664 18.88-8.1715 29.799-15.475 24.33-16.274 31.714-30.39 28.07-53.662-1.369-8.7446-4.02-15.127-7.0695-17.02-5.4148-3.3613-27.775-4.1329-37.134-1.2815-3.4954 1.065-11.305 3.1329-17.355 4.5954-13.342 3.2251-21.178 7.2037-27.049 13.734-8.7799 9.7654-8.2729 18.958 1.708 30.969 5.6186 6.7613 6.2814 9.2777 4.3781 16.623-2.5905 9.997-2.4223 14.712 0.63389 17.768 2.4902 2.4902 11.449 6.273 15.02 6.342 0.92972 0.018 4.9797-1.1489 9-2.593zm259.63-17.838c2.8487-3.5549 5.1794-6.7049 5.1794-7 0-1.3111-4.2934-0.31293-9.7462 2.2658l-5.9258 2.8024 2.033 4.1976c1.1182 2.3087 2.3136 4.1976 2.6565 4.1976s2.9543-2.9085 5.803-6.4634zm-76.321 0.93876c0-1.2807-4.8061-6.4395-13.397-14.38l-13.397-12.383-1.4792 2.8232c-1.3152 2.5101-1.3009 3.3888 0.12819 7.9225 2.3094 7.3262 7.5886 12.089 17.303 15.611 8.8377 3.2039 10.842 3.279 10.842 0.40612zm29.5-6.885c0-0.22529-3.3509-2.2487-7.4464-4.4964-4.0955-2.2477-8.5471-5.5509-9.8925-7.3404-4.6615-6.2002-11.677-21.746-13.669-30.289-2.359-10.117-2.5965-25.021-0.493-30.927 0.77608-2.1789 1.1667-4.2039 0.86811-4.5-0.29862-0.29605-3.5994 2.6648-7.3351 6.5798-4.533 4.7504-8.0794 9.7225-10.662 14.948-3.7539 7.5955-3.8698 8.1462-3.8698 18.382 0 12.311 1.4087 15.948 8.8255 22.784 7.6868 7.0854 15.828 10.463 32.152 13.338 11.812 2.0808 11.523 2.0426 11.523 1.5196zm45.263-3.8404c15.146-8.0466 21.616-16.32 22.508-28.784 0.42638-5.9592 0.16734-7.3104-2.2547-11.76-2.7247-5.0062-9.0397-12.015-9.979-11.076-0.27135 0.27135-1.6054 6.0808-2.9646 12.91-3.1694 15.924-8.1672 26.451-16.696 35.168-4.3807 4.4769-5.6311 6.3311-4.6774 6.936 2.598 1.6479 6.2188 0.77414 14.064-3.3938zm-21.266-0.3468c0.74824-0.74824-2.9628-3.3941-12.584-8.9723-7.505-4.3511-18.555-11.628-24.556-16.171-6.0006-4.543-11.123-8.2599-11.384-8.2599-1.5835 0 0.0823 6.1496 3.5153 12.978 6.0473 12.028 12.672 17.612 24.511 20.663 5.7575 1.4835 18.929 1.3311 20.497-0.23714zm8.8012-10.003c1.7361-10.477 1.863-10.4-17.039-10.4-8.6677 0-15.759 0.15553-15.759 0.34563 0 0.19009 4.4497 3.1309 9.8883 6.5352 8.1061 5.074 18.274 9.907 21.214 10.083 0.3312 0.0198 1.0943-2.934 1.6959-6.5642zm10.987-11.212c4.5986-9.9451 6.2014-15.175 6.2094-20.259 9e-3 -5.9571-2.9372-12.728-7.856-18.052-3.7979-4.1111-5.4086-5.1223-8.8884-5.5801-2.3375-0.3075-4.25-0.33083-4.25-0.0519 0 0.27898 1.0641 2.9257 2.3647 5.8817 4.6968 10.675 6.1076 18.395 6.1219 33.497 0.01 10.112 0.33542 13.999 1.1474 13.688 0.6237-0.23946 2.9417-4.3448 5.1511-9.1229zm-33.624-6.2361c3.9334-4.1349 10.839-13.811 10.839-15.188 0-1.3414-7.9332-0.8181-11.746 0.77479-4.614 1.9278-6.8472 3.9124-10.015 8.9l-2.5016 3.9381 3.1471 2.8119c1.7309 1.5465 3.8846 2.8119 4.7861 2.8119 0.90149 0 3.3721-1.8218 5.4904-4.0486zm18.273 3.1554c0.30359-0.49122 1.2878-5.2483 2.1871-10.571 2.0445-12.101 1.3132-14.543-4.3496-14.522-4.8784 0.0177-8.3954 0.97672-7.7012 2.1 0.30128 0.48747 1.92 0.88631 3.5972 0.88631 2.824 0 2.9994 0.20325 2.3726 2.75-0.80878 3.2862-4.1732 9.0068-9.1159 15.5l-3.6157 4.75h8.0368c4.4202 0 8.2852-0.40191 8.5888-0.89313zm-34.797-4.1707c-1.8888-9.444 15.006-22.809 30.043-23.767 4.2145-0.26835 6.3025-0.80069 6.0397-1.5398-0.22095-0.6213-1.2372-3.4921-2.2583-6.3796-2.1465-6.0697-2.9745-6.299-10.015-2.7726-10.122 5.0698-20.417 15.533-25.816 26.239-3.2057 6.357-3.2632 7.7268-0.40818 9.7265 2.9968 2.099 3.1205 2.0218 2.4147-1.5071zm-49.52-8.9746c0.87855-10.223 4.3695-17.729 13.462-28.945 15.747-19.425 27.358-28.476 39.778-31.009 3.2213-0.65686 5.4713-1.541 5-1.9647-3.3765-3.0358-20.31-4.1046-30.479-1.9238-4.205 0.90181-6.1129 2.0505-9.8102 5.9068-2.5245 2.633-6.2362 7.5701-8.2483 10.971-4.2536 7.1903-15.83 39.677-15.798 44.333 0.0251 3.629 3.661 12.32 4.7136 11.267 0.38502-0.38501 1.0069-4.2713 1.382-8.6362zm47.882-6.645c4.675-5.8163 8.674-11.039 8.8866-11.606 0.25896-0.6903-2.834-0.81897-9.3686-0.38973-7.2441 0.47585-11.14 1.275-15.137 3.1045-4.8296 2.2111-5.3814 2.7831-5.3814 5.5789 0 2.3784 1.2169 4.4019 5.1451 8.5553 2.8298 2.9921 5.6423 5.4158 6.25 5.386s4.9299-4.813 9.6049-10.629zm76.053-11.854c-5.8213-21.219-16.64-30.659-38.959-33.996-5.6827-0.84969-13.043-2.1773-16.356-2.9502-4.7935-1.1183-6.6253-1.1599-8.9682-0.20392-2.9356 1.1978-2.8848 1.2391 17.393 14.131 22.047 14.017 32.794 21.597 39.828 28.091 2.4799 2.2897 5.4089 4.6546 6.5089 5.2552 2.9194 1.5942 3.0673-1.1638 0.55346-10.327zm-57.553-10.511c3.3-1.129 9.0244-2.3191 12.721-2.6447l6.7209-0.59208-4.4506-2.8225c-11.807-7.4877-32.64-18.892-34.511-18.892-3.5687 0-12.685 9.6179-16.517 17.425-3.3712 6.8694-5.7309 15.715-4.8232 18.081 0.43388 1.1307 26.027-5.4804 40.859-10.555zm73.385 9.1073c4.4361-2.2631 9.263-7.4676 12.12-13.068 3.6536-7.1616 8.4425-29.99 6.2913-29.99-0.38714 0-4.9192 2.0506-10.071 4.557-7.7488 3.7696-10.824 6.0134-17.796 12.986-8.8904 8.8904-9.8309 11.011-6.8022 15.335 2.613 3.7305 6.852 2.249 13.207-4.6158l5.3334-5.7614-3.3226 6.4374c-2.4706 4.7867-4.407 7.0945-7.5518 9-2.9274 1.7738-4.2389 3.2552-4.2608 4.8126-0.0282 2.0076 0.45755 2.25 4.5082 2.25 2.5205 0 6.2323-0.86342 8.3447-1.9411zm-198.89-53.809c-1e-3 -0.4125 2.2887-16.95 5.0893-36.75 4.3848-31 5.3703-36.241 7.0955-37.735 2.2833-1.9778 5.3292-1.0003 6.1836 1.9844 0.27567 0.96308 0.81132 14.838 1.1903 30.834l0.68911 29.083-7.552 7.3344h20.653c11.359 0 20.653-0.39504 20.653-0.87788 0-0.48283-0.73982-2.6203-1.644-4.75-1.3262-3.1235-1.7387-8.7276-2.1337-28.988-0.26933-13.813-0.17171-27.236 0.21692-29.827 0.60461-4.0318 1.1291-4.8593 3.6337-5.7324 1.6099-0.56122 2.9271-1.4264 2.9271-1.9226 0-0.97428-52.274-1.2952-53.242-0.3269-0.3164 0.3164-0.20933 1.8512 0.23793 3.4108 1.3296 4.6359-3.8871 47.988-6.0644 50.397-0.85865 0.9502-1.4519-0.9484-8.3884-26.845-2.4988-9.3288-4.5432-17.959-4.5432-19.177s1.1857-3.1486 2.6349-4.2885l2.6349-2.0726-12.385 0.05881c-10.031 0.04763-12.012 0.28525-10.424 1.25 4.8495 2.9454 7.4234 6.5946 9.3606 13.271 1.1043 3.8059 5.0777 17.938 8.8298 31.405 5.5426 19.893 7.3597 25.097 9.6888 27.75 2.7254 3.104 4.6627 4.1503 4.6569 2.515zm33.593-7.56c-2.0848-1.5245-2.9979-11.098-4.1636-43.659-0.63373-17.701-0.5266-20.23 0.95248-22.487 2.2353-3.4116 7.3539-3.5977 8.0697-0.29342 0.82308 3.7994 2.5507 39.583 2.5507 52.832 0 12.761-0.57964 14.918-4.0089 14.918-0.88488 0-2.4151-0.5895-3.4004-1.31zm14.729 290.56-4.4631-4.75 0.63826-11.86c0.86706-16.112 1.1138-16.64 7.7801-16.64 2.9286 0 5.8648 0.54 6.5248 1.2 0.82775 0.82775 1.2 5.9009 1.2 16.354 0 14.7-0.0735 15.233-2.4522 17.8-1.3487 1.4553-2.9725 2.646-3.6084 2.646s-3.1646-2.1375-5.6193-4.75zm-49.82-0.80515c-0.55-0.15815-3.1913-0.58357-5.8695-0.94538l-4.8695-0.65785 0.41156-15.318c0.30795-11.462 0.77858-15.764 1.8695-17.09 1.8876-2.2938 13.793-7.7115 15.504-7.055 0.72275 0.27734 1.5832 2.668 1.9122 5.3125 0.32896 2.6445 1.2627 6.8332 2.075 9.3082 2.535 7.7242 1.6446 23.336-1.4201 24.899-1.8748 0.95631-8.1524 1.9658-9.613 1.5458zm18-1.6232c-2.7198-2.1394-2.7584-2.3201-2.1585-10.099 0.33596-4.3566 1.2286-9.1138 1.9837-10.572 0.75506-1.4578 2.0833-4.0006 2.9517-5.6506 0.86837-1.65 2.078-4.9081 2.688-7.2403 0.86409-3.3034 1.6877-4.3855 3.7275-4.8975 1.7874-0.4486 2.9702-0.17596 3.7271 0.85906 0.60978 0.83393 2.5952 1.8427 4.412 2.2418 1.8168 0.39904 3.5702 1.421 3.8963 2.271 0.68821 1.7935-1.6322 25.737-2.8006 28.897-0.57242 1.5484-2.6957 2.7108-7.763 4.25-3.8363 1.1652-7.182 2.1186-7.435 2.1186s-1.7061-0.98026-3.2292-2.1784z"/></svg>
