<?xml version="1.0" encoding="UTF-8"?>
<svg version="1.1" viewBox="0 0 429 530" xml:space="preserve" xmlns="http://www.w3.org/2000/svg"><path d="m158 528.12c-12.715-3.7868-21.542-8.7683-42.5-23.986-4.95-3.5942-16.538-10.704-25.75-15.8l-16.75-9.2653v-4.7801c0-2.629 0.94906-7.5225 2.109-10.874 1.7648-5.0994 1.9962-7.3446 1.4176-13.754-1.1343-12.565-4.0412-25.802-8.9942-40.955-3.9867-12.197-5.3083-15.011-9.0028-19.171-3.1904-3.5922-4.6301-6.278-5.47-10.204-0.62696-2.931-2.0219-8.1889-3.0998-11.684-2.0479-6.6409-2.3921-11.712-1.324-19.505 0.57244-4.1764 0.89689-4.6389 3.25-4.633 1.4377 4e-3 3.9253 0.87096 5.5278 1.9274 2.7767 1.8305 8.5862 9.4197 8.5862 11.216 0 1.5232 3.1265 0.89515 5.7271-1.1505 3.8855-3.0564 10.275-2.6492 17.316 1.1035 3.2025 1.7069 6.0972 3.819 6.4328 4.6934 0.33557 0.87447 0.07721 3.6693-0.57413 6.2107-1.8693 7.2935-0.48225 12.166 9.2499 32.492 5.0033 10.45 9.3164 20.232 9.5846 21.738 0.34523 1.9385-0.42116 4.1545-2.6241 7.5876-1.7115 2.6671-3.1118 5.2873-3.1118 5.8226s4.9181 3.2589 10.929 6.0524l10.929 5.0791 2.0947-2.2297c1.9508-2.0765 1.9904-2.4297 0.57704-5.1399-0.99709-1.912-1.5198-5.74-1.5238-11.16-5e-3 -6.9218 0.31584-8.572 1.9938-10.25 2.5693-2.5693 4.5479-2.52 10.026 0.25 3.8767 1.9602 4.9516 3.2802 8.3469 10.25 3.8615 7.9267 6.0368 8.8014 3.6114 1.4521-1.5314-4.6402-0.79121-12.574 1.3752-14.74 1.4029-1.4029 2.4908-1.4343 9.6147-0.27737 6.3677 1.0341 8.3403 1.0493 9.5164 0.0733 0.81683-0.6779 2.5596-0.96114 3.878-0.63024 2.1936 0.55057 2.4477 1.252 3.0292 8.3617 1.7864 21.842 1.6852 21.261 3.7037 21.261 1.7189 0 1.8985-0.82142 1.8985-8.6844 0-4.9885 0.69445-11.159 1.6318-14.5 1.809-6.4474 3.054-7.0637 8.5393-4.2271l3.0718 1.5885-0.68173 7.8152c-0.44847 5.1411-0.31893 8.0395 0.37859 8.4706 1.3701 0.84678 1.2212 1.6891 1.9375-10.963 0.60121-10.619 0.70525-11.012 3.0038-11.337 4.3494-0.61508 8.8437 0.84609 13.472 4.3798l4.5766 3.4945 1.5841-2.4177c2.3025-3.514 6.8525-5.1306 11.32-4.0221l3.6664 0.90973-0.34431 9.4962c-0.50019 13.795-1.9858 16.001-9.7909 14.537-2.7976-0.52483-3.5458-1.1958-4.0293-3.6134-0.87296-4.3648-2.08-4.4744-3.8052-0.34543-0.84164 2.0143-1.5303 3.796-1.5303 3.9593 0 0.81241 17.225 9.5505 18.192 9.2284 1.5386-0.51288 9.6849-23.498 9.7532-27.519 0.0408-2.4024 0.51161-3.2533 1.8052-3.2628 1.4892-0.0109 16.23 3.0667 17.02 3.5534 0.14864 0.0916-1.3541 3.587-3.3394 7.7675-4.3461 9.1516-4.1458 12.898 0.78119 14.616 4.0626 1.4162 7.4916 1.3645 8.4134-0.12694 0.40888-0.66158 1.0724-5.8123 1.4745-11.446 0.96414-13.508 1.2722-14.355 5.2175-14.336 1.7504 8e-3 3.6786 0.34592 4.2848 0.75 0.60621 0.40408 1.4173 4.9958 1.8025 10.204 1.0168 13.749 2.0371 13.914 3.7545 0.60978 0.62248-4.8222 1.7646-9.3598 2.5547-10.15 0.97825-0.97825 3.7371-1.429 8.7467-1.429 9.4472 0 10.614 1.0375 13.423 11.932 2.4336 9.4394 3.5372 11.298 6.4502 10.866 1.6482-0.2447 3.0265-3.351 7.6759-17.298l5.667-17-4.1569-5.6406 3.8138-18.68c5.5294-27.083 6.3912-28.297 17.208-24.25 7.5168 2.8124 10.458 2.7452 10.458-0.23872 0-2.7461 1.3027-4.4444 6-7.8218 5.1871-3.7296 6.3448-3.9206 12.514-2.0647l5.6358 1.6953-0.66608 4.448c-1.2688 8.4732-12.144 38.868-16.466 46.021-6.911 11.438-6.9037 11.394-9.1014 55.053-0.97989 19.466-0.92186 21.926 0.6075 25.748 0.92999 2.3243 1.4312 4.9027 1.1138 5.7298-1.3222 3.4457-34.244 23.424-57.138 34.674-21.05 10.344-20.869 10.309-45.924 8.7972-19.523-1.178-52.215-0.98031-85.576 0.51746-7.1402 0.32057-11.94 0.0426-15-0.86878zm16.453-81.78c1.4009-0.63828 2.547-1.5586 2.547-2.0452 0-0.95125-9.81-15.794-10.439-15.794-0.20775 0-1.2693 2.64-2.359 5.8667l-1.9812 5.8668 4.6394 3.5698c5.5503 4.2706 4.5322 3.9305 7.5924 2.5362zm81.524-38.867-4.2961-5.1313 1.0173-12.785c0.55951-7.032 1.333-13.296 1.7188-13.92 0.99757-1.6141 9.8276-1.408 12.142 0.28342 1.7286 1.2631 1.9774 2.9332 2.2726 15.25 0.31569 13.172 0.21867 13.998-2.0344 17.332-3.5275 5.2184-5.769 5.0055-10.821-1.0279zm38.801 2.1596c-2.1212-0.4922-2.5111-0.96292-1.7653-2.1317 0.97816-1.533 1.3805-11.274 0.50195-12.152-0.26719-0.26718-2.403-0.22968-4.7463 0.0833-4.1096 0.54895-4.3316 0.76406-6.2642 6.0707-1.102 3.0258-2.3677 6.0633-2.8127 6.75-1.2723 1.9634-4.4278 1.4624-6.1343-0.97405-2.1164-3.0215-2.1589-23.1-0.0567-26.777 0.78602-1.375 1.4451-2.8318 1.4646-3.2374 0.0195-0.40558-3.165-2.3491-7.0766-4.319l-7.1121-3.5816-2.2024 2.069c-1.2113 1.138-2.8532 2.069-3.6486 2.069-0.79542 0-4.4956-2.0457-8.2226-4.5459-9.3489-6.2717-10.243-6.5042-16.603-4.3163-7.1531 2.461-8.7586 2.3598-12.921-0.81479l-3.5098-2.6771-3.7343 2.1492c-2.0539 1.1821-5.6919 2.4484-8.0846 2.8142-6.0774 0.92895-7.5542 1.8901-9.8657 6.421-2.9775 5.8364-3.4245 11.55-1.5955 20.394 0.88599 4.2842 1.6109 8.6255 1.6109 9.6474 0 3.8613-8.6579 5.5552-14.989 2.9327-2.6171-1.084-3.3238-1.0312-4.8651 0.36364-2.4272 2.1966-3.4756 2.0666-6.956-0.86187-5.2979-4.4578-7.6065-10.808-7.5009-20.633l0.0928-8.6267-3.8908 1.5284c-2.14 0.84063-3.8909 1.8079-3.8909 2.1495s1.35 4.127 3 8.412c1.65 4.285 3 9.0738 3 10.642 0 2.786-0.14242 2.8605-6.25 3.2684-3.4375 0.22956-7.7135 1.042-9.5022 1.8054-2.964 1.265-3.4131 1.2134-5.0687-0.58206-0.99907-1.0835-3.5445-5.7422-5.6565-10.353l-3.84-8.3825 1.2748-7.85c1.3384-8.2416 0.9623-13.583-1.6226-23.041-1.9465-7.1225-4.2456-9.3604-20.835-20.28l-13-8.5568-2.3323 5.2463c-3.1318 7.0447-6.8376 11.746-9.2584 11.746-2.6006 0-9.0841-3.3283-15.749-8.0848-2.937-2.096-9.012-5.0029-13.5-6.4599-8.7089-2.8272-17.254-7.9173-19.583-11.665-2.0922-3.3664-1.6236-21.056 0.66023-24.922 0.93185-1.5775 2.0472-2.8682 2.4787-2.8682 0.43142 0 0.78439-0.45 0.78439-1s-1.1294-1-2.5098-1c-3.6163 0-5.5045-2.7814-8.1805-12.05-1.3002-4.5037-3.6997-11.622-5.3323-15.819-3.618-9.301-3.6796-11.122-0.47743-14.13 1.8217-1.7114 2.5-3.3866 2.5-6.1743 0-4.786-2.4422-7.3867-7.7839-8.2892l-3.9954-0.67502-0.69495-24.181c-0.38222-13.299-0.54438-27.106-0.36034-30.681l0.33461-6.5 8.7854-3-0.65275-19.013c-0.75759-22.067-0.9229-21.547 8.238-25.925 5.9662-2.8516 6.1402-3.0503 8.7434-9.9857 10.065-26.816 29.943-51.662 51.386-64.23 25.698-15.062 45.067-23.952 73-33.504 21.457-7.3376 61.222-12.359 79.162-9.9958 13.922 1.8337 42.567 8.8961 48.838 12.041 32.967 16.532 57.911 34.609 81.109 58.781 8.3951 8.7474 22.057 27.807 27.182 37.921 3.2689 6.4508 4.4008 7.3252 10.79 8.3352 2.9516 0.46658 5.8012 1.5633 6.4824 2.4948 2.1968 3.0043 4.4297 30.82 4.4334 55.226 2e-3 15.675-0.0666 16.211-2.3655 18.424l-2.368 2.2791 2.368 5.3544c3.0229 6.8352 2.9901 12.118-0.13204 21.297-1.375 4.0427-2.5 7.4849-2.5 7.6495s1.2942 0.96844 2.876 1.7864c3.0434 1.5738 6.124 7.6684 6.124 12.116 0 1.3812-0.90151 5.1874-2.0034 8.4582-1.5289 4.5386-1.9434 8.0744-1.75 14.931 0.33544 11.895-0.74162 13.145-11.92 13.829-4.3048 0.26344-8.3895 0.92818-9.077 1.4772-1.8733 1.496-1.4987 4.9366 2.133 19.593 1.818 7.3367 3.0829 14.504 2.8109 15.927-0.81669 4.2722-8.245 10.898-13.147 11.726-2.3252 0.39284-10.44 3.784-18.033 7.5358l-13.806 6.8216-3.2726-1.6747c-2.4529-1.2553-3.7648-2.9896-5.238-6.9247-1.081-2.8875-2.391-5.25-2.911-5.25-1.8086 0-19.284 9.1189-21.544 11.242-3.026 2.8428-6.6945 9.2182-9.2788 16.125-1.799 4.8082-2.4786 5.6327-4.6426 5.6327-2.0062 0-2.3936 0.36513-1.8567 1.75 2.8815 7.433 3.441 12.516 2.1367 19.414-1.3022 6.8869-1.2827 7.0635 1.0358 9.3821 2.9602 2.9602 2.9801 5.2425 0.083 9.5415-3.6106 5.3577-7.6761 6.7301-14.942 5.0441zm-119.28-33.112c0.90976-2.739 1.3786-5.848 1.0419-6.9088-0.54154-1.7062-1.0403-1.8116-4.3237-0.91294-2.0414 0.5587-4.0059 1.1925-4.3656 1.4085-0.60164 0.36121 4.868 11.393 5.6487 11.393 0.18949 0 1.0889-2.241 1.9986-4.98zm71.762-60.552c2.6157-3.2357 5.7481-8.3772 6.9609-11.426 4.6404-11.664 1.7758-34.827-4.5012-36.397-1.2185-0.30471-10.315-1.7395-20.215-3.1884-18.023-2.6378-28.891-2.7799-34.998-0.45772-3.4776 1.3222-4.5895 6.3421-5.2054 23.501-0.80341 22.383 1.4465 33.5 6.7802 33.5 0.97151 0 4.8393-2.9932 8.595-6.6515 13.626-13.273 14.896-13.336 26.834-1.3433 4.9299 4.9529 9.4205 8.8568 9.9792 8.6755 0.55862-0.18134 3.1558-2.9771 5.7715-6.2129zm-202.19-48.976c6.29-0.82971 18.636-2.1864 27.436-3.0148s26.8-2.8246 40-4.4361c13.2-1.6114 30.75-3.6533 39-4.5376s25.575-3.8256 38.5-6.5363c23.295-4.8855 57.42-10.941 61.75-10.958 5.8688-0.0226 0.65166 3.041-10.775 6.3274-3.0387 0.87394-9.7731 3.5749-14.965 6.0022l-9.4404 4.4132 3.9654 0.58287c6.8391 1.0053 15.144 1.6246 42.965 3.2043 14.85 0.84318 38.7 2.6333 53 3.9781 26.345 2.4775 84.759 5.0105 85.288 3.6983 0.15851-0.3933 2.2445-5.2151 4.6355-10.715 2.391-5.5 4.0037-10.373 3.5838-10.828-1.2891-1.398-28.037-6.4163-56.981-10.69-15.14-2.2357-28.416-4.4243-29.502-4.8635-4.5711-1.8479 33.784-3.0339 65.114-2.0135 11.015 0.35876 12.342 0.21192 14.334-1.586 2.037-1.8382 2.1715-2.7214 1.8613-12.225-0.39362-12.058-1.06-13.113-10.358-16.398-4.4307-1.565-9.0789-2.2094-17.976-2.4919-6.6-0.20959-34.275-1.085-61.5-1.9455-27.225-0.86041-51.507-1.8075-53.96-2.1046-3.9401-0.47721-4.2315-0.67505-2.5-1.6974 1.446-0.85376 18.744-1.0665 65.961-0.81136 57.253 0.30941 64.99 0.16409 73.383-1.3783l9.3819-1.7242-0.71292-19.122c-0.83301-22.343-2.5065-32.868-5.7866-36.395l-2.2659-2.4365-18 0.48484c-11.645 0.31367-24.531 1.4156-36.5 3.1211-42.289 6.0262-55.251 7.6321-69.5 8.6108-8.25 0.56666-24.9 1.913-37 2.9919s-30.1 2.4299-40 3.0024c-9.9 0.57242-22.05 1.4734-27 2.0022-10.925 1.1671-16.5 1.2496-16.5 0.2441 0-0.41406 2.7544-2.4746 6.121-4.579 3.4099-2.1315 5.7352-4.2018 5.25-4.6742-1.6724-1.6282-41.732-5.4954-98.69-9.5271-33.679-2.3839-37.024-2.4722-39.217-1.0349-2.3858 1.5632-2.3949 1.6389-1.7921 14.82 0.33328 7.2866 0.66941 13.337 0.74695 13.445 0.07754 0.10799 29.378 4.0615 65.111 8.7857 71.28 9.4235 71.47 9.4512 71.47 10.4 0 0.84127-19.393-0.39282-37.547-2.3894-30.45-3.3488-103.59-4.1434-107.3-1.1658-1.0206 0.81868-1.1899 2.7946-0.69665 8.1276 0.42448 4.5892 0.11565 10.342-0.88575 16.498-1.9504 11.991-1.0429 16.377 3.8734 18.722 3.1058 1.4811 4.225 1.4462 15.701-0.48957 14.075-2.3742 57.14-4.1531 58.22-2.405 1.1719 1.8962-1.9251 3.0547-13.864 5.186-11.178 1.9955-36.856 7.7999-46 10.398-3.8317 1.0887-4.0376 1.3584-4.8944 6.4089-0.4919 2.8998-0.7169 5.4484-0.5 5.6636 0.86099 0.85426 53.582-10.509 83.619-18.023 15.951-3.9904 23.14-4.3552 11.776-0.59751-3.85 1.2731-10.825 4.1471-15.5 6.3866-4.675 2.2396-24.837 9.3598-44.804 15.823-19.967 6.4629-36.577 12.023-36.91 12.357-0.56646 0.56646 0.78037 6.0319 2.7871 11.31 1.0401 2.7358 0.52699 2.7084 14.991 0.80048zm156.23-152.24c1.539-3.607 2.9066-14.361 6.1996-48.75 1.6774-17.517 2.5034-20.614 6.1321-22.992 2.2327-1.4629 2.6624-1.4496 5.3989 0.16686l2.9731 1.7563v31.213c0 32.514-0.0774 33.147-4.2321 34.63-0.69732 0.24881-1.0132 0.73118-0.70187 1.0719 0.64056 0.70119 51.894-1.9722 52.669-2.7472 0.27566-0.27566-0.65585-0.7916-2.07-1.1465-3.5729-0.89673-3.8474-3.7492-3.4763-36.121 0.3058-26.673 0.35409-27.226 2.6495-30.329 1.2859-1.7381 2.1588-3.3393 1.9398-3.5584-0.52379-0.52379-71.018 2.4621-71.588 3.0322-0.24134 0.24134 0.80499 1.917 2.3252 3.7236l2.764 3.2848-0.6999 20.16c-0.38494 11.088-1.0466 21.441-1.4703 23.007l-0.77044 2.8477-1.1447-3.5c-2.831-8.656-10.181-38.826-10.187-41.816-4e-3 -1.8237 0.48623-4.2368 1.0887-5.3625 1.0762-2.0109 0.94902-2.0341-7.25-1.3224-4.59 0.3984-8.5347 0.90081-8.766 1.1165s0.52018 1.4028 1.67 2.6382c2.9174 3.1343 4.2058 6.8399 12.255 35.246 8.4116 29.686 10.896 37.5 11.926 37.5 0.42162 0 1.4866-1.6875 2.3666-3.75zm31.334-8.5c-0.77964-2.9092-0.59053-48.261 0.23659-56.74 0.51423-5.2716 0.98618-6.5576 2.5133-6.8484 1.0341-0.19688 2.2647 0.24881 2.7347 0.99042s0.86141 15.197 0.86983 32.123l0.01531 30.775-2.5651 0.97525c-3.3148 1.2603-3.1065 1.3301-3.8046-1.2748zm17.432-0.17511c-1.489-1.7942-1.4946-54.255-6e-3 -59.782 1.2274-4.5581 2.8186-5.6848 4.5958-3.2542 1.0579 1.4468 1.3483 8.1086 1.3483 30.93 0 24.707-0.23439 29.421-1.5567 31.309-1.814 2.5898-2.7519 2.7605-4.3811 0.7974zm-51.44 300.22-2.8782-1.0471 0.72524-15.624c0.39888-8.5932 0.96079-16.006 1.2487-16.473 0.85913-1.3942 12.615-6.6489 14.876-6.6498 1.8254-6.9e-4 2.3294 1.1204 3.933 8.7492 3.2023 15.234 3.1397 27.441-0.15767 30.738-1.779 1.779-13.16 1.9758-17.747 0.30693zm25.246-0.92769c-1.9557-1.9557-2.0766-2.8054-1.457-10.236 0.50002-5.9957 1.3319-9.2224 3.1987-12.408 1.3876-2.3678 3.1917-6.5571 4.0091-9.3096 1.9126-6.4404 5.2098-8.3639 8.7062-5.0792 1.2675 1.1908 2.9731 2.165 3.7901 2.165 2.6029 0 3.8856 2.2719 3.8856 6.8823 0 7.3747-2.14 22.472-3.4937 24.647-1.2648 2.0322-10.281 5.471-14.344 5.471-1.1892 0-3.1218-0.95972-4.2948-2.1327z"/></svg>
