<?xml version="1.0" encoding="UTF-8"?>
<svg version="1.1" viewBox="0 0 429 530" xml:space="preserve" xmlns="http://www.w3.org/2000/svg"><path d="m258.16 407.95-4.3446-5.0449 1.1434-12.205c0.62884-6.7125 1.3767-12.992 1.662-13.955 0.67963-2.2932 8.975-2.4251 12.161-0.1933 2.1177 1.4833 2.2225 2.2206 2.2225 15.632 0 12.514-0.23093 14.449-2.0816 17.443-2.9674 4.8014-5.5268 4.4024-10.763-1.6779zm38.73 2.3427c-2.6126-0.40321-2.6135-0.40684-1.1797-4.5686 1.7532-5.0887 0.95462-11.196-1.3484-10.312-0.83644 0.32097-2.8098 0.58358-4.3853 0.58358-2.5904 0-3.0732 0.57248-5.0463 5.9839-2.6553 7.2825-4.1004 8.7131-7.3197 7.2463-2.1059-0.95951-2.4037-1.9437-3.0367-10.035-0.74275-9.4946-0.16172-14.995 2.0447-19.357 1.3427-2.6544 1.3253-2.673-6.0728-6.4814l-7.4194-3.8194-2.3753 2.2314c-1.3064 1.2273-2.8735 2.2314-3.4826 2.2314s-4.18-2.0708-7.9356-4.6017c-9.6003-6.4699-10.291-6.6475-16.945-4.3582-7.3502 2.5288-8.621 2.4726-12.201-0.54003-3.5762-3.0092-4.7804-3.0814-8.667-0.5195-1.6416 1.082-5.0166 2.2616-7.5 2.6212-6.2788 0.90929-7.4826 1.7259-9.7531 6.6165-3.0717 6.6163-3.4383 10.716-1.7069 19.089 2.229 10.778 1.8195 12.908-2.7703 14.406-3.0039 0.98059-4.6126 0.94258-8.4044-0.19859-4.0652-1.2234-4.9647-1.2185-6.7575 0.0373-3.2414 2.2704-5.2372 1.7401-8.5425-2.2697-4.5864-5.5641-6.4179-12.126-5.8508-20.961 0.41868-6.5238 0.28238-7.3426-1.1268-6.7687-0.88168 0.35909-2.8681 1.1105-4.4143 1.6698-2.0392 0.73762-2.6292 1.4648-2.1482 2.6477 3.7586 9.2442 5.4594 14.744 5.4594 17.654v3.4772h-5.0497c-2.7773 0-6.4258 0.71162-8.1077 1.5814-5.39 2.7873-7.4179 1.3743-11.876-8.2754-4.2733-9.2496-4.4373-10.366-3.3892-23.078 0.71473-8.6678-1.21-20.277-4.1236-24.87-1.3081-2.0623-13.728-11.092-25.699-18.683l-5.7452-3.6434-3.423 6.7345c-5.1801 10.191-5.6314 10.636-9.965 9.8233-2.0342-0.38162-7.2865-3.137-11.672-6.123-4.8056-3.2723-10.982-6.412-15.548-7.9031-9.2116-3.0086-15.303-6.4677-18.884-10.724-2.5831-3.0698-2.6796-3.5968-2.3554-12.862 0.31527-9.0101 0.56938-10.025 3.7718-15.069 1.8886-2.9742 4.9578-8.2232 6.8205-11.664l3.3867-6.2567-2.3205-2.9122c-1.2763-1.6017-4.4321-4.0877-7.013-5.5244s-4.9296-3.3856-5.2194-4.331c-1.3288-4.3351-9.8249-45.666-12.077-58.754-1.3809-8.0231-2.5107-17.875-2.5107-21.894 0-6.6561 0.38969-8.0703 4.3771-15.885 3.3376-6.541 4.6577-10.55 5.5589-16.882 2.7221-19.127 9.8043-40.661 17.972-54.646 5.4663-9.3597 17.178-24.337 25.146-32.158 13.654-13.402 51.266-32.612 91.021-46.488 17.557-6.1281 56.242-11.474 73.454-10.151 17.809 1.3689 47.796 8.9455 57.909 14.631 3.8839 2.1837 11.838 6.4907 17.676 9.5712 16.65 8.7853 49.564 35.343 63.129 50.937 13.439 15.449 27.376 38.767 30.185 50.5 3.2939 13.762 7.0491 71.299 6.2048 95.07-0.43091 12.132-0.19279 19.206 0.88909 26.413 0.8127 5.4138 1.4776 10.374 1.4776 11.022 0 0.64816-2.4869 4.9624-5.5264 9.5871s-6.6771 10.74-8.0834 13.589l-2.557 5.1807 3.6064 14.735c3.0253 12.361 3.4326 15.262 2.5277 18.003-1.4832 4.494-7.9754 10.128-12.657 10.984-2.0953 0.38311-9.5407 3.5585-16.545 7.0565-7.0046 3.498-14.014 6.36-15.576 6.36-3.4232 0-6.4312-3.0299-8.3154-8.376-0.75134-2.1318-1.8986-4.0803-2.5494-4.33-0.65081-0.24973-5.77 1.902-11.376 4.7816-9.3408 4.798-10.512 5.7294-14.011 11.143-2.1 3.2492-4.5576 8.1334-5.4612 10.854-0.96986 2.92-2.5305 5.4076-3.8094 6.0723-1.1916 0.61927-2.3056 1.2416-2.4756 1.383s0.45925 2.8929 1.3984 6.1145c1.4883 5.1051 1.5496 6.8014 0.47741 13.206-1.1663 6.9669-1.1221 7.4636 0.85156 9.5644 2.5275 2.6904 2.6491 5.8181 0.37571 9.6666-2.822 4.7772-7.6556 6.4138-15.409 5.2173zm-117.9-38.38c8e-3 -1.4208-0.21967-2.8182-0.50671-3.1052-0.80398-0.80398-8.4781 1.4802-8.4781 2.5234 0 0.50692 1.4246 3.4116 3.1658 6.4549l3.1658 5.5332 1.3191-4.4114c0.72548-2.4263 1.3259-5.574 1.3342-6.9948zm71.39-57.097c8.3877-11.71 9.089-13.364 9.0404-21.32-0.0522-8.5464-1.6985-15.605-5.9756-25.622-5.5462-12.989-8.2972-21.429-10.394-31.888-1.1104-5.5389-2.4908-10.953-3.0676-12.03-1.6504-3.0839-5.402-2.4261-8.6314 1.5133l-2.847 3.4729-8-4.9443c-4.4-2.7194-8.4886-4.9572-9.0858-4.9729-0.59719-0.0157-2.7512 6.3537-4.7868 14.154-2.0355 7.8006-5.9442 19.481-8.686 25.956-5.3708 12.684-6.8561 20.114-6.9105 34.571-0.0384 10.223 1.7392 23.064 3.6051 26.041 2.3067 3.6805 5.0537 2.6674 13.467-4.9668 9.7588-8.8546 13.233-11.129 15.77-10.323 1.0662 0.33841 5.8031 4.6868 10.526 9.663 4.7233 4.9763 9.0122 8.8968 9.531 8.7124 0.51877-0.18444 3.4186-3.7913 6.4441-8.0152zm-133.35-51.695c16.143-6.7824 40.631-23.629 46.304-31.856 5.513-7.9944 7.6232-14.883 7.6492-24.97 0.0396-15.358-3.2425-25.992-8.6736-28.102-5.6725-2.2032-20.453-3.3716-27.826-2.1997-7.8741 1.2515-23.731 5.0367-33.514 7.9999-12.09 3.6623-23.136 12.571-24.296 19.596-1.7046 10.32-0.18528 15.453 6.9378 23.435 6.2343 6.9869 6.258 7.1452 3.3202 22.153-1.6378 8.3662-0.72846 10.701 5.8088 14.912 4.2898 2.7637 5.368 3.0257 10.79 2.6215 3.6218-0.27001 9.0045-1.7015 13.5-3.5903zm214.55 1.2718c4.9582-2.3528 10.2-8.6171 10.952-13.088 1.2457-7.4068 2.6439-10.25 7.9859-16.237 7.7105-8.6413 8.3622-11.533 5.5839-24.774-3.4218-16.308-3.1354-15.892-14.113-20.473-15.055-6.2817-43.781-16.827-45.839-16.827-3.4687 0-16.091 7.0611-18.672 10.446-1.3862 1.8174-4.1371 8.1981-6.113 14.179-2.9606 8.9615-3.6831 12.817-4.1066 21.91-0.45445 9.7579-0.27802 11.494 1.5245 15 3.501 6.8099 9.886 11.561 17.442 12.978 2.0081 0.37672 6.7176 2.4952 10.465 4.7076 6.0229 3.5555 28.422 13.581 30.663 13.725 0.46688 0.0299 2.3688-0.66691 4.2265-1.5484zm-63.578-159.15c-2e-3 -0.4125-2.1391-1.875-4.75-3.25-4.0347-2.1248-6.0544-4.451-13.458-15.5-4.791-7.15-8.7285-13.908-8.75-15.018-0.0215-1.11 2.5483-7.185 5.7108-13.5 5.0909-10.166 6.2372-11.748 10-13.807 2.3375-1.2787 4.25-2.7412 4.25-3.25 0-1.0141-16.149-1.2599-19.729-0.30031-1.9905 0.53355-2.0827 0.80612-0.86255 2.5482 1.2039 1.7188 0.93767 2.8944-2.2396 9.8889-1.9833 4.366-3.8633 7.9382-4.1779 7.9382s-2.6687-3.5878-5.2315-7.973l-4.6596-7.973 2.95-1.7426c1.6225-0.95845 2.95-2.102 2.95-2.5413 0-0.7412-51.018 0.09234-51.896 0.84787-0.21792 0.18758 1.4348 2.3275 3.6728 4.7554 5.1666 5.6051 5.556 8.1035 5.0419 32.343-0.41749 19.682-1.2715 23.701-5.5685 26.204-1.2082 0.70371 11.95 1.0287 42.5 1.0497 24.338 0.0167 44.249-0.30709 44.247-0.71959zm-66.915-2.1678c-2.3986-2.3986-2.8416-6.6135-3.5583-33.86l-0.55974-21.278 2.4725-2.4725c3.9056-3.9055 7.7398-3.3302 11.847 1.7775 8.2048 10.205 15.717 23.027 15.717 26.827 0 3.3439-11.989 25.736-15.247 28.478-3.495 2.9409-8.033 3.1653-10.671 0.52772zm29.668-0.16233c-2.4712-1.4393-2.1823-4.7086 1.0948-12.39l2.8448-6.6684 4.1552 6.9943c2.2854 3.8469 4.1552 7.6334 4.1552 8.4145 0 3.8543-7.8722 6.1999-12.25 3.6501zm-29.009 303.93-3.7595-1.0502 0.57271-14.148c0.31499-7.7816 0.78691-15.197 1.0487-16.479 0.3524-1.7253 2.1802-3.1032 7.0387-5.3062 8.9925-4.0774 10.679-3.6919 11.536 2.6367 0.37235 2.75 1.1598 6.572 1.75 8.4934s1.073 7.8141 1.073 13.095c0 8.3905-0.257 9.8342-2.0375 11.446-2.4333 2.2021-11.551 2.8974-17.222 1.3132zm24.377-1.4249c-3.1038-3.9458-2.038-13.816 2.4535-22.721 1.886-3.7394 3.429-7.6162 3.429-8.6151 0-2.2524 3.6955-7.0859 5.4176-7.0859 0.69984 0 2.0869 0.9 3.0824 2s2.8494 2 4.1198 2c3.707 0 4.5279 2.8927 3.4657 12.212-2.389 20.961-2.1503 20.427-10.37 23.183-6.6946 2.2445-9.2339 2.0314-11.598-0.97351z"/></svg>
