<?xml version="1.0" encoding="UTF-8" standalone="no"?>
<svg xmlns="http://www.w3.org/2000/svg" width="193.94719mm" height="12.802387mm" viewBox="0 0 193.94719 12.802387" version="1.1">
  <g id="layer1" transform="translate(68.95472,-67.568554)">
    <g id="g59910" transform="matrix(0.66867868,0,0,1.0245205,-149.98579,-1132.6955)" style="display:inline;fill:#000000">
      <path id="rect59119" style="fill:#000000;stroke-width:0.027072" d="m 182.92133,1171.7083 c -0.73658,0 -1.44235,0.014 -2.08947,0.035 -4.629,0.1515 -7.46572,0.5132 -11.31464,1.4431 -0.8583,0.2073 -1.68474,0.377 -1.83654,0.377 -0.15179,0 -0.82675,-0.074 -1.50015,-0.1651 -4.7112,-0.6694 -9.29578,-0.8085 -13.80799,-0.8063 -4.49691,-0.013 -8.50549,0.2233 -12.51561,0.8147 -2.58257,0.3862 -5.69531,1.0972 -7.54353,1.7232 -3.15795,1.0697 -5.59513,2.5503 -6.64307,4.0359 -0.48673,0.9436 -0.82419,2.2287 -0.1185,3.0731 0.6622,0.7802 1.70599,1.2881 3.09861,1.5079 2.24788,0.3549 4.88601,-0.2542 5.72981,-1.0084 0.8438,-0.7542 0.59846,-1.3806 0.4818,-1.6549 -0.58399,-1.3731 -3.26731,-1.2682 -4.40082,-0.447 -0.64412,0.4666 -0.83551,1.2275 0.42911,1.6595 0.28693,0.098 0.5238,0.1982 0.52688,0.2227 0.0116,0.099 -1.20561,0.3255 -1.74486,0.3255 -0.74867,0 -1.24373,-0.1318 -1.68827,-0.4494 -1.08344,-0.7739 -0.99453,-2.2602 0.21549,-3.6006 0.81319,-0.9007 2.77169,-2.0855 4.5977,-2.7813 6.48402,-2.1497 14.76279,-3.1748 22.84024,-2.7981 3.03081,0.1413 6.79139,0.293 10.61106,0.9336 0,0.018 -0.39895,0.2468 -0.88638,0.5071 -3.60573,1.9252 -3.99606,3.968 -1.05749,5.5328 1.93434,1.03 5.41397,1.7349 9.90217,2.0061 0.94839,0.057 6.27261,0.04 7.56958,-0.026 3.01221,-0.1508 7.59285,-0.5774 10.19497,-1.0464 1.17589,-0.2119 2.03573,-0.3118 3.12916,-0.4913 l 1.66596,-0.2745 2.80022,0.4668 c 3.94985,0.6584 7.31656,1.1048 10.75854,1.5136 1.43559,0.1706 2.93418,0.3237 4.58095,0.45 2.80245,0.2151 5.34803,0.386 7.87646,0.454 2.93518,0.079 3.02416,0.079 5.6358,0.01 3.89352,-0.1086 7.17297,-0.3997 10.03184,-0.8901 1.29534,-0.2554 0.89624,-0.1348 2.27971,-0.4236 2.24952,-0.4697 1.9817,-0.4688 4.52544,-0.3264 1.78754,0.1 3.22623,0.1269 6.6978,0.1251 4.24886,0 5.2985,-0.099 6.5979,-0.1937 1.95126,-0.093 3.34224,-0.3329 4.89769,-0.5514 3.2001,-0.4495 6.58653,-1.2598 8.91056,-2.1321 3.31851,-1.4322 6.0502,-3.4858 3.65446,-5.2894 -0.65928,-0.4881 -1.62837,-0.8512 -2.72078,-1.0193 -0.49926,-0.077 -0.9143,-0.1168 -1.30301,-0.1204 -0.38868,-0.01 -0.75098,0.029 -1.1441,0.098 -0.93199,0.1624 -1.47079,0.3738 -1.82909,0.7177 -0.42209,0.4048 -0.42371,0.792 -0.006,1.2363 0.54527,0.5789 1.39229,0.7686 2.99179,0.6698 0.86199,-0.053 1.50468,-0.2426 1.95903,-0.5772 0.17461,-0.1285 0.37498,-0.2438 0.4453,-0.2562 0.19241,-0.034 0.14971,0.7678 -0.068,1.2755 -0.61984,1.4458 -3.54346,2.8919 -7.97877,3.9467 -2.4556,0.5198 -4.79374,0.9819 -7.3214,1.1931 -2.93231,0.2453 -8.93673,0.5175 -12.24646,0.3721 -1.00497,-0.044 -1.87803,-0.096 -1.93989,-0.1147 -0.0618,-0.019 0.38941,-0.2215 1.00277,-0.4503 1.65738,-0.6183 2.47007,-1.0076 3.44668,-1.6509 1.46962,-1.0942 2.22103,-2.1288 2.06078,-3.0645 -0.24734,-1.4465 -2.06561,-2.5722 -5.19181,-3.214 -1.62703,-0.3245 -3.14307,-0.454 -4.84986,-0.5373 -0.40642,-0.018 -0.88432,-0.029 -1.40768,-0.032 -1.57011,-0.01 -3.54964,0.046 -5.23777,0.1529 -1.74183,0.1108 -5.3019,0.4853 -7.07406,0.744 -1.67364,0.2445 -4.47984,0.6899 -5.03344,0.799 -0.26187,0.052 -1.08831,0.2043 -1.83654,0.3393 -1.87799,0.3386 -4.19058,0.8208 -7.11814,1.4843 -0.54792,0.1241 -1.04719,0.2256 -1.10957,0.2256 -0.0624,0 -0.53247,-0.093 -1.04448,-0.2079 -2.04758,-0.4576 -3.72933,-0.8288 -5.19553,-1.1451 l -0.006,0.01 -0.001,-0.01 c -4.54782,-0.981 -6.83745,-1.3889 -10.05095,-1.8459 -2.74844,-0.3465 -3.70657,-0.4505 -6.55966,-0.6642 -2.02457,-0.1516 -4.51624,-0.217 -6.72596,-0.2098 z m -1.21212,0.7526 c 1.41961,-0.037 2.86286,-0.033 4.29825,0.014 8.72768,0.3314 14.44384,1.2848 20.38596,2.5469 0.47897,0.1017 1.72192,0.3918 2.76223,0.6449 l 1.89153,0.4602 -2.53665,0.5925 c -3.01948,0.681 -5.74561,1.3127 -11.17701,2.5069 -0.51188,0.096 -0.88431,0.099 -1.30299,0.1639 -0.34422,-0.034 -0.61649,-0.057 -0.83962,-0.099 -0.72926,-0.137 -3.53222,-0.7449 -8.26439,-1.7921 -3.71953,-0.8232 -10.215,-2.1836 -16.22932,-3.3991 l -0.7886,-0.1594 0.51651,-0.1323 c 2.97946,-0.7638 7.02523,-1.2371 11.2841,-1.3471 z m 57.62777,0.3595 c 2.37745,-0.034 4.44774,0.047 5.81833,0.2018 2.39889,0.3336 4.25831,1.2118 4.63808,2.191 0.42085,0.7421 -0.0505,1.7696 -0.77956,2.455 -0.99066,0.878 -1.96152,1.3371 -3.10287,1.8537 -2.05481,0.93 -3.17511,1.3724 -6.01257,1.1375 -7.36689,-0.6377 -14.80845,-1.8857 -23.65222,-3.9662 l -1.22117,-0.2873 0.88107,-0.22 c 3.50485,-0.8753 11.31024,-2.2991 15.64132,-2.8533 2.48031,-0.3174 5.27555,-0.476 7.78959,-0.5122 z m -33.02566,1.5837 -0.0534,0.024 h 0.007 z m -37.8439,0.069 c 0.29033,0.041 0.64888,0.1065 2.61053,0.4765 1.33815,0.2523 6.11353,1.2189 6.976,1.4118 0.39502,0.088 0.74241,0.1608 0.77212,0.1608 0.0298,0 0.51791,0.1058 1.08486,0.2352 0.56695,0.1295 1.05752,0.2355 1.09018,0.2355 0.1143,0 9.40268,2.0189 11.36698,2.4708 0.56116,0.1291 1.16652,0.2623 1.34525,0.2962 0.17872,0.034 0.30117,0.073 0.27208,0.087 -0.0291,0.014 -0.66505,0.1456 -1.41327,0.292 -3.91716,0.7662 -8.71314,1.2927 -13.57736,1.4908 -4.6251,0.1882 -9.18662,-0.1949 -11.93611,-1.0024 -1.10594,-0.3248 -2.28521,-0.9399 -2.80422,-1.4627 -0.58747,-0.8095 -0.58387,-1.7939 0.0478,-2.4571 0.64784,-0.6761 1.58134,-1.2811 2.78853,-1.8069 0.85383,-0.372 1.14091,-0.4611 1.3766,-0.4277 z m 45.08134,2.2968 c 0.36732,-0.01 1.14432,0.1718 4.80867,1.0004 0.56449,0.1277 1.06786,0.232 1.11861,0.232 0.0507,0 0.41554,0.073 0.81038,0.1628 3.6979,0.8382 9.97522,1.9589 13.36958,2.3869 1.3713,0.1728 5.37524,0.6114 5.58239,0.6114 0.0349,0 0.0632,0.024 0.0632,0.052 0,0.1704 -4.88246,0.8987 -7.2781,1.0857 -8.82854,0.3468 -15.32193,0.024 -23.12853,-0.7742 -3.4535,-0.4361 -7.84123,-1.1104 -9.36307,-1.4389 l -0.56594,-0.122 0.6802,-0.1497 c 0.3741,-0.082 1.47602,-0.3238 2.44871,-0.5368 0.97268,-0.213 1.68466,-0.3889 1.89338,-0.437 l 0.67648,-0.1592 0.0585,0.01 1.27059,-0.2722 c 1.50729,-0.3228 6.58729,-1.442 7.2324,-1.5934 0.12313,-0.029 0.20012,-0.053 0.32256,-0.057 z" />
      <path id="rect59119-3" style="display:inline;fill:#000000;stroke-width:0.027072" d="m 349.48587,1171.7083 c 0.73657,0 1.44234,0.014 2.08946,0.035 4.62901,0.1515 7.46573,0.5132 11.31465,1.4431 0.8583,0.2073 1.68473,0.377 1.83653,0.377 0.15179,0 0.82675,-0.074 1.50016,-0.1651 4.7112,-0.6694 9.29578,-0.8085 13.80798,-0.8063 4.49691,-0.013 8.5055,0.2233 12.51561,0.8147 2.58257,0.3862 5.69531,1.0972 7.54353,1.7232 3.15795,1.0697 5.59513,2.5503 6.64307,4.0359 0.48673,0.9436 0.82419,2.2287 0.11851,3.0731 -0.66221,0.7802 -1.70599,1.2881 -3.09862,1.5079 -2.24788,0.3549 -5.29118,-0.1137 -6.20121,-1.3161 -0.25735,-0.3401 -0.16158,-1.0802 -0.0104,-1.3472 0.68876,-1.0996 3.26731,-1.2682 4.40082,-0.447 0.64411,0.4666 0.8355,1.2275 -0.42911,1.6595 -0.28693,0.098 -0.5238,0.1982 -0.52688,0.2227 -0.0116,0.099 1.20561,0.3255 1.74486,0.3255 0.74866,0 1.24372,-0.1318 1.68827,-0.4494 1.08343,-0.7739 0.99453,-2.2602 -0.21549,-3.6006 -0.8132,-0.9007 -2.7717,-2.0855 -4.59771,-2.7813 -6.48402,-2.1497 -14.76279,-3.1748 -22.84023,-2.7981 -3.03081,0.1413 -6.7914,0.293 -10.61107,0.9336 0,0.018 0.39896,0.2468 0.88638,0.5071 3.60573,1.9252 3.99607,3.968 1.0575,5.5328 -1.93435,1.03 -5.41397,1.7349 -9.90218,2.0061 -0.94838,0.057 -6.2726,0.04 -7.56958,-0.026 -3.01221,-0.1508 -7.59285,-0.5774 -10.19497,-1.0464 -1.17588,-0.2119 -2.03573,-0.3118 -3.12916,-0.4913 l -1.66595,-0.2745 -2.80023,0.4668 c -3.94985,0.6584 -7.31655,1.1048 -10.75853,1.5136 -1.43559,0.1706 -2.93418,0.3237 -4.58096,0.45 -2.80245,0.2151 -5.34803,0.386 -7.87646,0.454 -2.93517,0.079 -3.02416,0.079 -5.6358,0.01 -3.89352,-0.1086 -7.17296,-0.3997 -10.03183,-0.8901 -1.29534,-0.2554 -0.89625,-0.1348 -2.27972,-0.4236 -2.24952,-0.4697 -1.98169,-0.4688 -4.52543,-0.3264 -1.78754,0.1 -3.22624,0.1269 -6.6978,0.1251 -4.24886,0 -5.29851,-0.099 -6.59791,-0.1937 -1.95125,-0.093 -3.34223,-0.3329 -4.89768,-0.5514 -3.20011,-0.4495 -6.58654,-1.2598 -8.91057,-2.1321 -3.3185,-1.4322 -6.0502,-3.4858 -3.65446,-5.2894 0.65929,-0.4881 1.62837,-0.8512 2.72079,-1.0193 0.49926,-0.077 0.9143,-0.1168 1.303,-0.1204 0.38868,-0.01 0.75098,0.029 1.14411,0.098 0.93198,0.1624 1.47078,0.3738 1.82909,0.7177 0.42209,0.4048 0.42371,0.792 0.006,1.2363 -0.54528,0.5789 -1.39229,0.7686 -2.9918,0.6698 -0.86199,-0.053 -1.50468,-0.2426 -1.95902,-0.5772 -0.17461,-0.1285 -0.37498,-0.2438 -0.44531,-0.2562 -0.1924,-0.034 -0.1497,0.7678 0.068,1.2755 0.61984,1.4458 3.54346,2.8919 7.97876,3.9467 2.4556,0.5198 4.79374,0.9819 7.32141,1.1931 2.9323,0.2453 8.93672,0.5175 12.24645,0.3721 1.00498,-0.044 1.87803,-0.096 1.93989,-0.1147 0.0618,-0.019 -0.38941,-0.2215 -1.00276,-0.4503 -1.65738,-0.6183 -2.47008,-1.0076 -3.44668,-1.6509 -1.46963,-1.0942 -2.22104,-2.1288 -2.06078,-3.0645 0.24733,-1.4465 2.06561,-2.5722 5.19181,-3.214 1.62703,-0.3245 3.14307,-0.454 4.84985,-0.5373 0.40642,-0.018 0.88432,-0.029 1.40768,-0.032 1.57012,-0.01 3.54965,0.046 5.23778,0.1529 1.74183,0.1108 5.30189,0.4853 7.07405,0.744 1.67364,0.2445 4.47985,0.6899 5.03345,0.799 0.26187,0.052 1.08831,0.2043 1.83653,0.3393 1.87799,0.3386 4.19058,0.8208 7.11814,1.4843 0.54793,0.1241 1.04719,0.2256 1.10957,0.2256 0.0624,0 0.53247,-0.093 1.04448,-0.2079 2.04758,-0.4576 3.72933,-0.8288 5.19553,-1.1451 l 0.006,0.01 0.001,-0.01 c 4.54782,-0.981 6.83745,-1.3889 10.05096,-1.8459 2.74844,-0.3465 3.70657,-0.4505 6.55965,-0.6642 2.02457,-0.1516 4.51624,-0.217 6.72596,-0.2098 z m 1.21212,0.7526 c -1.41961,-0.037 -2.86287,-0.033 -4.29825,0.014 -8.72769,0.3314 -14.44384,1.2848 -20.38596,2.5469 -0.47897,0.1017 -1.72192,0.3918 -2.76223,0.6449 l -1.89153,0.4602 2.53665,0.5925 c 3.01947,0.681 5.74561,1.3127 11.17701,2.5069 0.51187,0.096 0.8843,0.099 1.30299,0.1639 0.34421,-0.034 0.61648,-0.057 0.83962,-0.099 0.72925,-0.137 3.53221,-0.7449 8.26439,-1.7921 3.71953,-0.8232 10.21499,-2.1836 16.22931,-3.3991 l 0.78861,-0.1594 -0.51652,-0.1323 c -2.97946,-0.7638 -7.02523,-1.2371 -11.28409,-1.3471 z m -57.62777,0.3595 c -2.37746,-0.034 -4.44774,0.047 -5.81833,0.2018 -2.39889,0.3336 -4.25831,1.2118 -4.63809,2.191 -0.42085,0.7421 0.0505,1.7696 0.77956,2.455 0.99067,0.878 1.96153,1.3371 3.10288,1.8537 2.05481,0.93 3.1751,1.3724 6.01256,1.1375 7.36689,-0.6377 14.80846,-1.8857 23.65223,-3.9662 l 1.22116,-0.2873 -0.88106,-0.22 c -3.50485,-0.8753 -11.31025,-2.2991 -15.64133,-2.8533 -2.48031,-0.3174 -5.27555,-0.476 -7.78958,-0.5122 z m 33.02565,1.5837 0.0534,0.024 h -0.007 z m 37.8439,0.069 c -0.29032,0.041 -0.64887,0.1065 -2.61052,0.4765 -1.33815,0.2523 -6.11354,1.2189 -6.976,1.4118 -0.39503,0.088 -0.74241,0.1608 -0.77213,0.1608 -0.0298,0 -0.51791,0.1058 -1.08486,0.2352 -0.56694,0.1295 -1.05752,0.2355 -1.09018,0.2355 -0.1143,0 -9.40268,2.0189 -11.36697,2.4708 -0.56116,0.1291 -1.16653,0.2623 -1.34525,0.2962 -0.17873,0.034 -0.30118,0.073 -0.27209,0.087 0.0291,0.014 0.66505,0.1456 1.41328,0.292 3.91715,0.7662 8.71314,1.2927 13.57735,1.4908 4.6251,0.1882 9.18663,-0.1949 11.93612,-1.0024 1.10594,-0.3248 2.2852,-0.9399 2.80421,-1.4627 0.58748,-0.8095 0.58388,-1.7939 -0.0478,-2.4571 -0.64784,-0.6761 -1.58133,-1.2811 -2.78853,-1.8069 -0.85383,-0.372 -1.14091,-0.4611 -1.3766,-0.4277 z m -45.08134,2.2968 c -0.36731,-0.01 -1.14432,0.1718 -4.80867,1.0004 -0.56448,0.1277 -1.06786,0.232 -1.1186,0.232 -0.0507,0 -0.41555,0.073 -0.81039,0.1628 -3.6979,0.8382 -9.97522,1.9589 -13.36958,2.3869 -1.37129,0.1728 -5.37523,0.6114 -5.58239,0.6114 -0.0349,0 -0.0632,0.024 -0.0632,0.052 0,0.1704 4.88246,0.8987 7.27811,1.0857 8.82854,0.3468 15.32193,0.024 23.12852,-0.7742 3.45351,-0.4361 7.84124,-1.1104 9.36307,-1.4389 l 0.56595,-0.122 -0.6802,-0.1497 c -0.3741,-0.082 -1.47602,-0.3238 -2.44871,-0.5368 -0.97268,-0.213 -1.68467,-0.3889 -1.89339,-0.437 l -0.67648,-0.1592 -0.0585,0.01 -1.27059,-0.2722 c -1.5073,-0.3228 -6.5873,-1.442 -7.23241,-1.5934 -0.12312,-0.029 -0.20011,-0.053 -0.32255,-0.057 z" />
    </g>
  </g>
</svg>