<?xml version="1.0" encoding="UTF-8" standalone="no"?>
<!-- Created with Inkscape (http://www.inkscape.org/) -->

<svg
   width="150.8125mm"
   height="150.8125mm"
   viewBox="0 0 150.8125 150.8125"
   version="1.1"
   id="svg1"
   xml:space="preserve"
   inkscape:export-filename="bitmap.png"
   inkscape:export-xdpi="84.210526"
   inkscape:export-ydpi="84.210526"
   inkscape:version="1.3.2 (091e20e, 2023-11-25, custom)"
   sodipodi:docname="favicon.svg"
   xmlns:inkscape="http://www.inkscape.org/namespaces/inkscape"
   xmlns:sodipodi="http://sodipodi.sourceforge.net/DTD/sodipodi-0.dtd"
   xmlns="http://www.w3.org/2000/svg"
   xmlns:svg="http://www.w3.org/2000/svg"><sodipodi:namedview
     id="namedview1"
     pagecolor="#ffffff"
     bordercolor="#000000"
     borderopacity="0.25"
     inkscape:showpageshadow="2"
     inkscape:pageopacity="0.0"
     inkscape:pagecheckerboard="0"
     inkscape:deskcolor="#d1d1d1"
     inkscape:document-units="mm"
     inkscape:zoom="0.69219276"
     inkscape:cx="189.25364"
     inkscape:cy="250.65272"
     inkscape:window-width="1920"
     inkscape:window-height="991"
     inkscape:window-x="-9"
     inkscape:window-y="-9"
     inkscape:window-maximized="1"
     inkscape:current-layer="layer1" /><defs
     id="defs1" /><g
     inkscape:label="Layer 1"
     inkscape:groupmode="layer"
     id="layer1"
     transform="translate(-25.887186,-94.308022)"><g
       id="g3"
       transform="translate(2.937659,-1.5289585)"><path
         style="fill:#ffffff;stroke:none;stroke-width:0.47625"
         d="m 56.444064,122.45996 -9.3248,33.65037 1.21628,8.10852 3.37855,7.56795 -2.12128,7.06697 94.355716,2.46055 -0.74329,-6.82468 4.45969,-7.56795 1.11221,-2.85498 0.66892,-10.12934 -2.389,-11.22828 -1.05115,-8.50483 -19.82867,-22.69546 -15.57626,-9.55599 -30.196906,3.01014 z"
         id="path2"
         sodipodi:nodetypes="cccccccccccccccc" /><path
         style="fill:#000000"
         d="m 107.49905,245.96952 c -0.7276,-0.2025 -4.51004,-0.68867 -8.405406,-1.08038 l -7.08249,-0.71221 -2.17793,0.41858 -2.17792,0.41859 -1.39054,-0.22487 c -0.76479,-0.12368 -2.01495,-0.55483 -2.77812,-0.95811 l -1.38759,-0.73325 -3.84042,-3.84653 c -2.11223,-2.11559 -5.41464,-5.75665 -7.33868,-8.09125 l -3.49826,-4.24471 -2.18632,-1.29706 c -1.20247,-0.71338 -2.39468,-1.47085 -2.64934,-1.68327 l -0.46302,-0.38621 v -1.29041 c 0,-0.70972 0.17859,-1.71784 0.39688,-2.24026 l 0.39687,-0.94986 -9e-4,-1.48904 c -10e-4,-2.37752 -0.51852,-7.44113 -0.9271,-9.07895 -0.20643,-0.82747 -0.7564,-2.49435 -1.22215,-3.70417 l -0.84683,-2.19967 -2.31132,-2.39594 -2.31132,-2.39593 -0.28976,-1.04365 c -0.15936,-0.57401 -0.29042,-1.58156 -0.29123,-2.239 l -0.002,-1.19535 -0.68761,-1.01192 -0.68761,-1.01191 0.18653,-2.3568 0.18654,-2.3568 h 0.24499 c 0.50528,0 2.22585,0.83846 2.77044,1.35007 0.31091,0.29209 0.7771,1.00078 1.03598,1.57487 0.25888,0.5741 0.57642,1.04381 0.70563,1.04381 0.12922,0 0.70171,-0.23812 1.2722,-0.52916 l 1.03725,-0.52917 h 1.20966 c 1.46663,0 2.69606,0.49087 3.55065,1.41766 l 0.63819,0.6921 -0.33213,1.48411 -0.33213,1.48412 0.17624,0.93943 c 0.0969,0.51668 0.98876,2.73765 1.98184,4.93548 2.54146,5.6246 2.77864,6.7189 2.00994,9.27311 l -0.37924,1.26012 1.27454,1.96101 c 0.701,1.07856 1.53802,2.66552 1.86003,3.52658 0.32202,0.86106 0.82337,1.78085 1.11411,2.04397 l 0.52863,0.4784 0.61445,-0.71434 0.61445,-0.71434 0.68342,0.53758 c 0.75072,0.59052 0.88532,0.39148 0.27814,-0.41129 l -0.38846,-0.51359 v -1.40464 -1.40464 h 0.36448 c 0.568,0 0.85848,0.51036 1.47441,2.59046 l 0.57118,1.929 -0.17501,0.55143 -0.17502,0.55143 0.35904,0.2275 c 0.55706,0.35297 0.71232,0.28347 0.80366,-0.35971 l 0.0846,-0.59531 0.86324,-0.0832 0.86323,-0.0832 0.74267,0.74462 0.74266,0.74461 0.45275,1.80653 0.45275,1.80652 -0.16294,0.86854 -0.16294,0.86854 0.71966,0.56608 c 0.39581,0.31135 0.84056,0.56608 0.98833,0.56608 h 0.26868 l -0.17391,-2.65367 -0.17391,-2.65368 0.58973,-0.21815 c 0.85423,-0.316 1.81144,0.0226 2.43875,0.86268 l 0.54708,0.73264 0.0358,2.16353 0.0358,2.16353 0.42724,0.0855 0.42724,0.0855 v -1.69818 -1.69819 l 0.49843,-0.45107 0.49843,-0.45107 1.34904,0.17895 1.34903,0.17896 0.3016,0.3634 c 0.44464,0.53576 0.68404,0.45144 1.20047,-0.4228 l 0.46442,-0.7862 0.7274,-0.25357 0.7274,-0.25357 2.15913,1.04413 2.159126,1.04413 -0.13141,1.91387 c -0.0723,1.05263 -0.21776,2.18031 -0.3233,2.50597 l -0.191886,0.59209 0.465146,0.1785 0.46516,0.1785 0.35608,-0.48698 0.35608,-0.48697 -0.1629,-1.75282 -0.16291,-1.75283 0.76075,-0.48401 c 0.41841,-0.26621 1.36706,-0.94452 2.10811,-1.50736 1.51251,-1.14879 1.74218,-1.20822 2.25827,-0.58445 l 0.36312,0.43889 v 2.13619 2.13619 l 0.46302,0.0901 0.46302,0.0901 v -0.75756 c 0,-0.41666 0.1812,-1.46719 0.40266,-2.3345 l 0.40266,-1.57695 0.55269,-0.46302 c 0.60206,-0.50437 1.21801,-0.58297 1.77966,-0.22711 l 0.35954,0.22781 0.13809,1.2895 c 0.15635,1.46013 0.44574,1.95095 1.15029,1.95095 h 0.48746 l 0.27726,-0.51806 0.27725,-0.51806 -0.55502,-0.29704 c -0.72489,-0.38794 -1.55521,-2.24178 -1.56256,-3.48869 l -0.006,-0.9854 0.78061,-0.40367 c 0.42934,-0.22201 1.07999,-0.40367 1.4459,-0.40367 h 0.66529 l 0.27389,0.51178 c 0.15064,0.28147 0.27572,1.08514 0.27794,1.78593 0.008,2.56565 0.90877,2.5813 1.11442,0.0194 l 0.13372,-1.66593 0.69179,-1.36518 c 0.38049,-0.75085 0.82062,-1.4448 0.97808,-1.54212 l 0.28629,-0.17693 0.51249,0.4638 0.5125,0.4638 -0.009,0.6866 c -0.005,0.37762 -0.17953,0.98425 -0.3875,1.34805 -0.54058,0.94565 -0.48317,1.14879 0.19116,0.67646 0.32343,-0.22653 0.74014,-0.41188 0.92605,-0.41188 h 0.338 v 0.52917 c 0,0.72337 0.42826,0.66455 0.94911,-0.13036 l 0.43214,-0.65953 -0.15553,-0.61967 c -0.29073,-1.15838 0.88585,-3.61752 1.73082,-3.61752 h 0.21846 v 1.98437 c 0,1.09141 0.0893,1.98256 0.19844,1.98033 0.50387,-0.0103 0.9559,-0.57635 1.8,-2.25405 l 0.91198,-1.8126 v -1.47865 -1.47864 l 1.57663,-4.7135 1.57664,-4.71349 -0.55968,-0.75701 -0.55968,-0.75701 0.85368,-4.17852 c 1.11894,-5.47686 1.49153,-6.76712 2.11777,-7.33387 l 0.51974,-0.47036 2.067,0.68838 c 1.13684,0.3786 2.21541,0.68837 2.39682,0.68837 h 0.32983 v -0.6876 -0.68759 l 0.7545,-0.70482 c 0.41498,-0.38764 1.18613,-0.93726 1.71367,-1.22136 l 0.95917,-0.51654 1.48378,0.50435 1.48378,0.50435 -0.17084,1.13925 c -0.29339,1.95644 -1.91678,6.15274 -3.34998,8.65935 -0.75578,1.32182 -2.409,4.07019 -3.67382,6.10748 -1.26482,2.03729 -2.43699,3.96655 -2.60481,4.28724 -0.16782,0.32069 -0.66077,2.52522 -1.09543,4.89896 l -0.7903,4.31589 0.23107,0.78958 c 0.12708,0.43427 0.66066,1.42381 1.18571,2.19897 0.94001,1.38777 1.75683,3.564 1.75683,4.68066 v 0.57004 l -2.54557,2.69844 c -2.8123,2.98119 -5.84742,5.63052 -9.5477,8.3341 l -2.43598,1.77982 -3.06615,3.22836 c -1.68639,1.7756 -3.49867,3.55578 -4.0273,3.95596 l -0.96115,0.72761 -1.47422,-0.0237 c -0.81082,-0.013 -2.06953,-0.18934 -2.79714,-0.39184 z M 94.280314,229.96398 c 0.23055,-0.37304 -0.1393,-4.48105 -0.40343,-4.48105 -0.3079,0 -0.79762,2.18376 -0.79762,3.55675 v 1.20575 h 0.51355 c 0.28245,0 0.59183,-0.12665 0.6875,-0.28145 z m 15.070816,-25.43242 c -0.29104,-0.15008 -0.87455,-0.68378 -1.29669,-1.186 l -0.76753,-0.91312 0.28962,-3.46174 0.28962,-3.46174 0.27617,-0.27617 0.27616,-0.27616 1.26008,0.0632 1.26007,0.0632 0.37482,0.37071 0.37481,0.37071 0.12065,2.77477 c 0.13178,3.03099 -0.0537,4.89215 -0.5504,5.52238 -0.4396,0.55781 -1.27327,0.73702 -1.90738,0.41003 z m 3.96364,-0.58266 -0.52405,-0.38265 -0.0891,-3.23308 -0.0891,-3.23307 0.54937,-0.74306 0.54937,-0.74306 -1.97493,-1.03486 -1.97493,-1.03487 -0.44454,0.49122 -0.44454,0.49121 h -0.68991 -0.6899 l -1.95157,-1.32291 c -1.07336,-0.72761 -2.14343,-1.32286 -2.37794,-1.32279 -0.23451,8e-5 -1.05273,0.2382 -1.81828,0.52917 -1.776416,0.67518 -1.976446,0.66613 -2.925466,-0.13242 -0.92149,-0.77538 -1.40935,-0.82201 -2.3248,-0.22218 -0.36873,0.2416 -1.27489,0.53483 -2.01368,0.65161 l -1.34327,0.21235 -0.63111,0.5929 -0.63112,0.5929 -0.42882,1.46746 -0.42882,1.46746 0.4685,2.76349 0.4685,2.76348 -0.58988,0.47766 -0.58988,0.47766 h -1.01657 c -0.55912,0 -1.3261,-0.14103 -1.70441,-0.3134 l -0.68784,-0.3134 -0.80726,0.47686 -0.80727,0.47686 -0.70016,-0.51986 c -0.38509,-0.28592 -1.05572,-1.21108 -1.49028,-2.0559 l -0.79013,-1.53604 0.0477,-2.2086 c 0.0262,-1.21473 0.009,-2.20861 -0.0375,-2.20861 -0.0468,0 -0.52685,0.18456 -1.06672,0.41013 l -0.98157,0.41013 0.18333,0.44977 c 0.68733,1.68626 1.45061,4.22948 1.45061,4.83343 v 0.7191 l -0.38171,0.14647 c -0.20995,0.0806 -0.75919,0.0382 -1.22055,-0.0941 l -0.83883,-0.24058 -1.04346,0.53234 -1.04346,0.53233 -0.53398,-0.16948 -0.53399,-0.16948 -1.19533,-2.55555 -1.19534,-2.55556 0.33713,-2.21712 0.33714,-2.21712 -0.32002,-1.88392 c -0.176,-1.03616 -0.58454,-2.4197 -0.90786,-3.07455 l -0.58786,-1.19062 -3.81863,-2.57969 c -2.10024,-1.41883 -3.89294,-2.57969 -3.98378,-2.57969 -0.0908,0 -0.57038,0.83765 -1.06565,1.86143 -0.49528,1.02378 -1.11791,2.05817 -1.38362,2.29864 l -0.48312,0.43722 -0.9826,-0.34607 c -0.54043,-0.19034 -1.9351,-0.97309 -3.09927,-1.73945 l -2.11666,-1.39338 -1.85209,-0.58922 c -2.30042,-0.73185 -3.83896,-1.59654 -4.73459,-2.66094 l -0.68935,-0.81924 v -2.57374 -2.57373 l 0.79375,-1.25161 c 0.98391,-1.55147 0.98612,-1.92559 0.0226,-3.8343 -0.97066,-1.92287 -1.55828,-3.89293 -2.26255,-7.5854 l -0.55511,-2.91041 -1.84361,-0.1323 -1.84362,-0.13229 -0.0813,-0.97791 -0.0813,-0.97792 1.00731,-0.25232 c 0.55402,-0.13878 1.33473,-0.32606 1.73491,-0.41619 l 0.72761,-0.16386 v -0.41022 c 0,-0.22562 -0.37212,-2.33671 -0.82693,-4.69131 l -0.82692,-4.2811 -0.033,-2.41452 -0.033,-2.41453 1.13998,-2.1778 1.13999,-2.1778 0.50282,-3.08059 c 1.06857,-6.54674 2.99224,-11.51547 6.36564,-16.44205 3.0564,-4.46363 5.49931,-6.90528 8.97553,-8.97092 3.41624,-2.03 9.96434,-5.42725 11.90625,-6.17713 10.46145,-4.039785 11.53532,-4.344915 18.38772,-5.224755 l 4.1221,-0.529274 h 2.86564 2.865636 l 2.34976,0.407354 c 1.29237,0.22405 3.89757,0.76265 5.78934,1.1969 l 3.43959,0.78955 2.24896,1.12506 c 1.23692,0.618775 3.63518,1.878225 5.32945,2.798765 l 3.08049,1.67371 2.87263,2.22623 c 9.40708,7.29028 13.7586,12.11319 17.44158,19.33101 l 1.14878,2.25136 0.39895,1.89326 c 0.21943,1.04129 0.63921,4.75075 0.93285,8.24325 l 0.53389,6.35 0.50501,1.5875 0.505,1.5875 0.31009,3.43959 c 0.17055,1.89177 0.36503,3.70822 0.43218,4.03656 l 0.1221,0.59698 1.44549,-0.16989 1.4455,-0.16988 0.40113,0.3329 0.40113,0.33291 v 0.72896 0.72895 l -0.4016,0.3333 -0.40161,0.3333 -1.55521,-0.14102 -1.55522,-0.14102 -0.15985,0.79923 c -0.0879,0.43958 -0.15985,1.50499 -0.15985,2.36758 0,0.86259 -0.18434,2.37884 -0.40965,3.36945 l -0.40965,1.80111 -1.83931,3.25293 c -1.01162,1.78912 -1.8393,3.48086 -1.8393,3.75943 0,0.27857 0.30636,1.71508 0.6808,3.19226 0.37445,1.47717 0.68985,3.00379 0.7009,3.39248 l 0.0201,0.70671 -0.60704,0.9822 c -0.67086,1.08549 -1.94387,1.98351 -2.81392,1.98504 -0.31017,5.4e-4 -2.25068,0.83442 -4.31224,1.85307 -2.06156,1.01864 -4.02175,1.85208 -4.35598,1.85208 h -0.60769 l -0.46939,-0.51867 c -0.25816,-0.28526 -0.74883,-1.12181 -1.09037,-1.85899 l -0.62099,-1.34033 -2.60959,1.30955 -2.60959,1.30956 -0.80518,0.91705 c -0.72136,0.82158 -1.55796,2.37291 -2.41957,4.48662 l -0.29875,0.73292 -0.67536,0.25677 -0.67536,0.25677 0.24362,0.46552 c 0.13399,0.25604 0.36863,1.06084 0.52142,1.78844 l 0.27781,1.32292 -0.33014,1.74936 -0.33014,1.74935 0.61311,0.7128 c 0.33722,0.39203 0.61312,0.89065 0.61312,1.10805 0,0.63456 -0.7412,1.88966 -1.38028,2.33729 l -0.58955,0.41294 h -1.52525 -1.52526 l 0.16775,-1.98438 0.16774,-1.98437 -0.63414,0.0264 c -0.34877,0.0145 -0.92294,0.10708 -1.27593,0.20573 l -0.6418,0.17935 -0.68289,1.70922 -0.68289,1.70922 -0.40022,0.0771 c -0.22013,0.0424 -0.63605,-0.0951 -0.92427,-0.30559 z m -26.053406,-8.64229 0.33982,-1.60133 -0.27931,-0.27932 -0.27931,-0.27931 -0.9504,0.31366 c -0.52272,0.17252 -0.9504,0.42745 -0.9504,0.56652 0,0.43574 1.3205,2.8811 1.5558,2.8811 0.12319,0 0.37689,-0.72059 0.5638,-1.60132 z m 19.363406,-16.70928 1.92782,-2.70018 0.0999,-1.97809 0.0999,-1.97809 -0.32949,-1.47329 c -0.18122,-0.81031 -1.0396,-3.37829 -1.90751,-5.70662 -0.86792,-2.32833 -1.85194,-5.47565 -2.18673,-6.99404 l -0.6087,-2.76071 -0.4621,-0.3379 -0.4621,-0.33789 -0.4909,0.26272 c -0.26999,0.1445 -0.74396,0.60501 -1.05325,1.02336 l -0.56237,0.76063 -2.380726,-1.44361 c -1.30941,-0.79399 -2.4155,-1.40794 -2.45798,-1.36434 -0.0425,0.0436 -0.56263,1.87657 -1.1559,4.07325 l -1.07867,3.99397 -1.2124,2.82215 -1.21239,2.82216 -0.279,1.78283 -0.27899,1.78284 0.14392,3.83645 c 0.0792,2.11006 0.27956,4.28878 0.44532,4.84162 l 0.30139,1.00516 0.64022,0.2917 0.64023,0.29171 2.10006,-2.00639 c 1.15503,-1.10351 2.47989,-2.2028 2.94413,-2.44287 l 0.84407,-0.43649 0.58091,0.1458 c 0.3195,0.0802 1.616816,1.22097 2.882946,2.53507 1.26613,1.3141 2.35572,2.38928 2.42132,2.38928 0.0656,0 0.98679,-1.21508 2.04709,-2.70019 z m 28.12636,-1.18714 c 0.87313,-0.2151 2.42026,-0.82742 3.43808,-1.36073 l 1.85058,-0.96965 1.77671,-1.67557 1.77671,-1.67557 1.87663,-2.75695 c 1.03215,-1.51633 2.06876,-3.2031 2.30358,-3.74839 l 0.42695,-0.99144 0.1642,-4.7625 0.16419,-4.7625 -0.33747,-2.74332 -0.33747,-2.74333 -0.59572,-1.19282 c -0.63684,-1.27515 -2.16351,-2.76312 -4.30488,-4.19576 l -1.32292,-0.88507 -2.91042,-0.91907 c -1.60072,-0.50548 -3.50572,-1.05764 -4.23333,-1.22702 l -1.32292,-0.30795 -5.68854,0.0287 c -3.1287,0.0158 -6.59362,0.10245 -7.69984,0.1926 l -2.0113,0.16392 -0.16249,-0.81248 -0.1625,-0.81249 -0.60597,-0.39704 -0.60596,-0.39704 -18.122316,-0.0493 -18.12233,-0.0493 -0.52578,1.10357 -0.52579,1.10357 -2.64921,-0.20623 c -1.45707,-0.11343 -4.97093,-0.19652 -7.80859,-0.18464 l -5.15937,0.0216 -2.51355,0.54187 c -1.38244,0.29803 -3.48347,0.91729 -4.66894,1.37614 l -2.1554,0.83427 -1.15189,1.01597 -1.15189,1.01597 -1.10742,2.08422 c -0.60908,1.14632 -1.36971,3.03672 -1.69029,4.20089 l -0.58287,2.11667 0.16459,4.23333 0.1646,4.23333 0.51915,2.11667 c 1.45936,5.94999 4.01808,9.51901 8.35307,11.65131 1.01865,0.50105 2.62599,1.10554 3.57188,1.3433 l 1.71979,0.43229 3.175,-0.12868 3.175,-0.12868 2.11667,-0.71704 c 4.19045,-1.41956 8.66723,-4.39942 12.04787,-8.01937 l 1.91348,-2.04893 2.53094,-3.83794 2.53095,-3.83793 0.89947,-3.27666 0.89947,-3.27667 1.00032,-0.95667 1.00031,-0.95666 0.18795,-1.12793 0.18795,-1.12793 0.45939,-0.24586 c 0.25266,-0.13522 1.66609,-0.32896 3.14095,-0.43054 l 2.681556,-0.18469 0.6612,0.43323 0.66119,0.43323 0.40319,1.35771 c 0.50696,1.7071 0.77751,2.02881 1.88015,2.23567 l 0.8863,0.16627 0.29906,1.49438 c 0.63517,3.17386 1.12816,4.74224 2.10939,6.71067 4.31981,8.66597 14.59535,16.81173 22.61478,17.92748 1.46922,0.20442 2.16087,0.13678 4.50412,-0.44048 z M 91.352424,148.4475 c -0.55093,-3.26095 -1.91249,-4.52511 -7.07056,-6.56474 -1.56435,-0.61859 -2.84427,-1.23067 -2.84427,-1.36018 v -0.23548 h 16.76865 16.768636 l 0.33469,0.40327 c 0.44829,0.54016 0.3198,0.62615 -1.60742,1.07574 -0.91076,0.21247 -2.35908,0.76108 -3.21847,1.21913 l -1.56254,0.83282 -1.14914,1.27812 -1.14914,1.27812 -0.60278,1.45432 -0.60278,1.45431 -0.41433,-9.4e-4 -0.41434,-9.4e-4 -0.66145,-1.37838 -0.66146,-1.37838 -0.75073,-0.53891 -0.75073,-0.5389 -3.225376,0.0258 -3.22538,0.0258 -1.02992,0.48872 -1.02991,0.48873 -0.67885,1.53596 c -0.37337,0.84478 -0.75933,1.53596 -0.8577,1.53596 -0.0984,0 -0.26248,-0.49501 -0.3647,-1.10002 z m 2.10183,-19.3569 -0.71285,-0.61317 -0.12359,-1.96652 -0.1236,-1.96652 3.53367,-0.95439 c 1.94352,-0.52491 3.57077,-0.86009 3.61612,-0.74484 0.0887,0.22531 -1.77295,3.75733 -2.77193,5.25918 -0.33441,0.50276 -0.87812,1.06409 -1.20823,1.2474 l -0.60021,0.33328 8.003646,0.009 c 4.40201,0.005 8.00365,-0.0388 8.00365,-0.0977 0,-0.0589 -0.64373,-0.47033 -1.43051,-0.91436 l -1.43051,-0.80733 -1.62646,-2.43158 -1.62646,-2.43159 0.2127,-0.1837 c 0.11698,-0.10104 1.83877,-0.51549 3.8262,-0.92101 l 3.6135,-0.73732 0.88441,0.1303 0.88442,0.1303 1.05833,-0.37558 c 0.58208,-0.20657 2.46041,-0.59051 4.17406,-0.8532 3.23772,-0.49631 3.53546,-0.59389 3.24515,-1.06362 l -0.1744,-0.28219 h -2.36922 -2.36923 l -0.4935,-0.3082 -0.49351,-0.3082 -6.3878,1.27261 c -3.51329,0.69994 -6.45562,1.20479 -6.53852,1.12189 -0.0829,-0.0829 -0.0685,-0.40973 0.032,-0.72631 l 0.18269,-0.57559 1.18001,-0.52197 1.18001,-0.52197 -0.1036,-0.31144 c -0.057,-0.1713 -0.42509,-0.37097 -0.81804,-0.44374 l -0.71445,-0.13229 0.86857,-1.45055 0.86857,-1.45056 1.25195,-0.92663 1.25196,-0.92664 -0.5905,-0.22836 -0.59049,-0.22836 -2.2164,0.14765 c -1.21902,0.0812 -2.26907,0.20031 -2.33344,0.26468 -0.0644,0.0644 0.0326,0.35661 0.21544,0.64942 l 0.33248,0.53238 -0.88021,1.94078 c -0.48412,1.06743 -0.95814,2.02935 -1.05338,2.13761 -0.0952,0.10826 -0.74144,-0.77552 -1.43599,-1.96396 l -1.262826,-2.16079 0.34841,-0.20074 c 0.19163,-0.11041 0.586536,-0.3837 0.877576,-0.60731 l 0.52917,-0.40658 -3.463886,-0.008 c -1.90515,-0.005 -5.08325,0.0692 -7.06246,0.16417 l -3.59856,0.17258 0.73931,0.69062 c 0.40662,0.37983 0.95538,1.10584 1.21947,1.61335 l 0.48016,0.92274 0.12269,2.70545 0.12269,2.70545 -0.762,0.31709 c -0.4191,0.1744 -1.89309,0.3986 -3.27554,0.49822 l -2.51354,0.18113 -4.15935,1.37298 c -2.28764,0.75514 -4.2211,1.47289 -4.29656,1.595 -0.0755,0.1221 0.0146,0.34797 0.20006,0.50192 l 0.33727,0.27992 3.13127,-0.79133 c 3.3786,-0.85383 4.19024,-0.90357 1.86891,-0.11452 -1.46901,0.49933 -1.77546,0.8258 -1.04005,1.108 l 0.40717,0.15624 4.60265,-1.61975 c 2.53146,-0.89087 4.72949,-1.61976 4.8845,-1.61976 h 0.28184 v 2.26635 2.26635 l -0.27124,0.50681 c -0.14917,0.27875 -0.59566,0.68287 -0.99218,0.89806 l -0.72095,0.39124 3.38819,0.0106 3.38819,0.0106 z m 7.887366,0.0859 c -0.33064,-0.13958 -0.67112,-0.43605 -0.7566,-0.65882 l -0.15543,-0.40504 0.73801,-1.78413 c 0.4059,-0.98127 0.81828,-1.87985 0.9164,-1.99684 0.20531,-0.2448 2.37234,3.28535 2.37234,3.86459 0,0.88247 -1.91708,1.4858 -3.11472,0.98024 z m -8.593086,-8.5723 -0.46302,-0.35149 v -2.83249 -2.8325 l 0.28067,-0.52444 c 0.15437,-0.28844 0.59298,-0.64317 0.97469,-0.7883 l 0.69402,-0.26387 0.69803,0.28914 c 0.99261,0.41115 4.23176,5.00556 4.23176,6.00232 v 0.27166 l -2.6017,0.69914 c -2.9598,0.79537 -3.17761,0.81426 -3.81445,0.33083 z m 2.05052,83.0644 c -0.14552,-0.0565 -0.72512,-0.18007 -1.28799,-0.27456 l -1.0234,-0.17181 0.18658,-4.14934 0.18659,-4.14934 0.43994,-0.43245 c 0.24197,-0.23785 1.19875,-0.7667 2.12617,-1.17523 l 1.68623,-0.74279 0.3643,0.4982 c 0.20036,0.27401 0.36608,0.8624 0.36827,1.30753 0.002,0.44513 0.17556,1.28557 0.38526,1.86766 l 0.38128,1.05833 0.0116,2.55038 0.0116,2.55037 -0.46302,0.54956 -0.46302,0.54956 -1.32292,0.13334 c -0.72761,0.0733 -1.44198,0.0871 -1.5875,0.0306 z m 5.250186,-0.56039 -0.678886,-0.67889 0.18605,-2.03309 0.18605,-2.0331 0.736106,-1.32291 c 0.40485,-0.72761 0.8187,-1.68011 0.91965,-2.11667 0.10095,-0.43656 0.35683,-1.06164 0.56861,-1.38906 l 0.38505,-0.59532 h 0.50992 c 0.28046,0 0.60514,0.16802 0.72151,0.37337 0.11637,0.20536 0.6283,0.48032 1.13763,0.61104 l 0.92604,0.23767 0.078,1.46024 c 0.0429,0.80313 -0.0946,2.62011 -0.30554,4.03773 l -0.38355,2.5775 -0.4882,0.35993 c -0.42649,0.31443 -3.09507,1.19044 -3.62644,1.19044 -0.10621,0 -0.4986,-0.3055 -0.87199,-0.67888 z"
         id="path1" /></g></g></svg>
